<svg xmlns="http://www.w3.org/2000/svg" xmlns:xlink="http://www.w3.org/1999/xlink" preserveAspectRatio="xMidYMid" width="45" height="64" viewBox="0 0 45 64">
  <defs>
    <style>

      .cls-3 {
        fill: #81bda4;
      }

      .cls-4 {
        fill: #ff917b;
      }

      .cls-5 {
        fill: #000000;
      }
    </style>
  </defs>
  <g id="group-8svg">
    <path d="M19.907,44.763 C21.814,49.562 27.052,58.721 39.824,61.448 C41.244,61.752 42.728,61.295 43.756,60.268 C43.756,60.268 43.756,60.268 43.756,60.268 C45.943,58.078 45.194,54.319 42.303,53.219 C34.721,50.335 30.496,45.016 28.235,40.841 C26.768,38.130 23.108,37.606 20.930,39.786 C20.930,39.786 20.930,39.786 20.930,39.786 C19.623,41.093 19.224,43.046 19.907,44.763 Z" id="path-1" class="cls-3" fill-rule="evenodd"/>
    <path d="M20.372,23.669 C17.974,20.266 16.174,17.323 14.827,14.795 C9.654,5.084 11.173,1.498 11.173,1.498 C11.173,1.498 5.510,16.728 5.510,22.795 C5.510,26.016 5.890,28.146 6.931,30.914 C7.911,33.531 10.974,35.442 14.604,35.442 C19.027,35.442 22.612,32.611 22.612,29.118 C22.612,27.632 21.386,25.137 20.372,23.669 Z" id="path-2" class="cls-4" fill-rule="evenodd"/>
    <path d="M10.604,36.943 C6.407,36.943 2.759,34.732 1.526,31.441 C0.421,28.502 0.010,26.158 0.010,22.795 C0.010,16.731 5.162,2.611 5.750,1.021 C5.750,1.021 5.750,1.021 5.750,1.021 C5.750,1.021 5.750,1.021 5.750,1.021 C5.750,1.021 5.750,1.020 5.750,1.020 C5.750,1.020 5.750,1.020 5.750,1.020 C5.750,1.020 5.750,1.020 5.750,1.020 C5.751,1.019 5.751,1.017 5.753,1.014 C5.754,1.011 5.755,1.007 5.757,1.003 C5.762,0.990 5.767,0.975 5.767,0.975 C5.767,0.975 5.768,0.975 5.768,0.975 C5.776,0.950 5.786,0.927 5.792,0.912 C6.111,0.160 6.975,-0.196 7.727,0.104 C8.484,0.405 8.863,1.257 8.579,2.022 C8.577,2.026 8.575,2.031 8.573,2.035 C8.528,2.188 7.618,5.580 12.150,14.089 C13.579,16.770 15.412,19.702 17.598,22.804 C18.473,24.071 20.112,27.003 20.112,29.118 C20.112,33.433 15.847,36.943 10.604,36.943 ZM6.399,8.343 C4.839,13.150 3.010,19.491 3.010,22.795 C3.010,25.798 3.356,27.784 4.335,30.385 C5.119,32.480 7.697,33.941 10.604,33.941 C14.193,33.941 17.112,31.777 17.112,29.118 C17.112,28.176 16.208,26.072 15.139,24.523 C12.889,21.331 10.990,18.292 9.504,15.501 C7.984,12.650 7.011,10.284 6.399,8.343 Z" id="path-3" class="cls-5" fill-rule="evenodd"/>
    <path d="M12.272,47.255 C11.375,45.981 10.701,44.880 10.197,43.933 C8.260,40.297 8.828,38.954 8.828,38.954 C8.828,38.954 6.708,44.657 6.708,46.928 C6.708,48.134 6.851,48.931 7.240,49.968 C7.607,50.948 8.754,51.663 10.113,51.663 C11.769,51.663 13.111,50.603 13.111,49.295 C13.111,48.739 12.652,47.805 12.272,47.255 Z" id="path-4" class="cls-4" fill-rule="evenodd"/>
    <path d="M36.700,63.042 C36.700,63.042 36.700,63.042 36.700,63.042 C36.301,63.042 35.900,63.000 35.511,62.917 C22.197,60.073 16.641,50.670 14.514,45.318 C13.608,43.044 14.141,40.455 15.869,38.725 C17.025,37.568 18.559,36.931 20.186,36.931 C22.431,36.931 24.487,38.155 25.554,40.126 C27.619,43.940 31.600,49.064 38.836,51.816 C40.652,52.507 41.981,54.063 42.392,55.978 C42.809,57.924 42.220,59.925 40.816,61.329 C39.728,62.418 38.228,63.042 36.700,63.042 ZM20.186,39.933 C19.359,39.933 18.580,40.258 17.990,40.848 C17.110,41.729 16.839,43.048 17.301,44.208 C19.207,49.004 24.188,57.429 36.138,59.981 C37.036,60.174 38.030,59.872 38.695,59.206 C39.376,58.525 39.661,57.553 39.458,56.607 C39.260,55.678 38.644,54.955 37.770,54.622 C29.673,51.543 25.224,45.817 22.916,41.556 C22.366,40.540 21.346,39.933 20.186,39.933 Z" id="path-5" class="cls-5" fill-rule="evenodd"/>
  </g>
</svg>
