<svg xmlns="http://www.w3.org/2000/svg" xmlns:xlink="http://www.w3.org/1999/xlink" preserveAspectRatio="xMidYMid" width="66" height="62" viewBox="0 0 66 62">
  <defs>
    <style>

      .cls-3 {
        fill: #53ecf4;
      }

      .cls-4 {
        fill: #edc951;
      }

      .cls-5 {
        fill: #81bda4;
      }

      .cls-6 {
        fill: #000000;
      }
    </style>
  </defs>
  <g id="group-61svg">
    <path d="M65.499,46.017 C65.499,56.826 58.165,60.324 50.973,60.324 C43.780,60.324 36.446,56.826 36.446,46.017 C36.446,35.207 43.780,21.179 50.973,21.179 C58.165,21.179 65.499,35.207 65.499,46.017 Z" id="path-1" class="cls-3" fill-rule="evenodd"/>
    <path d="M31.973,26.142 C31.973,35.991 25.290,39.179 18.736,39.179 C12.183,39.179 5.499,35.991 5.499,26.142 C5.499,16.292 12.183,3.509 18.736,3.509 C25.290,3.509 31.973,16.292 31.973,26.142 Z" id="path-2" class="cls-4" fill-rule="evenodd"/>
    <path d="M31.973,54.533 C31.973,59.937 28.306,61.686 24.710,61.686 C21.114,61.686 17.447,59.937 17.447,54.533 C17.447,49.129 21.114,42.115 24.710,42.115 C28.306,42.115 31.973,49.129 31.973,54.533 Z" id="path-3" class="cls-5" fill-rule="evenodd"/>
    <path d="M46.973,59.824 C36.937,59.824 30.946,53.915 30.946,44.017 C30.946,32.517 38.718,17.679 46.973,17.679 C55.227,17.679 62.999,32.517 62.999,44.017 C62.999,53.915 57.008,59.824 46.973,59.824 ZM46.973,20.679 C41.129,20.679 33.946,33.547 33.946,44.017 C33.946,55.160 42.107,56.824 46.973,56.824 C51.838,56.824 59.999,55.160 59.999,44.017 C59.999,33.547 52.816,20.679 46.973,20.679 Z" id="path-4" class="cls-6" fill-rule="evenodd"/>
    <path d="M14.736,38.679 C5.508,38.679 -0.001,33.244 -0.001,24.142 C-0.001,13.604 7.145,0.009 14.736,0.009 C22.326,0.009 29.473,13.604 29.473,24.142 C29.473,33.244 23.964,38.679 14.736,38.679 ZM14.736,3.009 C9.471,3.009 2.999,14.661 2.999,24.142 C2.999,34.180 10.353,35.679 14.736,35.679 C19.119,35.679 26.473,34.180 26.473,24.142 C26.473,14.661 20.001,3.009 14.736,3.009 Z" id="path-5" class="cls-6" fill-rule="evenodd"/>
    <path d="M54.322,38.679 C53.583,38.679 52.938,38.132 52.838,37.379 C52.037,31.432 47.380,27.899 47.333,27.864 C46.669,27.369 46.532,26.429 47.026,25.765 C47.522,25.100 48.461,24.964 49.126,25.458 C49.359,25.632 54.844,29.795 55.811,36.978 C55.921,37.800 55.346,38.555 54.524,38.666 C54.456,38.674 54.389,38.679 54.322,38.679 Z" id="path-6" class="cls-6" fill-rule="evenodd"/>
    <path d="M20.186,18.867 C19.358,18.867 18.687,18.196 18.687,17.367 C18.687,13.644 14.765,10.126 14.725,10.091 C14.105,9.542 14.047,8.595 14.595,7.975 C15.142,7.354 16.088,7.295 16.709,7.841 C16.912,8.019 21.686,12.279 21.686,17.367 C21.686,18.196 21.015,18.867 20.186,18.867 Z" id="path-7" class="cls-6" fill-rule="evenodd"/>
    <path d="M20.710,61.186 C16.474,61.186 11.947,58.913 11.947,52.533 C11.947,46.398 16.073,38.615 20.710,38.615 C25.347,38.615 29.473,46.398 29.473,52.533 C29.473,58.913 24.946,61.186 20.710,61.186 ZM20.710,41.615 C18.435,41.615 14.947,47.471 14.947,52.533 C14.947,57.205 18.081,58.186 20.710,58.186 C23.339,58.186 26.473,57.205 26.473,52.533 C26.473,47.471 22.985,41.615 20.710,41.615 Z" id="path-8" class="cls-6" fill-rule="evenodd"/>
    <path d="M23.700,52.461 C22.872,52.461 22.200,51.789 22.200,50.961 C22.200,49.513 20.762,47.921 20.258,47.477 C19.636,46.930 19.576,45.982 20.123,45.360 C20.671,44.738 21.617,44.678 22.240,45.226 C22.543,45.492 25.200,47.919 25.200,50.961 C25.200,51.789 24.528,52.461 23.700,52.461 Z" id="path-9" class="cls-6" fill-rule="evenodd"/>
  </g>
</svg>
