<svg xmlns="http://www.w3.org/2000/svg" xmlns:xlink="http://www.w3.org/1999/xlink" preserveAspectRatio="xMidYMid" width="58" height="65" viewBox="0 0 58 65">
  <defs>
    <style>

      .cls-3 {
        fill: #ff917b;
      }

      .cls-4 {
        fill: #000000;
      }
    </style>
  </defs>
  <g id="group-12svg">
    <path d="M8.437,39.562 C8.437,39.562 13.403,39.562 13.403,39.562 C13.632,39.562 14.757,39.221 17.310,36.667 C22.329,31.647 27.697,31.847 34.198,37.047 C34.198,37.047 34.499,37.346 34.499,37.346 C34.499,37.346 34.595,37.750 34.595,37.750 C34.909,38.983 35.474,40.504 35.926,41.164 C37.164,41.168 38.438,41.055 38.840,40.872 C39.159,40.161 39.149,37.253 39.141,35.111 C39.129,31.655 39.114,27.740 39.834,24.722 C40.034,23.880 40.244,23.084 40.439,22.342 C40.860,20.742 41.497,18.326 41.153,17.934 C41.148,17.933 40.799,17.672 39.141,18.088 C33.828,19.418 28.587,20.289 26.221,17.706 C24.963,16.331 24.804,14.247 25.749,11.516 C28.748,2.846 33.883,4.330 36.639,5.128 C37.299,5.319 37.924,5.499 38.313,5.499 C41.370,5.499 46.939,7.033 49.755,11.257 C50.243,11.986 50.743,12.642 51.226,13.273 C53.371,16.074 55.395,18.718 56.491,27.482 C56.777,29.768 57.063,31.807 57.322,33.649 C58.244,40.220 58.853,44.562 57.775,48.874 C56.790,52.814 57.080,54.192 57.144,54.421 C57.144,54.421 57.838,55.434 57.838,55.434 C57.838,55.434 56.645,56.020 56.645,56.020 C56.562,56.062 48.193,60.178 40.346,62.794 C37.076,63.886 33.028,64.502 28.762,64.502 C21.666,64.502 13.964,62.794 8.219,58.708 C8.219,58.708 8.003,58.508 8.003,58.508 C8.003,58.508 5.486,55.501 5.486,55.501 C5.486,55.501 5.486,55.501 5.486,55.501 " id="path-1" class="cls-3" fill-rule="evenodd"/>
    <path d="M24.762,63.002 C16.459,63.002 8.855,60.846 3.350,56.931 C3.296,56.893 3.246,56.852 3.198,56.808 C3.198,56.808 2.982,56.607 2.982,56.607 C2.922,56.551 2.866,56.491 2.816,56.425 C2.816,56.425 0.299,53.168 0.299,53.168 C-0.208,52.513 -0.087,51.571 0.569,51.064 C1.225,50.558 2.166,50.679 2.673,51.333 C2.673,51.333 5.166,54.541 5.166,54.541 C10.094,58.013 17.228,60.002 24.762,60.002 C28.774,60.002 32.720,59.423 35.872,58.372 C42.800,56.061 50.181,52.548 51.697,51.814 C51.508,51.131 51.344,49.411 52.320,45.510 C53.328,41.479 52.734,37.254 51.836,30.858 C51.577,29.009 51.289,26.962 51.003,24.668 C49.958,16.309 48.140,13.935 46.036,11.186 C45.592,10.607 45.041,9.887 44.509,9.092 C42.035,5.381 36.942,3.999 34.313,3.999 C33.708,3.999 32.986,3.790 32.222,3.569 C29.469,2.771 25.701,1.680 23.166,9.006 C22.415,11.178 22.469,12.754 23.328,13.693 C25.181,15.715 30.420,14.723 34.777,13.633 C36.291,13.253 37.294,13.260 37.936,13.654 C38.064,13.733 38.182,13.831 38.281,13.944 C39.036,14.805 38.867,16.011 37.893,19.711 C37.697,20.455 37.490,21.238 37.293,22.067 C36.616,24.909 36.629,28.724 36.641,32.090 C36.655,35.888 36.598,37.611 36.208,38.479 C36.059,38.811 35.794,39.078 35.462,39.229 C34.644,39.603 32.898,39.649 31.920,39.648 C31.427,39.646 30.967,39.402 30.688,38.996 C30.083,38.113 29.462,36.352 29.142,35.088 C29.142,35.088 29.117,34.979 29.117,34.979 C23.152,30.261 18.735,30.113 14.371,34.478 C12.324,36.524 10.653,37.562 9.403,37.562 C9.403,37.562 4.437,37.562 4.437,37.562 C3.609,37.562 2.937,36.891 2.937,36.062 C2.937,35.234 3.609,34.562 4.437,34.562 C4.437,34.562 9.400,34.562 9.400,34.562 C9.368,34.560 10.250,34.356 12.249,32.356 C17.750,26.855 23.927,26.985 31.135,32.750 C31.213,32.813 31.285,32.884 31.350,32.961 C31.350,32.961 31.651,33.323 31.651,33.323 C31.806,33.508 31.913,33.727 31.964,33.962 C31.964,33.962 32.060,34.396 32.060,34.396 C32.266,35.203 32.562,36.041 32.820,36.632 C33.103,36.619 33.354,36.602 33.564,36.582 C33.653,35.431 33.645,33.275 33.641,32.112 C33.628,28.567 33.614,24.561 34.375,21.372 C34.578,20.519 34.790,19.712 34.989,18.958 C35.139,18.390 35.410,17.358 35.586,16.522 C35.560,16.529 35.533,16.536 35.506,16.542 C29.744,17.984 24.013,18.883 21.115,15.719 C19.456,13.905 19.192,11.317 20.332,8.025 C23.797,-1.994 30.286,-0.114 33.056,0.687 C33.450,0.801 34.110,0.992 34.317,0.999 C37.221,0.999 43.615,2.342 47.003,7.425 C47.481,8.139 48.000,8.817 48.417,9.361 C50.589,12.198 52.833,15.130 53.979,24.296 C54.264,26.574 54.549,28.605 54.807,30.441 C55.754,37.185 56.379,41.641 55.230,46.237 C54.525,49.056 54.532,50.396 54.569,50.847 C54.569,50.847 55.075,51.586 55.075,51.586 C55.321,51.945 55.399,52.393 55.289,52.813 C55.179,53.235 54.891,53.587 54.500,53.779 C54.500,53.779 53.308,54.367 53.308,54.367 C53.235,54.403 44.824,58.549 36.821,61.217 C33.322,62.385 29.151,63.002 24.762,63.002 Z" id="path-2" class="cls-4" fill-rule="evenodd"/>
  </g>
</svg>
