<svg xmlns="http://www.w3.org/2000/svg" xmlns:xlink="http://www.w3.org/1999/xlink" preserveAspectRatio="xMidYMid" width="28" height="64" viewBox="0 0 28 64">
  <defs>
    <style>

      .cls-3 {
        fill: #53ecf4;
      }

      .cls-4 {
        fill: #edc951;
      }

      .cls-5 {
        fill: #81bda4;
      }

      .cls-6 {
        fill: #e56a77;
      }

      .cls-7 {
        fill: #000000;
      }
    </style>
  </defs>
  <g id="group-7svg">
    <path d="M28.000,46.031 C28.000,48.241 26.209,50.034 24.000,50.034 C24.000,50.034 8.000,50.034 8.000,50.034 C5.791,50.034 4.000,48.241 4.000,46.031 C4.000,46.031 4.000,8.004 4.000,8.004 C4.000,5.793 5.791,4.001 8.000,4.001 C8.000,4.001 24.000,4.001 24.000,4.001 C26.209,4.001 28.000,5.793 28.000,8.004 C28.000,8.004 28.000,46.031 28.000,46.031 Z" id="path-1" class="cls-3" fill-rule="evenodd"/>
    <path d="M21.205,39.483 C21.205,41.909 19.239,43.877 16.814,43.877 C14.389,43.877 12.423,41.909 12.423,39.483 C12.423,37.056 14.389,35.089 16.814,35.089 C19.239,35.089 21.205,37.056 21.205,39.483 Z" id="path-2" class="cls-4" fill-rule="evenodd"/>
    <path d="M21.205,26.730 C21.205,29.157 19.239,31.124 16.814,31.124 C14.389,31.124 12.423,29.157 12.423,26.730 C12.423,24.304 14.389,22.336 16.814,22.336 C19.239,22.336 21.205,24.304 21.205,26.730 Z" id="path-3" class="cls-5" fill-rule="evenodd"/>
    <path d="M21.205,13.978 C21.205,16.405 19.239,18.372 16.814,18.372 C14.389,18.372 12.423,16.405 12.423,13.978 C12.423,11.551 14.389,9.584 16.814,9.584 C19.239,9.584 21.205,11.551 21.205,13.978 Z" id="path-4" class="cls-6" fill-rule="evenodd"/>
    <path d="M13.814,30.624 C10.565,30.624 7.923,27.980 7.923,24.729 C7.923,21.478 10.565,18.834 13.814,18.834 C17.062,18.834 19.705,21.478 19.705,24.729 C19.705,27.980 17.062,30.624 13.814,30.624 ZM13.814,21.836 C12.220,21.836 10.923,23.134 10.923,24.729 C10.923,26.324 12.220,27.622 13.814,27.622 C15.408,27.622 16.705,26.324 16.705,24.729 C16.705,23.134 15.408,21.836 13.814,21.836 Z" id="path-5" class="cls-7" fill-rule="evenodd"/>
    <path d="M13.814,43.376 C10.565,43.376 7.923,40.732 7.923,37.481 C7.923,34.231 10.565,31.586 13.814,31.586 C17.062,31.586 19.705,34.231 19.705,37.481 C19.705,40.732 17.062,43.376 13.814,43.376 ZM13.814,34.588 C12.220,34.588 10.923,35.886 10.923,37.481 C10.923,39.076 12.220,40.374 13.814,40.374 C15.408,40.374 16.705,39.076 16.705,37.481 C16.705,35.886 15.408,34.588 13.814,34.588 Z" id="path-6" class="cls-7" fill-rule="evenodd"/>
    <path d="M21.500,49.033 C21.500,49.033 5.500,49.033 5.500,49.033 C2.468,49.033 -0.000,46.564 -0.000,43.529 C-0.000,43.529 -0.000,5.502 -0.000,5.502 C-0.000,2.467 2.468,-0.002 5.500,-0.002 C5.500,-0.002 21.500,-0.002 21.500,-0.002 C24.532,-0.002 27.000,2.467 27.000,5.502 C27.000,5.502 27.000,43.529 27.000,43.529 C27.000,46.564 24.532,49.033 21.500,49.033 ZM5.500,3.000 C4.121,3.000 3.000,4.123 3.000,5.502 C3.000,5.502 3.000,43.529 3.000,43.529 C3.000,44.909 4.121,46.031 5.500,46.031 C5.500,46.031 21.500,46.031 21.500,46.031 C22.879,46.031 24.000,44.909 24.000,43.529 C24.000,43.529 24.000,5.502 24.000,5.502 C24.000,4.123 22.879,3.000 21.500,3.000 C21.500,3.000 5.500,3.000 5.500,3.000 Z" id="path-7" class="cls-7" fill-rule="evenodd"/>
    <path d="M13.814,17.871 C10.565,17.871 7.923,15.227 7.923,11.977 C7.923,8.726 10.565,6.081 13.814,6.081 C17.062,6.081 19.705,8.726 19.705,11.977 C19.705,15.227 17.062,17.871 13.814,17.871 ZM13.814,9.083 C12.220,9.083 10.923,10.381 10.923,11.977 C10.923,13.572 12.220,14.869 13.814,14.869 C15.408,14.869 16.705,13.572 16.705,11.977 C16.705,10.381 15.408,9.083 13.814,9.083 Z" id="path-8" class="cls-7" fill-rule="evenodd"/>
    <path d="M13.814,30.624 C10.565,30.624 7.923,27.980 7.923,24.729 C7.923,21.478 10.565,18.834 13.814,18.834 C17.062,18.834 19.705,21.478 19.705,24.729 C19.705,27.980 17.062,30.624 13.814,30.624 ZM13.814,21.836 C12.220,21.836 10.923,23.134 10.923,24.729 C10.923,26.324 12.220,27.622 13.814,27.622 C15.408,27.622 16.705,26.324 16.705,24.729 C16.705,23.134 15.408,21.836 13.814,21.836 Z" id="path-9" class="cls-7" fill-rule="evenodd"/>
    <path d="M13.500,63.543 C12.119,63.543 11.000,62.423 11.000,61.042 C11.000,61.042 11.000,49.033 11.000,49.033 C11.000,47.651 12.119,46.531 13.500,46.531 C14.881,46.531 16.000,47.651 16.000,49.033 C16.000,49.033 16.000,61.042 16.000,61.042 C16.000,62.423 14.881,63.543 13.500,63.543 Z" id="path-10" class="cls-7" fill-rule="evenodd"/>
  </g>
</svg>
