<svg xmlns="http://www.w3.org/2000/svg" xmlns:xlink="http://www.w3.org/1999/xlink" preserveAspectRatio="xMidYMid" width="63" height="58" viewBox="0 0 63 58">
  <defs>
    <style>

      .cls-3 {
        fill: #81bda4;
      }

      .cls-4 {
        fill: #e56a77;
      }

      .cls-5 {
        fill: #edc951;
      }

      .cls-6 {
        fill: #000000;
      }
    </style>
  </defs>
  <g id="group-33svg">
    <path d="M24.289,56.022 C24.289,56.022 9.555,57.709 9.555,57.709 C6.785,58.034 4.000,55.869 4.000,53.078 C4.000,53.078 4.000,10.009 4.000,10.009 C4.000,7.729 6.458,5.645 8.720,5.377 C8.720,5.377 23.953,3.554 23.953,3.554 C24.092,3.537 24.000,3.639 24.000,3.779 C24.000,3.779 24.000,55.773 24.000,55.773 C24.000,55.896 24.410,56.007 24.289,56.022 Z" id="path-1" class="cls-3" fill-rule="evenodd"/>
    <path d="M44.132,58.353 C44.132,58.353 58.983,57.422 58.983,57.422 C61.442,57.272 63.000,55.232 63.000,52.767 C63.000,52.767 63.000,9.653 63.000,9.653 C63.000,6.966 61.552,4.835 58.872,4.998 C58.872,4.998 43.757,5.885 43.757,5.885 C43.618,5.869 43.000,5.971 43.000,6.110 C43.000,6.110 43.000,58.105 43.000,58.105 C43.000,58.228 44.011,58.339 44.132,58.353 Z" id="path-2" class="cls-4" fill-rule="evenodd"/>
    <path d="M43.000,58.298 C43.000,58.298 24.000,55.973 24.000,55.973 C24.000,55.973 24.000,3.501 24.000,3.501 C24.000,3.501 43.000,5.841 43.000,5.841 C43.000,5.841 43.000,58.298 43.000,58.298 Z" id="path-3" class="cls-5" fill-rule="evenodd"/>
    <path d="M6.376,57.241 C2.920,57.241 -0.000,54.418 -0.000,51.076 C-0.000,51.076 -0.000,8.007 -0.000,8.007 C-0.000,5.060 2.653,2.256 5.794,1.885 C5.794,1.885 21.356,0.049 21.356,0.049 C22.153,0.049 23.000,0.655 23.000,1.777 C23.000,1.777 23.000,53.491 23.000,53.491 C23.178,54.016 23.037,54.444 22.922,54.674 C22.922,54.674 22.559,55.396 22.559,55.396 C22.559,55.396 21.714,55.511 21.714,55.511 C21.714,55.511 7.102,57.199 7.102,57.199 C6.861,57.228 6.617,57.241 6.376,57.241 ZM20.000,3.222 C20.000,3.222 6.147,4.867 6.147,4.867 C4.529,5.058 3.000,6.584 3.000,8.007 C3.000,8.007 3.000,51.076 3.000,51.076 C2.999,52.879 4.806,54.446 6.755,54.217 C6.755,54.217 20.000,52.687 20.000,52.687 C20.000,52.687 20.000,3.222 20.000,3.222 Z" id="path-4" class="cls-6" fill-rule="evenodd"/>
    <path d="M41.382,57.853 C41.324,57.853 41.266,57.850 41.207,57.843 C40.662,57.779 39.000,57.583 39.000,56.104 C39.000,56.104 39.000,4.109 39.000,4.109 C39.000,2.987 40.080,2.775 41.097,2.775 C41.103,2.775 41.109,2.775 41.115,2.775 C41.115,2.775 56.034,1.695 56.034,1.695 C56.158,1.687 56.284,1.585 56.408,1.585 C59.648,1.585 62.000,4.079 62.000,7.651 C62.000,7.651 62.000,50.766 62.000,50.766 C62.000,54.080 59.614,56.725 56.450,56.919 C56.450,56.919 41.476,57.850 41.476,57.850 C41.444,57.852 41.413,57.853 41.382,57.853 ZM42.000,5.336 C42.000,5.336 42.000,54.810 42.000,54.810 C42.000,54.810 56.265,53.922 56.265,53.922 C57.851,53.825 59.000,52.498 59.000,50.766 C59.000,50.766 59.000,7.651 59.000,7.651 C59.000,6.021 58.130,4.377 56.213,4.495 C56.213,4.495 42.000,5.336 42.000,5.336 Z" id="path-5" class="cls-6" fill-rule="evenodd"/>
    <path d="M40.500,57.797 C40.439,57.797 40.379,57.793 40.318,57.786 C40.318,57.786 21.318,55.462 21.318,55.462 C20.565,55.370 20.000,54.731 20.000,53.972 C20.000,53.972 20.000,1.500 20.000,1.500 C20.000,1.070 20.184,0.661 20.506,0.376 C20.828,0.091 21.260,-0.042 21.683,0.010 C21.683,0.010 40.683,2.349 40.683,2.349 C41.435,2.442 42.000,3.081 42.000,3.840 C42.000,3.840 42.000,56.296 42.000,56.296 C42.000,56.726 41.816,57.135 41.494,57.420 C41.218,57.664 40.864,57.797 40.500,57.797 ZM23.000,52.643 C23.000,52.643 39.000,54.601 39.000,54.601 C39.000,54.601 39.000,5.167 39.000,5.167 C39.000,5.167 23.000,3.197 23.000,3.197 C23.000,3.197 23.000,52.643 23.000,52.643 Z" id="path-6" class="cls-6" fill-rule="evenodd"/>
    <path d="M2.211,40.179 C1.958,40.179 1.702,40.115 1.467,39.980 C0.748,39.569 0.499,38.651 0.911,37.932 C0.911,37.932 14.163,14.760 14.163,14.760 C14.458,14.244 15.038,13.952 15.620,14.012 C16.210,14.074 16.709,14.478 16.892,15.043 C16.892,15.043 22.178,31.385 22.178,31.385 C22.178,31.385 24.123,26.599 24.123,26.599 C24.275,26.226 24.571,25.929 24.943,25.776 C25.315,25.623 25.733,25.626 26.104,25.785 C26.104,25.785 41.443,32.363 41.443,32.363 C41.443,32.363 53.685,19.148 53.685,19.148 C54.247,18.541 55.196,18.504 55.804,19.067 C55.804,19.067 61.648,24.479 61.648,24.479 C62.257,25.042 62.293,25.992 61.731,26.600 C61.169,27.208 60.219,27.246 59.611,26.682 C59.611,26.682 54.866,22.289 54.866,22.289 C54.866,22.289 42.924,35.180 42.924,35.180 C42.493,35.645 41.817,35.790 41.233,35.539 C41.233,35.539 26.327,29.147 26.327,29.147 C26.327,29.147 23.408,36.328 23.408,36.328 C23.170,36.913 22.583,37.288 21.963,37.263 C21.333,37.240 20.785,36.825 20.591,36.225 C20.591,36.225 15.082,19.197 15.082,19.197 C15.082,19.197 3.514,39.423 3.514,39.423 C3.237,39.907 2.731,40.179 2.211,40.179 Z" id="path-7" class="cls-6" fill-rule="evenodd"/>
  </g>
</svg>
