<svg xmlns="http://www.w3.org/2000/svg" xmlns:xlink="http://www.w3.org/1999/xlink" preserveAspectRatio="xMidYMid" width="65" height="65" viewBox="0 0 65 65">
  <defs>
    <style>

      .cls-3 {
        fill: #81bda4;
      }

      .cls-4 {
        fill: #000000;
      }

      .cls-7 {
        fill: #edc951;
      }

      .cls-8 {
        fill: #e56a77;
      }
    </style>
  </defs>
  <g id="group-10svg">
    <path d="M53.480,40.445 C53.480,40.445 47.010,46.916 47.010,46.916 C47.010,46.916 35.415,35.321 35.415,35.321 C35.415,35.321 23.821,23.727 23.821,23.727 C23.821,23.727 30.292,17.256 30.292,17.256 C31.841,15.707 31.841,13.196 30.292,11.647 C30.292,11.647 24.307,5.662 24.307,5.662 C22.765,4.119 20.240,4.119 18.697,5.662 C18.697,5.662 7.787,16.572 7.787,16.572 C4.689,19.670 4.689,24.692 7.787,27.790 C7.787,27.790 25.367,45.370 25.367,45.370 C25.367,45.370 42.174,62.177 42.174,62.177 C45.271,65.274 50.294,65.274 53.393,62.177 C53.393,62.177 64.303,51.266 64.303,51.266 C65.852,49.717 65.852,47.206 64.303,45.657 C64.303,45.657 59.090,40.445 59.090,40.445 C57.541,38.896 55.029,38.896 53.480,40.445 Z" id="path-1" class="cls-3" fill-rule="evenodd"/>
    <path d="M43.783,63.000 C41.264,63.000 38.894,62.019 37.113,60.237 C37.113,60.237 2.727,25.851 2.727,25.851 C-0.951,22.173 -0.951,16.189 2.727,12.511 C2.727,12.511 13.637,1.601 13.637,1.601 C14.666,0.572 16.039,0.005 17.502,0.005 C18.966,0.005 20.338,0.572 21.367,1.601 C21.367,1.601 27.352,7.586 27.352,7.586 C29.483,9.717 29.483,13.185 27.352,15.317 C27.352,15.317 21.942,20.727 21.942,20.727 C21.942,20.727 43.010,41.794 43.010,41.794 C43.010,41.794 48.420,36.384 48.420,36.384 C49.452,35.351 50.825,34.783 52.285,34.783 C53.745,34.783 55.118,35.351 56.150,36.384 C56.150,36.384 61.363,41.597 61.363,41.597 C63.494,43.727 63.494,47.195 61.363,49.327 C61.363,49.327 50.453,60.237 50.453,60.237 C48.671,62.019 46.303,63.000 43.783,63.000 ZM17.502,3.005 C16.840,3.005 16.221,3.260 15.758,3.723 C15.758,3.723 4.848,14.632 4.848,14.632 C2.340,17.141 2.340,21.222 4.848,23.730 C4.848,23.730 39.234,58.116 39.234,58.116 C40.449,59.331 42.064,60.000 43.783,60.000 C45.501,60.000 47.117,59.331 48.332,58.116 C48.332,58.116 59.242,47.206 59.242,47.206 C60.203,46.244 60.203,44.679 59.242,43.718 C59.242,43.718 54.029,38.505 54.029,38.505 C53.098,37.574 51.473,37.574 50.541,38.505 C50.541,38.505 44.070,44.976 44.070,44.976 C43.508,45.539 42.512,45.539 41.949,44.976 C41.949,44.976 18.761,21.788 18.761,21.788 C18.175,21.202 18.175,20.252 18.761,19.666 C18.761,19.666 25.231,13.196 25.231,13.196 C26.192,12.234 26.192,10.669 25.231,9.707 C25.231,9.707 19.246,3.722 19.246,3.722 C18.783,3.260 18.164,3.005 17.502,3.005 Z" id="path-2" class="cls-4" fill-rule="evenodd"/>
    <path d="M56.923,53.145 C56.539,53.145 56.155,52.999 55.862,52.706 C55.862,52.706 45.041,41.885 45.041,41.885 C44.455,41.299 44.455,40.349 45.041,39.764 C45.627,39.178 46.576,39.178 47.162,39.764 C47.162,39.764 57.983,50.585 57.983,50.585 C58.569,51.170 58.569,52.121 57.983,52.706 C57.690,52.999 57.307,53.145 56.923,53.145 Z" id="path-3" class="cls-4" fill-rule="evenodd"/>
    <path d="M22.913,19.135 C22.529,19.135 22.145,18.989 21.853,18.696 C21.853,18.696 10.258,7.101 10.258,7.101 C9.672,6.516 9.672,5.565 10.258,4.980 C10.844,4.394 11.793,4.394 12.379,4.980 C12.379,4.980 23.974,16.575 23.974,16.575 C24.560,17.160 24.560,18.110 23.974,18.696 C23.681,18.989 23.297,19.135 22.913,19.135 Z" id="path-4" class="cls-4" fill-rule="evenodd"/>
    <path d="M50.469,24.687 C50.469,24.687 57.803,24.687 57.803,24.687 C57.803,19.687 54.872,16.957 51.082,16.464 C52.927,16.011 54.301,14.073 54.301,12.088 C54.301,9.756 52.130,8.162 49.798,8.162 C49.798,8.162 49.798,8.162 49.798,8.162 " id="path-5" class="cls-7" fill-rule="evenodd"/>
    <path d="M39.458,27.445 C39.458,22.134 43.764,17.829 49.074,17.829 C54.385,17.829 58.690,22.134 58.690,27.445 C58.690,27.445 58.690,27.445 58.690,27.445 " id="path-6" class="cls-8" fill-rule="evenodd"/>
    <path d="M54.331,11.837 C54.331,14.740 51.978,17.094 49.074,17.094 C46.171,17.094 43.817,14.740 43.817,11.837 C43.817,8.934 46.171,6.580 49.074,6.580 C51.978,6.580 54.331,8.934 54.331,11.837 Z" id="path-7" class="cls-7" fill-rule="evenodd"/>
    <path d="M60.803,25.687 C60.803,25.687 53.469,25.687 53.469,25.687 C52.641,25.687 51.969,25.016 51.969,24.187 C51.969,23.359 52.641,22.687 53.469,22.687 C53.469,22.687 59.194,22.687 59.194,22.687 C58.641,19.107 56.078,17.986 53.889,17.701 C53.173,17.608 52.624,17.018 52.584,16.297 C52.544,15.576 53.023,14.929 53.725,14.757 C54.908,14.467 55.801,13.266 55.801,11.963 C55.801,10.571 54.397,9.350 52.798,9.350 C51.970,9.350 51.298,8.678 51.298,7.850 C51.298,7.021 51.970,6.350 52.798,6.350 C56.052,6.350 58.801,8.920 58.801,11.963 C58.801,13.341 58.318,14.643 57.509,15.668 C60.560,17.163 62.303,20.172 62.303,24.187 C62.303,25.016 61.631,25.687 60.803,25.687 Z" id="path-8" class="cls-4" fill-rule="evenodd"/>
    <path d="M35.469,25.687 C35.469,25.687 29.738,25.687 29.738,25.687 C28.910,25.687 28.238,25.016 28.238,24.187 C28.238,20.172 29.980,17.163 33.032,15.668 C32.223,14.643 31.740,13.341 31.740,11.963 C31.740,8.710 33.997,6.350 37.107,6.350 C37.936,6.350 38.607,7.021 38.607,7.850 C38.607,8.678 37.936,9.350 37.107,9.350 C35.360,9.350 34.740,10.758 34.740,11.963 C34.740,13.266 35.633,14.467 36.816,14.757 C37.518,14.929 37.997,15.576 37.957,16.297 C37.917,17.018 37.368,17.608 36.652,17.701 C34.463,17.986 31.900,19.107 31.347,22.687 C31.347,22.687 35.469,22.687 35.469,22.687 C36.297,22.687 36.969,23.359 36.969,24.187 C36.969,25.016 36.297,25.687 35.469,25.687 Z" id="path-9" class="cls-4" fill-rule="evenodd"/>
    <path d="M54.690,28.945 C53.862,28.945 53.190,28.273 53.190,27.445 C53.190,22.970 49.550,19.329 45.074,19.329 C40.599,19.329 36.958,22.970 36.958,27.445 C36.958,28.273 36.286,28.945 35.458,28.945 C34.630,28.945 33.958,28.273 33.958,27.445 C33.958,21.315 38.944,16.329 45.074,16.329 C51.204,16.329 56.190,21.315 56.190,27.445 C56.190,28.273 55.518,28.945 54.690,28.945 Z" id="path-10" class="cls-4" fill-rule="evenodd"/>
    <path d="M45.074,18.594 C41.349,18.594 38.317,15.562 38.317,11.837 C38.317,8.111 41.349,5.080 45.074,5.080 C48.800,5.080 51.831,8.111 51.831,11.837 C51.831,15.562 48.800,18.594 45.074,18.594 ZM45.074,8.080 C43.003,8.080 41.317,9.766 41.317,11.837 C41.317,13.908 43.003,15.594 45.074,15.594 C47.145,15.594 48.831,13.908 48.831,11.837 C48.831,9.766 47.145,8.080 45.074,8.080 Z" id="path-11" class="cls-4" fill-rule="evenodd"/>
  </g>
</svg>
