<svg xmlns="http://www.w3.org/2000/svg" xmlns:xlink="http://www.w3.org/1999/xlink" preserveAspectRatio="xMidYMid" width="68" height="64" viewBox="0 0 68 64">
  <defs>
    <style>

      .cls-3 {
        fill: #99746a;
      }

      .cls-4 {
        fill: #81bda4;
      }

      .cls-5 {
        fill: #ffffff;
      }

      .cls-6 {
        fill: #000000;
      }
    </style>
  </defs>
  <g id="group-51svg">
    <path d="M14.000,26.000 C14.000,26.000 14.000,6.728 14.000,6.728 C14.000,3.977 16.335,2.000 19.085,2.000 C19.085,2.000 40.085,2.000 40.085,2.000 C42.835,2.000 45.000,3.977 45.000,6.728 C45.000,6.728 45.000,21.227 45.000,21.227 C45.000,21.227 45.000,26.000 45.000,26.000 C45.000,26.000 14.000,26.000 14.000,26.000 Z" id="path-1" class="cls-3" fill-rule="evenodd"/>
    <path d="M60.343,24.194 C64.836,24.194 68.000,27.837 68.000,32.330 C68.000,32.330 68.000,55.720 68.000,55.720 C68.000,60.213 65.314,64.000 60.821,64.000 C60.821,64.000 17.093,64.000 17.093,64.000 C12.600,64.000 8.000,60.213 8.000,55.720 C8.000,55.720 8.000,32.330 8.000,32.330 C8.000,27.837 11.882,24.194 16.375,24.194 C16.375,24.194 16.375,24.194 16.375,24.194 " id="path-2" class="cls-4" fill-rule="evenodd"/>
    <path d="M67.939,29.279 C67.939,29.279 42.982,44.496 42.982,44.496 C40.509,45.909 37.476,45.926 34.987,44.540 C34.987,44.540 10.482,29.279 10.482,29.279 C10.482,29.279 10.482,29.279 10.482,29.279 " id="path-3" class="cls-5" fill-rule="evenodd"/>
    <path d="M53.821,63.000 C53.821,63.000 10.093,63.000 10.093,63.000 C4.527,63.000 -0.000,58.837 -0.000,53.720 C-0.000,53.720 -0.000,30.330 -0.000,30.330 C-0.000,25.013 4.219,20.847 9.603,20.847 C10.432,20.847 11.103,21.519 11.103,22.347 C11.103,23.176 10.432,23.847 9.603,23.847 C5.900,23.847 3.000,26.695 3.000,30.330 C3.000,30.330 3.000,53.720 3.000,53.720 C3.000,57.183 6.182,60.000 10.093,60.000 C10.093,60.000 53.821,60.000 53.821,60.000 C57.459,60.000 60.000,57.417 60.000,53.720 C60.000,53.720 60.000,30.330 60.000,30.330 C60.000,26.721 57.156,24.000 53.386,24.000 C53.386,24.000 42.000,24.000 42.000,24.000 C41.172,24.000 40.500,23.329 40.500,22.500 C40.500,21.671 41.172,21.000 42.000,21.000 C42.000,21.000 53.386,21.000 53.386,21.000 C58.777,21.000 63.000,25.098 63.000,30.330 C63.000,30.330 63.000,53.720 63.000,53.720 C63.000,59.097 59.140,63.000 53.821,63.000 Z" id="path-4" class="cls-6" fill-rule="evenodd"/>
    <path d="M31.925,45.056 C30.308,45.056 28.698,44.653 27.258,43.851 C27.258,43.851 2.689,28.552 2.689,28.552 C1.986,28.114 1.771,27.189 2.209,26.486 C2.648,25.781 3.573,25.570 4.275,26.005 C4.275,26.005 28.780,41.267 28.780,41.267 C30.735,42.353 33.233,42.338 35.238,41.193 C35.238,41.193 59.135,26.013 59.135,26.013 C59.836,25.568 60.761,25.775 61.206,26.475 C61.649,27.174 61.443,28.101 60.744,28.545 C60.744,28.545 36.787,43.762 36.787,43.762 C35.276,44.625 33.597,45.056 31.925,45.056 Z" id="path-5" class="cls-6" fill-rule="evenodd"/>
    <path d="M10.500,27.500 C9.672,27.500 9.000,26.829 9.000,26.000 C9.000,26.000 9.000,6.728 9.000,6.728 C9.000,2.955 11.673,-0.000 15.085,-0.000 C15.085,-0.000 36.085,-0.000 36.085,-0.000 C39.704,-0.000 43.000,3.206 43.000,6.728 C43.000,6.728 43.000,21.000 43.000,21.000 C43.000,21.829 42.328,22.500 41.500,22.500 C40.672,22.500 40.000,21.829 40.000,21.000 C40.000,21.000 40.000,6.728 40.000,6.728 C40.000,4.846 38.060,3.000 36.085,3.000 C36.085,3.000 15.085,3.000 15.085,3.000 C13.081,3.000 12.000,4.920 12.000,6.728 C12.000,6.728 12.000,26.000 12.000,26.000 C12.000,26.829 11.328,27.500 10.500,27.500 Z" id="path-6" class="cls-6" fill-rule="evenodd"/>
    <path d="M36.000,11.000 C36.000,11.000 17.000,11.000 17.000,11.000 C16.172,11.000 15.500,10.329 15.500,9.500 C15.500,8.671 16.172,8.000 17.000,8.000 C17.000,8.000 36.000,8.000 36.000,8.000 C36.828,8.000 37.500,8.671 37.500,9.500 C37.500,10.329 36.828,11.000 36.000,11.000 Z" id="path-7" class="cls-6" fill-rule="evenodd"/>
    <path d="M36.000,17.000 C36.000,17.000 17.000,17.000 17.000,17.000 C16.172,17.000 15.500,16.328 15.500,15.500 C15.500,14.671 16.172,14.000 17.000,14.000 C17.000,14.000 36.000,14.000 36.000,14.000 C36.828,14.000 37.500,14.671 37.500,15.500 C37.500,16.328 36.828,17.000 36.000,17.000 Z" id="path-8" class="cls-6" fill-rule="evenodd"/>
    <path d="M36.000,23.000 C36.000,23.000 17.000,23.000 17.000,23.000 C16.172,23.000 15.500,22.329 15.500,21.500 C15.500,20.671 16.172,20.000 17.000,20.000 C17.000,20.000 36.000,20.000 36.000,20.000 C36.828,20.000 37.500,20.671 37.500,21.500 C37.500,22.329 36.828,23.000 36.000,23.000 Z" id="path-9" class="cls-6" fill-rule="evenodd"/>
  </g>
</svg>
