<svg xmlns="http://www.w3.org/2000/svg" xmlns:xlink="http://www.w3.org/1999/xlink" preserveAspectRatio="xMidYMid" width="66" height="65" viewBox="0 0 66 65">
  <defs>
    <style>

      .cls-3 {
        fill: #53ecf4;
      }

      .cls-4 {
        fill: #e56a77;
      }

      .cls-5 {
        fill: #000000;
      }

      .cls-7 {
        fill: #ffffff;
      }
    </style>
  </defs>
  <g id="group-19svg">
    <path d="M43.000,56.031 C43.000,60.452 39.418,64.036 35.000,64.036 C35.000,64.036 14.000,64.036 14.000,64.036 C9.582,64.036 6.000,60.452 6.000,56.031 C6.000,56.031 6.000,35.016 6.000,35.016 C6.000,30.594 9.582,27.010 14.000,27.010 C14.000,27.010 35.000,27.010 35.000,27.010 C39.418,27.010 43.000,30.594 43.000,35.016 C43.000,35.016 43.000,56.031 43.000,56.031 Z" id="path-1" class="cls-3" fill-rule="evenodd"/>
    <path d="M66.000,43.021 C66.000,47.443 62.418,51.027 58.000,51.027 C58.000,51.027 27.000,51.027 27.000,51.027 C22.582,51.027 19.000,47.443 19.000,43.021 C19.000,43.021 19.000,12.000 19.000,12.000 C19.000,7.578 22.582,3.994 27.000,3.994 C27.000,3.994 58.000,3.994 58.000,3.994 C62.418,3.994 66.000,7.578 66.000,12.000 C66.000,12.000 66.000,43.021 66.000,43.021 Z" id="path-2" class="cls-4" fill-rule="evenodd"/>
    <path d="M53.500,50.026 C53.500,50.026 22.500,50.026 22.500,50.026 C17.262,50.026 13.000,45.762 13.000,40.520 C13.000,40.520 13.000,9.498 13.000,9.498 C13.000,4.256 17.262,-0.009 22.500,-0.009 C22.500,-0.009 53.500,-0.009 53.500,-0.009 C58.738,-0.009 63.000,4.256 63.000,9.498 C63.000,9.498 63.000,40.520 63.000,40.520 C63.000,45.762 58.738,50.026 53.500,50.026 ZM22.500,2.993 C18.916,2.993 16.000,5.911 16.000,9.498 C16.000,9.498 16.000,40.520 16.000,40.520 C16.000,44.106 18.916,47.024 22.500,47.024 C22.500,47.024 53.500,47.024 53.500,47.024 C57.084,47.024 60.000,44.106 60.000,40.520 C60.000,40.520 60.000,9.498 60.000,9.498 C60.000,5.911 57.084,2.993 53.500,2.993 C53.500,2.993 22.500,2.993 22.500,2.993 Z" id="path-3" class="cls-5" fill-rule="evenodd"/>
    <path d="M30.500,63.036 C30.500,63.036 9.500,63.036 9.500,63.036 C4.262,63.036 -0.000,58.771 -0.000,53.529 C-0.000,53.529 -0.000,32.514 -0.000,32.514 C-0.000,27.272 4.262,23.007 9.500,23.007 C9.500,23.007 30.500,23.007 30.500,23.007 C35.738,23.007 40.000,27.272 40.000,32.514 C40.000,32.514 40.000,53.529 40.000,53.529 C40.000,58.771 35.738,63.036 30.500,63.036 ZM9.500,26.009 C5.916,26.009 3.000,28.928 3.000,32.514 C3.000,32.514 3.000,53.529 3.000,53.529 C3.000,57.115 5.916,60.034 9.500,60.034 C9.500,60.034 30.500,60.034 30.500,60.034 C34.084,60.034 37.000,57.115 37.000,53.529 C37.000,53.529 37.000,32.514 37.000,32.514 C37.000,28.928 34.084,26.009 30.500,26.009 C30.500,26.009 9.500,26.009 9.500,26.009 Z" id="path-4" class="cls-5" fill-rule="evenodd"/>
    <path d="M56.202,23.350 C56.328,23.061 56.412,22.726 56.412,22.391 C56.412,22.391 56.420,11.833 56.420,11.833 C56.420,10.773 55.565,9.910 54.506,9.910 C54.506,9.910 43.966,9.908 43.966,9.908 C43.631,9.908 43.282,10.007 42.992,10.133 C41.780,10.659 41.505,12.315 42.439,13.250 C42.439,13.250 46.384,17.198 46.384,17.198 C46.384,17.198 39.769,23.818 39.769,23.818 C39.019,24.567 38.936,25.699 39.686,26.448 C40.435,27.198 41.565,27.114 42.314,26.365 C42.314,26.365 48.930,19.745 48.930,19.745 C48.930,19.745 53.086,23.904 53.086,23.904 C54.020,24.839 55.677,24.563 56.202,23.350 Z" id="path-5" class="cls-7" fill-rule="evenodd"/>
  </g>
</svg>
