<svg xmlns="http://www.w3.org/2000/svg" xmlns:xlink="http://www.w3.org/1999/xlink" preserveAspectRatio="xMidYMid" width="67" height="65" viewBox="0 0 67 65">
  <defs>
    <style>

      .cls-3 {
        fill: #ff917b;
      }

      .cls-4 {
        fill: #000000;
      }
    </style>
  </defs>
  <g id="group-11svg">
    <path d="M8.835,16.556 C8.835,16.556 21.705,3.676 21.705,3.676 C23.268,2.112 25.801,2.112 27.362,3.676 C27.362,3.676 66.080,42.420 66.080,42.420 C67.642,43.984 67.642,46.518 66.080,48.081 C66.080,48.081 53.209,60.961 53.209,60.961 C50.085,64.088 45.019,64.088 41.895,60.961 C41.895,60.961 8.835,27.877 8.835,27.877 C5.710,24.751 5.710,19.682 8.835,16.556 Z" id="path-1" class="cls-3" fill-rule="evenodd"/>
    <path d="M42.553,63.807 C40.015,63.807 37.629,62.818 35.835,61.022 C35.835,61.022 2.774,27.938 2.774,27.938 C0.979,26.143 -0.009,23.755 -0.009,21.216 C-0.009,18.677 0.979,16.289 2.774,14.493 C2.774,14.493 15.646,1.613 15.646,1.613 C16.684,0.574 18.064,0.001 19.534,0.001 C21.004,0.001 22.385,0.574 23.423,1.614 C23.423,1.614 62.141,40.358 62.141,40.358 C64.284,42.504 64.284,45.996 62.141,48.142 C62.141,48.142 49.269,61.022 49.269,61.022 C47.476,62.818 45.090,63.807 42.553,63.807 ZM19.534,3.003 C18.866,3.003 18.239,3.264 17.767,3.736 C17.767,3.736 4.895,16.617 4.895,16.617 C3.668,17.845 2.991,19.478 2.991,21.216 C2.991,22.953 3.668,24.587 4.895,25.815 C4.895,25.815 37.956,58.899 37.956,58.899 C39.184,60.128 40.816,60.805 42.553,60.805 C44.288,60.805 45.921,60.128 47.148,58.899 C47.148,58.899 60.020,46.019 60.020,46.019 C60.994,45.044 60.994,43.456 60.020,42.481 C60.020,42.481 21.302,3.736 21.302,3.736 C20.829,3.264 20.202,3.003 19.534,3.003 Z" id="path-2" class="cls-4" fill-rule="evenodd"/>
    <path d="M6.842,31.067 C6.458,31.067 6.074,30.920 5.781,30.627 C5.195,30.041 5.195,29.090 5.781,28.504 C5.781,28.504 14.749,19.530 14.749,19.530 C15.335,18.944 16.284,18.944 16.870,19.530 C17.456,20.117 17.456,21.067 16.870,21.653 C16.870,21.653 7.902,30.627 7.902,30.627 C7.609,30.920 7.226,31.067 6.842,31.067 Z" id="path-3" class="cls-4" fill-rule="evenodd"/>
    <path d="M11.733,35.961 C11.350,35.961 10.966,35.815 10.673,35.522 C10.087,34.936 10.087,33.985 10.673,33.399 C10.673,33.399 15.564,28.504 15.564,28.504 C16.150,27.918 17.100,27.918 17.685,28.504 C18.271,29.090 18.271,30.041 17.685,30.627 C17.685,30.627 12.794,35.522 12.794,35.522 C12.501,35.815 12.117,35.961 11.733,35.961 Z" id="path-4" class="cls-4" fill-rule="evenodd"/>
    <path d="M17.440,41.672 C17.057,41.672 16.673,41.525 16.380,41.233 C15.794,40.646 15.794,39.696 16.380,39.110 C16.380,39.110 25.347,30.136 25.347,30.136 C25.933,29.550 26.882,29.550 27.468,30.135 C28.054,30.722 28.054,31.672 27.468,32.258 C27.468,32.258 18.501,41.233 18.501,41.233 C18.208,41.525 17.824,41.672 17.440,41.672 Z" id="path-5" class="cls-4" fill-rule="evenodd"/>
    <path d="M22.331,46.567 C21.947,46.567 21.563,46.420 21.270,46.127 C20.685,45.541 20.685,44.590 21.270,44.005 C21.270,44.005 26.162,39.110 26.162,39.110 C26.748,38.524 27.697,38.523 28.283,39.110 C28.869,39.696 28.869,40.646 28.283,41.233 C28.283,41.233 23.392,46.127 23.392,46.127 C23.099,46.420 22.715,46.567 22.331,46.567 Z" id="path-6" class="cls-4" fill-rule="evenodd"/>
    <path d="M28.038,52.278 C27.654,52.278 27.271,52.131 26.978,51.838 C26.392,51.252 26.392,50.302 26.978,49.715 C26.978,49.715 35.945,40.741 35.945,40.741 C36.531,40.155 37.480,40.155 38.066,40.741 C38.652,41.327 38.652,42.278 38.066,42.864 C38.066,42.864 29.099,51.838 29.099,51.838 C28.806,52.131 28.422,52.278 28.038,52.278 Z" id="path-7" class="cls-4" fill-rule="evenodd"/>
    <path d="M32.930,57.173 C32.546,57.173 32.162,57.026 31.869,56.733 C31.283,56.147 31.283,55.196 31.869,54.610 C31.869,54.610 36.761,49.715 36.761,49.715 C37.347,49.129 38.296,49.129 38.882,49.715 C39.468,50.302 39.468,51.252 38.882,51.838 C38.882,51.838 33.990,56.733 33.990,56.733 C33.697,57.026 33.313,57.173 32.930,57.173 Z" id="path-8" class="cls-4" fill-rule="evenodd"/>
  </g>
</svg>
