<svg xmlns="http://www.w3.org/2000/svg" xmlns:xlink="http://www.w3.org/1999/xlink" preserveAspectRatio="xMidYMid" width="58" height="65" viewBox="0 0 58 65">
  <defs>
    <style>

      .cls-3 {
        fill: #8b71b5;
      }

      .cls-4 {
        fill: #53ecf4;
      }

      .cls-5 {
        fill: #000000;
      }
    </style>
  </defs>
  <g id="group-9svg">
    <path d="M58.000,56.013 C58.000,60.433 54.418,64.016 50.000,64.016 C50.000,64.016 14.000,64.016 14.000,64.016 C9.582,64.016 6.000,60.433 6.000,56.013 C6.000,56.013 6.000,12.000 6.000,12.000 C6.000,7.580 9.582,3.997 14.000,3.997 C14.000,3.997 50.000,3.997 50.000,3.997 C54.418,3.997 58.000,7.580 58.000,12.000 C58.000,12.000 58.000,56.013 58.000,56.013 Z" id="path-1" class="cls-3" fill-rule="evenodd"/>
    <path d="M6.000,54.013 C6.000,54.013 58.000,54.013 58.000,54.013 C58.000,54.013 58.000,12.000 58.000,12.000 C58.000,12.000 6.000,12.000 6.000,12.000 C6.000,12.000 6.000,54.013 6.000,54.013 Z" id="path-2" class="cls-4" fill-rule="evenodd"/>
    <path d="M45.500,63.015 C45.500,63.015 9.500,63.015 9.500,63.015 C4.262,63.015 -0.000,58.752 -0.000,53.513 C-0.000,53.513 -0.000,9.499 -0.000,9.499 C-0.000,4.259 4.262,-0.004 9.500,-0.004 C9.500,-0.004 45.500,-0.004 45.500,-0.004 C50.738,-0.004 55.000,4.259 55.000,9.499 C55.000,9.499 55.000,53.513 55.000,53.513 C55.000,58.752 50.738,63.015 45.500,63.015 ZM9.500,2.997 C5.916,2.997 3.000,5.914 3.000,9.499 C3.000,9.499 3.000,53.513 3.000,53.513 C3.000,57.098 5.916,60.015 9.500,60.015 C9.500,60.015 45.500,60.015 45.500,60.015 C49.084,60.015 52.000,57.098 52.000,53.513 C52.000,53.513 52.000,9.499 52.000,9.499 C52.000,5.914 49.084,2.997 45.500,2.997 C45.500,2.997 9.500,2.997 9.500,2.997 Z" id="path-3" class="cls-5" fill-rule="evenodd"/>
    <path d="M53.500,53.012 C53.500,53.012 1.500,53.012 1.500,53.012 C0.672,53.012 -0.000,52.340 -0.000,51.512 C-0.000,51.512 -0.000,9.499 -0.000,9.499 C-0.000,8.671 0.672,7.999 1.500,7.999 C1.500,7.999 53.500,7.999 53.500,7.999 C54.328,7.999 55.000,8.671 55.000,9.499 C55.000,9.499 55.000,51.512 55.000,51.512 C55.000,52.340 54.328,53.012 53.500,53.012 ZM3.000,50.011 C3.000,50.011 52.000,50.011 52.000,50.011 C52.000,50.011 52.000,11.000 52.000,11.000 C52.000,11.000 3.000,11.000 3.000,11.000 C3.000,11.000 3.000,50.011 3.000,50.011 Z" id="path-4" class="cls-5" fill-rule="evenodd"/>
    <path d="M30.331,5.362 C30.331,6.466 29.435,7.362 28.331,7.362 C27.227,7.362 26.331,6.466 26.331,5.362 C26.331,4.257 27.227,3.361 28.331,3.361 C29.435,3.361 30.331,4.257 30.331,5.362 Z" id="path-5" class="cls-5" fill-rule="evenodd"/>
    <path d="M31.000,57.014 C31.000,57.014 26.000,57.014 26.000,57.014 C25.172,57.014 24.500,56.342 24.500,55.513 C24.500,54.685 25.172,54.013 26.000,54.013 C26.000,54.013 31.000,54.013 31.000,54.013 C31.828,54.013 32.500,54.685 32.500,55.513 C32.500,56.342 31.828,57.014 31.000,57.014 Z" id="path-6" class="cls-5" fill-rule="evenodd"/>
    <path d="M15.806,42.273 C15.422,42.273 15.038,42.126 14.745,41.833 C14.159,41.247 14.159,40.298 14.745,39.711 C14.745,39.711 37.645,16.805 37.645,16.805 C38.231,16.219 39.181,16.219 39.767,16.805 C40.352,17.391 40.352,18.341 39.767,18.927 C39.767,18.927 16.866,41.833 16.866,41.833 C16.573,42.126 16.189,42.273 15.806,42.273 Z" id="path-7" class="cls-5" fill-rule="evenodd"/>
    <path d="M28.424,40.871 C28.040,40.871 27.656,40.724 27.363,40.431 C26.777,39.845 26.777,38.896 27.363,38.310 C27.363,38.310 34.000,31.671 34.000,31.671 C34.586,31.085 35.535,31.085 36.121,31.671 C36.707,32.257 36.707,33.207 36.121,33.793 C36.121,33.793 29.484,40.431 29.484,40.431 C29.191,40.724 28.808,40.871 28.424,40.871 Z" id="path-8" class="cls-5" fill-rule="evenodd"/>
  </g>
</svg>
