<svg xmlns="http://www.w3.org/2000/svg" xmlns:xlink="http://www.w3.org/1999/xlink" preserveAspectRatio="xMidYMid" width="63" height="39" viewBox="0 0 63 39">
  <defs>
    <style>

      .cls-3 {
        fill: #e56a77;
      }

      .cls-4 {
        fill: #81bda4;
      }

      .cls-6 {
        fill: #000000;
      }
    </style>
  </defs>
  <g id="group-25svg">
    <path d="M61.319,11.318 C61.319,11.318 61.337,23.762 61.337,23.762 C61.337,23.762 53.862,25.713 50.396,30.466 C46.930,35.218 44.501,40.245 24.338,38.288 C24.338,38.288 15.527,38.262 18.245,32.044 C18.245,32.044 28.736,32.526 34.029,32.609 C34.029,32.609 36.056,31.440 38.888,27.416 C38.888,27.416 35.657,26.164 28.758,28.561 C28.758,28.561 22.251,27.466 25.783,24.354 C25.783,24.354 44.653,13.960 47.790,12.707 C50.927,11.454 54.124,10.161 61.319,11.318 Z" id="path-1" class="cls-3" fill-rule="evenodd"/>
    <path d="M22.375,8.370 C22.375,8.370 23.999,13.158 28.627,10.012 C33.256,6.865 34.165,9.417 34.165,9.417 C34.165,9.417 32.141,-0.216 25.863,5.077 C25.863,5.077 23.907,6.805 22.375,8.370 Z" id="path-2" class="cls-4" fill-rule="evenodd"/>
    <path d="M20.631,11.101 C20.631,11.101 18.550,17.241 12.615,13.206 C6.680,9.172 5.515,12.443 5.515,12.443 C5.515,12.443 8.110,0.093 16.159,6.879 C16.159,6.879 18.667,9.095 20.631,11.101 Z" id="path-3" class="cls-4" fill-rule="evenodd"/>
    <path d="M27.376,38.221 C24.978,38.221 22.248,38.075 19.259,37.787 C18.437,37.775 13.808,37.582 11.958,34.746 C11.301,33.738 10.753,32.001 11.871,29.443 C12.120,28.875 12.694,28.521 13.314,28.546 C13.415,28.551 23.231,28.999 28.573,29.101 C29.011,28.768 29.913,28.005 31.100,26.591 C29.687,26.613 27.401,26.883 24.251,27.978 C24.013,28.061 23.758,28.083 23.509,28.041 C22.461,27.865 18.990,27.110 18.336,24.819 C18.096,23.978 18.154,22.672 19.792,21.229 C19.873,21.157 19.963,21.093 20.060,21.040 C20.833,20.614 39.047,10.587 42.234,9.314 C44.539,8.394 47.108,7.368 51.218,7.368 C52.846,7.368 54.593,7.521 56.558,7.837 C57.284,7.954 57.818,8.581 57.819,9.316 C57.819,9.316 57.837,21.759 57.837,21.759 C57.838,22.441 57.377,23.039 56.718,23.212 C56.648,23.230 49.710,25.097 46.608,29.350 C46.608,29.350 46.086,30.075 46.086,30.075 C43.218,34.080 40.252,38.221 27.376,38.221 ZM14.300,31.593 C14.163,32.215 14.220,32.722 14.471,33.107 C15.293,34.368 18.108,34.784 19.343,34.788 C19.390,34.788 19.436,34.790 19.483,34.794 C22.402,35.078 25.057,35.221 27.376,35.221 C38.711,35.221 40.998,32.027 43.646,28.328 C43.646,28.328 44.184,27.582 44.184,27.582 C47.118,23.559 52.499,21.424 54.836,20.650 C54.836,20.650 54.821,10.617 54.821,10.617 C53.522,10.449 52.334,10.368 51.218,10.368 C47.685,10.368 45.596,11.202 43.385,12.084 C40.952,13.057 28.208,19.978 21.661,23.583 C21.433,23.799 21.323,23.951 21.271,24.039 C21.586,24.359 22.651,24.793 23.651,25.013 C26.470,24.068 29.041,23.589 31.300,23.589 C33.228,23.589 34.246,23.946 34.430,24.017 C34.861,24.184 35.190,24.540 35.324,24.981 C35.457,25.423 35.380,25.902 35.115,26.279 C32.177,30.454 30.015,31.771 29.778,31.908 C29.543,32.044 29.261,32.112 29.005,32.108 C24.773,32.042 17.158,31.719 14.300,31.593 Z" id="path-4" class="cls-6" fill-rule="evenodd"/>
    <path d="M21.724,10.583 C21.724,10.583 21.724,10.583 21.724,10.583 C18.957,10.583 17.425,8.237 16.955,6.851 C16.773,6.316 16.908,5.725 17.304,5.321 C18.855,3.735 20.788,2.025 20.870,1.953 C22.424,0.642 23.923,-0.011 25.352,-0.011 C29.011,-0.011 30.955,4.191 31.577,6.858 C31.647,7.030 31.685,7.219 31.685,7.417 C31.685,8.242 31.019,8.911 30.197,8.917 C29.604,8.928 29.037,8.582 28.791,8.019 C28.752,7.978 28.638,7.940 28.456,7.940 C28.062,7.940 27.150,8.111 25.471,9.252 C24.172,10.135 22.911,10.583 21.724,10.583 ZM20.212,6.658 C20.528,7.105 21.028,7.583 21.724,7.583 C22.291,7.583 23.003,7.302 23.784,6.771 C25.261,5.767 26.549,5.184 27.696,5.002 C27.126,3.927 26.335,2.989 25.352,2.989 C24.660,2.989 23.788,3.416 22.830,4.224 C22.830,4.224 22.830,4.224 22.830,4.224 C22.830,4.224 21.505,5.397 20.212,6.658 Z" id="path-5" class="cls-6" fill-rule="evenodd"/>
    <path d="M12.338,14.079 C10.901,14.079 9.365,13.530 7.771,12.447 C5.525,10.920 4.260,10.692 3.706,10.692 C3.111,10.692 2.938,10.941 2.900,11.017 C2.716,11.818 1.958,12.204 1.154,12.027 C0.350,11.850 -0.123,10.940 0.047,10.135 C0.122,9.776 1.961,1.343 7.686,1.343 C9.415,1.343 11.246,2.147 13.126,3.733 C13.256,3.847 15.724,6.030 17.703,8.052 C18.098,8.456 18.233,9.048 18.051,9.583 C17.989,9.767 16.479,14.079 12.338,14.079 ZM4.036,7.702 C5.580,7.795 7.358,8.538 9.458,9.966 C10.545,10.705 11.514,11.079 12.338,11.079 C13.590,11.079 14.393,10.135 14.824,9.414 C13.078,7.695 11.187,6.023 11.166,6.004 C9.868,4.910 8.688,4.343 7.686,4.343 C6.066,4.343 4.840,6.002 4.036,7.702 Z" id="path-6" class="cls-6" fill-rule="evenodd"/>
    <path d="M17.776,30.301 C17.350,30.301 16.926,30.120 16.629,29.769 C12.208,24.536 16.247,8.253 16.722,6.414 C16.929,5.612 17.745,5.130 18.549,5.336 C19.351,5.543 19.833,6.362 19.627,7.164 C17.984,13.533 16.339,24.777 18.921,27.833 C19.456,28.466 19.376,29.412 18.744,29.946 C18.462,30.185 18.118,30.301 17.776,30.301 Z" id="path-7" class="cls-6" fill-rule="evenodd"/>
    <path d="M61.406,22.687 C60.578,22.687 59.906,22.016 59.906,21.187 C59.906,21.187 59.906,8.187 59.906,8.187 C59.906,7.359 60.578,6.687 61.406,6.687 C62.235,6.687 62.906,7.359 62.906,8.187 C62.906,8.187 62.906,21.187 62.906,21.187 C62.906,22.016 62.235,22.687 61.406,22.687 Z" id="path-8" class="cls-6" fill-rule="evenodd"/>
  </g>
</svg>
