<svg xmlns="http://www.w3.org/2000/svg" xmlns:xlink="http://www.w3.org/1999/xlink" preserveAspectRatio="xMidYMid" width="58" height="66" viewBox="0 0 58 66">
  <defs>
    <style>

      .cls-3 {
        fill: #e56a77;
      }

      .cls-4 {
        fill: #000000;
      }

      .cls-11 {
        fill: #edc951;
      }
    </style>
  </defs>
  <g id="group-54svg">
    <path d="M58.000,56.999 C58.000,61.418 54.418,65.000 50.000,65.000 C50.000,65.000 14.000,65.000 14.000,65.000 C9.582,65.000 6.000,61.418 6.000,56.999 C6.000,56.999 6.000,12.996 6.000,12.996 C6.000,8.578 9.582,4.996 14.000,4.996 C14.000,4.996 50.000,4.996 50.000,4.996 C54.418,4.996 58.000,8.578 58.000,12.996 C58.000,12.996 58.000,56.999 58.000,56.999 Z" id="path-1" class="cls-3" fill-rule="evenodd"/>
    <path d="M45.500,63.000 C45.500,63.000 9.500,63.000 9.500,63.000 C4.262,63.000 -0.000,58.738 -0.000,53.499 C-0.000,53.499 -0.000,9.496 -0.000,9.496 C-0.000,4.257 4.262,-0.005 9.500,-0.005 C9.500,-0.005 45.500,-0.005 45.500,-0.005 C50.738,-0.005 55.000,4.257 55.000,9.496 C55.000,9.496 55.000,53.499 55.000,53.499 C55.000,58.738 50.738,63.000 45.500,63.000 ZM9.500,2.996 C5.916,2.996 3.000,5.912 3.000,9.496 C3.000,9.496 3.000,53.499 3.000,53.499 C3.000,57.083 5.916,60.000 9.500,60.000 C9.500,60.000 45.500,60.000 45.500,60.000 C49.084,60.000 52.000,57.083 52.000,53.499 C52.000,53.499 52.000,9.496 52.000,9.496 C52.000,5.912 49.084,2.996 45.500,2.996 C45.500,2.996 9.500,2.996 9.500,2.996 Z" id="path-2" class="cls-4" fill-rule="evenodd"/>
    <path d="M5.000,19.997 C5.000,19.997 3.000,19.997 3.000,19.997 C2.171,19.997 1.500,19.325 1.500,18.497 C1.500,17.669 2.171,16.997 3.000,16.997 C3.000,16.997 5.000,16.997 5.000,16.997 C5.829,16.997 6.500,17.669 6.500,18.497 C6.500,19.325 5.829,19.997 5.000,19.997 Z" id="path-3" class="cls-4" fill-rule="evenodd"/>
    <path d="M52.000,19.997 C52.000,19.997 5.000,19.997 5.000,19.997 C4.170,19.997 3.500,19.327 3.500,18.497 C3.500,17.667 4.170,16.997 5.000,16.997 C5.000,16.997 52.000,16.997 52.000,16.997 C52.830,16.997 53.500,17.667 53.500,18.497 C53.500,19.327 52.830,19.997 52.000,19.997 Z" id="path-4" class="cls-4" fill-rule="evenodd"/>
    <path d="M54.000,19.997 C54.000,19.997 52.000,19.997 52.000,19.997 C51.171,19.997 50.500,19.325 50.500,18.497 C50.500,17.669 51.171,16.997 52.000,16.997 C52.000,16.997 54.000,16.997 54.000,16.997 C54.829,16.997 55.500,17.669 55.500,18.497 C55.500,19.325 54.829,19.997 54.000,19.997 Z" id="path-5" class="cls-4" fill-rule="evenodd"/>
    <path d="M17.230,11.144 C17.230,12.555 16.086,13.699 14.675,13.699 C13.264,13.699 12.120,12.555 12.120,11.144 C12.120,9.732 13.264,8.588 14.675,8.588 C16.086,8.588 17.230,9.732 17.230,11.144 Z" id="path-6" class="cls-4" fill-rule="evenodd"/>
    <path d="M26.431,11.144 C26.431,12.555 25.286,13.699 23.875,13.699 C22.463,13.699 21.319,12.555 21.319,11.144 C21.319,9.732 22.463,8.588 23.875,8.588 C25.286,8.588 26.431,9.732 26.431,11.144 Z" id="path-7" class="cls-4" fill-rule="evenodd"/>
    <path d="M34.608,11.144 C34.608,12.555 33.464,13.699 32.053,13.699 C30.642,13.699 29.497,12.555 29.497,11.144 C29.497,9.732 30.642,8.588 32.053,8.588 C33.464,8.588 34.608,9.732 34.608,11.144 Z" id="path-8" class="cls-4" fill-rule="evenodd"/>
    <path d="M37.899,45.423 C37.419,45.423 36.947,45.194 36.657,44.767 C36.191,44.081 36.369,43.149 37.054,42.683 C37.054,42.683 44.704,37.479 44.704,37.479 C44.704,37.479 37.215,33.652 37.215,33.652 C36.477,33.275 36.185,32.371 36.562,31.633 C36.939,30.894 37.843,30.605 38.580,30.980 C38.580,30.980 46.320,34.936 46.320,34.936 C47.202,35.387 47.776,36.245 47.855,37.232 C47.935,38.220 47.505,39.159 46.707,39.745 C46.707,39.745 38.741,45.164 38.741,45.164 C38.483,45.339 38.189,45.423 37.899,45.423 Z" id="path-9" class="cls-11" fill-rule="evenodd"/>
    <path d="M20.706,49.424 C20.415,49.424 20.122,49.340 19.863,49.164 C19.863,49.164 11.941,43.776 11.941,43.776 C11.099,43.160 10.670,42.220 10.749,41.233 C10.829,40.245 11.403,39.387 12.285,38.937 C12.285,38.937 20.024,34.980 20.024,34.980 C20.761,34.606 21.666,34.895 22.042,35.634 C22.420,36.371 22.127,37.275 21.390,37.652 C21.390,37.652 13.900,41.481 13.900,41.481 C13.900,41.481 21.551,46.683 21.551,46.683 C22.236,47.149 22.413,48.082 21.947,48.767 C21.657,49.194 21.186,49.424 20.706,49.424 Z" id="path-10" class="cls-11" fill-rule="evenodd"/>
    <path d="M26.431,52.314 C26.283,52.314 26.133,52.292 25.984,52.245 C25.193,51.999 24.752,51.158 24.999,50.367 C24.999,50.367 31.576,29.254 31.576,29.254 C31.823,28.463 32.665,28.018 33.455,28.269 C34.246,28.515 34.687,29.356 34.440,30.147 C34.440,30.147 27.863,51.260 27.863,51.260 C27.663,51.902 27.070,52.314 26.431,52.314 Z" id="path-11" class="cls-11" fill-rule="evenodd"/>
  </g>
</svg>
