<svg xmlns="http://www.w3.org/2000/svg" xmlns:xlink="http://www.w3.org/1999/xlink" preserveAspectRatio="xMidYMid" width="51" height="66" viewBox="0 0 51 66">
  <defs>
    <style>

      .cls-3 {
        fill: #e56a77;
      }

      .cls-4 {
        fill: #53ecf4;
      }

      .cls-5 {
        fill: #000000;
      }

      .cls-7 {
        fill: #ffffff;
      }
    </style>
  </defs>
  <g id="group-27svg">
    <path d="M34.019,65.004 C34.019,65.004 13.519,65.004 13.519,65.004 C9.119,65.004 6.000,60.904 6.000,56.503 C6.000,56.503 6.000,12.500 6.000,12.500 C6.000,8.100 9.119,5.000 13.519,5.000 C13.519,5.000 42.519,5.000 42.519,5.000 C46.937,5.000 51.000,8.082 51.000,12.500 C51.000,12.500 51.000,44.433 51.000,44.433 C51.000,44.433 34.019,65.004 34.019,65.004 Z" id="path-1" class="cls-3" fill-rule="evenodd"/>
    <path d="M49.333,46.003 C49.333,46.003 38.019,46.003 38.019,46.003 C35.810,46.003 34.000,47.794 34.000,50.003 C34.000,50.003 34.000,64.504 34.000,64.504 C34.000,64.504 49.333,46.003 49.333,46.003 Z" id="path-2" class="cls-4" fill-rule="evenodd"/>
    <path d="M30.518,63.004 C30.518,63.004 9.519,63.004 9.519,63.004 C4.269,63.004 -0.000,58.742 -0.000,53.503 C-0.000,53.503 -0.000,9.500 -0.000,9.500 C-0.000,4.262 4.269,-0.000 9.519,-0.000 C9.519,-0.000 38.519,-0.000 38.519,-0.000 C43.747,-0.000 48.000,4.262 48.000,9.500 C48.000,9.500 48.000,41.433 48.000,41.433 C48.000,41.773 47.885,42.102 47.674,42.368 C47.674,42.368 31.692,62.438 31.692,62.438 C31.407,62.796 30.976,63.004 30.518,63.004 ZM9.519,3.000 C5.924,3.000 3.000,5.916 3.000,9.500 C3.000,9.500 3.000,53.503 3.000,53.503 C3.000,57.088 5.924,60.004 9.519,60.004 C9.519,60.004 29.796,60.004 29.796,60.004 C29.796,60.004 45.000,40.909 45.000,40.909 C45.000,40.909 45.000,9.500 45.000,9.500 C45.000,5.916 42.093,3.000 38.519,3.000 C38.519,3.000 9.519,3.000 9.519,3.000 Z" id="path-3" class="cls-5" fill-rule="evenodd"/>
    <path d="M30.500,62.789 C30.333,62.789 30.164,62.761 30.000,62.703 C29.400,62.491 29.000,61.925 29.000,61.289 C29.000,61.289 29.000,46.983 29.000,46.983 C29.000,43.909 31.862,41.002 34.891,41.002 C34.891,41.002 45.666,41.002 45.666,41.002 C46.244,41.002 46.770,41.334 47.020,41.856 C47.268,42.377 47.196,42.995 46.833,43.445 C46.833,43.445 31.667,62.231 31.667,62.231 C31.377,62.591 30.944,62.789 30.500,62.789 ZM34.891,44.003 C33.540,44.003 32.000,45.591 32.000,46.983 C32.000,46.983 32.000,57.043 32.000,57.043 C32.000,57.043 42.527,44.003 42.527,44.003 C42.527,44.003 34.891,44.003 34.891,44.003 Z" id="path-4" class="cls-5" fill-rule="evenodd"/>
    <path d="M42.442,35.356 C42.442,37.068 41.054,38.457 39.342,38.457 C37.629,38.457 36.241,37.068 36.241,35.356 C36.241,33.643 37.629,32.256 39.342,32.256 C41.054,32.256 42.442,33.643 42.442,35.356 Z" id="path-5" class="cls-7" fill-rule="evenodd"/>
    <path d="M30.671,35.356 C30.671,37.068 29.283,38.457 27.570,38.457 C25.858,38.457 24.471,37.068 24.471,35.356 C24.471,33.643 25.858,32.256 27.570,32.256 C29.283,32.256 30.671,33.643 30.671,35.356 Z" id="path-6" class="cls-7" fill-rule="evenodd"/>
    <path d="M37.342,39.956 C34.805,39.956 32.741,37.893 32.741,35.356 C32.741,32.819 34.805,30.756 37.342,30.756 C39.879,30.756 41.942,32.819 41.942,35.356 C41.942,37.893 39.879,39.956 37.342,39.956 ZM37.342,33.756 C36.459,33.756 35.741,34.474 35.741,35.356 C35.741,36.238 36.459,36.956 37.342,36.956 C38.225,36.956 38.942,36.238 38.942,35.356 C38.942,34.474 38.225,33.756 37.342,33.756 Z" id="path-7" class="cls-5" fill-rule="evenodd"/>
    <path d="M25.570,39.956 C23.034,39.956 20.971,37.893 20.971,35.356 C20.971,32.819 23.034,30.756 25.570,30.756 C28.107,30.756 30.171,32.819 30.171,35.356 C30.171,37.893 28.107,39.956 25.570,39.956 ZM25.570,33.756 C24.688,33.756 23.971,34.474 23.971,35.356 C23.971,36.238 24.688,36.956 25.570,36.956 C26.453,36.956 27.171,36.238 27.171,35.356 C27.171,34.474 26.453,33.756 25.570,33.756 Z" id="path-8" class="cls-5" fill-rule="evenodd"/>
    <path d="M40.500,35.502 C39.672,35.502 39.000,34.830 39.000,34.002 C39.000,34.002 39.000,22.001 39.000,22.001 C39.000,22.001 30.000,22.001 30.000,22.001 C30.000,22.001 30.000,34.002 30.000,34.002 C30.000,34.830 29.328,35.502 28.500,35.502 C27.672,35.502 27.000,34.830 27.000,34.002 C27.000,34.002 27.000,20.501 27.000,20.501 C27.000,19.673 27.672,19.001 28.500,19.001 C28.500,19.001 40.500,19.001 40.500,19.001 C41.328,19.001 42.000,19.673 42.000,20.501 C42.000,20.501 42.000,34.002 42.000,34.002 C42.000,34.830 41.328,35.502 40.500,35.502 Z" id="path-9" class="cls-5" fill-rule="evenodd"/>
  </g>
</svg>
