<svg xmlns="http://www.w3.org/2000/svg" xmlns:xlink="http://www.w3.org/1999/xlink" preserveAspectRatio="xMidYMid" width="67" height="52" viewBox="0 0 67 52">
  <defs>
    <style>

      .cls-3 {
        fill: #edc951;
      }

      .cls-4 {
        fill: #000000;
      }

      .cls-8 {
        fill: #ffffff;
      }

      .cls-9 {
        fill: #e56a77;
      }

      .cls-11 {
        fill: #53ecf4;
      }
    </style>
  </defs>
  <g id="group-15svg">
    <path d="M54.000,29.016 C54.000,33.435 50.418,37.018 46.000,37.018 C46.000,37.018 15.000,37.018 15.000,37.018 C10.581,37.018 7.000,33.435 7.000,29.016 C7.000,29.016 7.000,12.010 7.000,12.010 C7.000,7.591 10.581,4.008 15.000,4.008 C15.000,4.008 46.000,4.008 46.000,4.008 C50.418,4.008 54.000,7.591 54.000,12.010 C54.000,12.010 54.000,29.016 54.000,29.016 Z" id="path-1" class="cls-3" fill-rule="evenodd"/>
    <path d="M40.500,36.018 C40.500,36.018 9.500,36.018 9.500,36.018 C4.262,36.018 -0.000,31.755 -0.000,26.515 C-0.000,26.515 -0.000,9.510 -0.000,9.510 C-0.000,4.270 4.262,0.007 9.500,0.007 C9.500,0.007 40.500,0.007 40.500,0.007 C45.738,0.007 50.000,4.270 50.000,9.510 C50.000,9.510 50.000,26.515 50.000,26.515 C50.000,31.755 45.738,36.018 40.500,36.018 ZM9.500,3.008 C5.916,3.008 3.000,5.924 3.000,9.510 C3.000,9.510 3.000,26.515 3.000,26.515 C3.000,30.100 5.916,33.017 9.500,33.017 C9.500,33.017 40.500,33.017 40.500,33.017 C44.084,33.017 47.000,30.100 47.000,26.515 C47.000,26.515 47.000,9.510 47.000,9.510 C47.000,5.924 44.084,3.008 40.500,3.008 C40.500,3.008 9.500,3.008 9.500,3.008 Z" id="path-2" class="cls-4" fill-rule="evenodd"/>
    <path d="M41.408,36.018 C41.408,36.018 9.060,36.018 9.060,36.018 C4.188,36.018 0.372,32.283 0.372,27.515 C0.372,26.687 1.043,26.015 1.872,26.015 C1.872,26.015 48.596,26.015 48.596,26.015 C49.424,26.015 50.096,26.687 50.096,27.515 C50.096,32.283 46.279,36.018 41.408,36.018 ZM3.578,29.016 C4.237,31.349 6.410,33.017 9.060,33.017 C9.060,33.017 41.408,33.017 41.408,33.017 C44.058,33.017 46.230,31.349 46.890,29.016 C46.890,29.016 3.578,29.016 3.578,29.016 Z" id="path-3" class="cls-4" fill-rule="evenodd"/>
    <path d="M25.500,43.520 C24.671,43.520 24.000,42.848 24.000,42.020 C24.000,42.020 24.000,35.017 24.000,35.017 C24.000,34.189 24.671,33.517 25.500,33.517 C26.329,33.517 27.000,34.189 27.000,35.017 C27.000,35.017 27.000,42.020 27.000,42.020 C27.000,42.848 26.329,43.520 25.500,43.520 Z" id="path-4" class="cls-4" fill-rule="evenodd"/>
    <path d="M33.646,50.637 C32.818,50.637 32.146,49.965 32.146,49.137 C32.146,46.537 29.427,44.421 26.084,44.421 C22.741,44.421 20.021,46.537 20.021,49.137 C20.021,49.965 19.350,50.637 18.521,50.637 C17.693,50.637 17.021,49.965 17.021,49.137 C17.021,44.882 21.087,41.420 26.084,41.420 C31.081,41.420 35.146,44.882 35.146,49.137 C35.146,49.965 34.475,50.637 33.646,50.637 Z" id="path-5" class="cls-4" fill-rule="evenodd"/>
    <path d="M61.000,43.020 C61.000,46.334 58.313,49.022 55.000,49.022 C55.000,49.022 46.000,49.022 46.000,49.022 C42.687,49.022 40.000,46.334 40.000,43.020 C40.000,43.020 40.000,24.014 40.000,24.014 C40.000,20.700 42.687,18.012 46.000,18.012 C46.000,18.012 55.000,18.012 55.000,18.012 C58.313,18.012 61.000,20.700 61.000,24.014 C61.000,24.014 61.000,43.020 61.000,43.020 Z" id="path-6" class="cls-8" fill-rule="evenodd"/>
    <path d="M67.000,45.020 C67.000,48.335 64.313,51.022 61.000,51.022 C61.000,51.022 52.000,51.022 52.000,51.022 C48.686,51.022 46.000,48.335 46.000,45.020 C46.000,45.020 46.000,26.015 46.000,26.015 C46.000,22.700 48.686,20.013 52.000,20.013 C52.000,20.013 61.000,20.013 61.000,20.013 C64.313,20.013 67.000,22.700 67.000,26.015 C67.000,26.015 67.000,45.020 67.000,45.020 Z" id="path-7" class="cls-9" fill-rule="evenodd"/>
    <path d="M55.500,50.022 C55.500,50.022 46.500,50.022 46.500,50.022 C42.364,50.022 39.000,46.657 39.000,42.520 C39.000,42.520 39.000,23.514 39.000,23.514 C39.000,19.377 42.364,16.012 46.500,16.012 C46.500,16.012 55.500,16.012 55.500,16.012 C59.636,16.012 63.000,19.377 63.000,23.514 C63.000,23.514 63.000,42.520 63.000,42.520 C63.000,46.657 59.636,50.022 55.500,50.022 ZM46.500,19.012 C44.018,19.012 42.000,21.032 42.000,23.514 C42.000,23.514 42.000,42.520 42.000,42.520 C42.000,45.002 44.018,47.021 46.500,47.021 C46.500,47.021 55.500,47.021 55.500,47.021 C57.981,47.021 60.000,45.002 60.000,42.520 C60.000,42.520 60.000,23.514 60.000,23.514 C60.000,21.032 57.981,19.012 55.500,19.012 C55.500,19.012 46.500,19.012 46.500,19.012 Z" id="path-8" class="cls-4" fill-rule="evenodd"/>
    <path d="M46.000,44.020 C46.000,44.020 67.000,44.020 67.000,44.020 C67.000,44.020 67.000,26.015 67.000,26.015 C67.000,26.015 46.000,26.015 46.000,26.015 C46.000,26.015 46.000,44.020 46.000,44.020 Z" id="path-9" class="cls-11" fill-rule="evenodd"/>
    <path d="M61.500,43.020 C61.500,43.020 40.500,43.020 40.500,43.020 C39.671,43.020 39.000,42.348 39.000,41.519 C39.000,41.519 39.000,23.514 39.000,23.514 C39.000,22.685 39.671,22.013 40.500,22.013 C40.500,22.013 61.500,22.013 61.500,22.013 C62.329,22.013 63.000,22.685 63.000,23.514 C63.000,23.514 63.000,41.519 63.000,41.519 C63.000,42.348 62.329,43.020 61.500,43.020 ZM42.000,40.019 C42.000,40.019 60.000,40.019 60.000,40.019 C60.000,40.019 60.000,25.014 60.000,25.014 C60.000,25.014 42.000,25.014 42.000,25.014 C42.000,25.014 42.000,40.019 42.000,40.019 Z" id="path-10" class="cls-4" fill-rule="evenodd"/>
    <path d="M52.811,20.894 C52.811,21.380 52.417,21.775 51.931,21.775 C51.445,21.775 51.051,21.380 51.051,20.894 C51.051,20.408 51.445,20.014 51.931,20.014 C52.417,20.014 52.811,20.408 52.811,20.894 Z" id="path-11" class="cls-4" fill-rule="evenodd"/>
    <path d="M53.000,46.021 C53.000,46.021 51.000,46.021 51.000,46.021 C50.448,46.021 50.000,45.573 50.000,45.020 C50.000,44.468 50.448,44.020 51.000,44.020 C51.000,44.020 53.000,44.020 53.000,44.020 C53.552,44.020 54.000,44.468 54.000,45.020 C54.000,45.573 53.552,46.021 53.000,46.021 Z" id="path-12" class="cls-4" fill-rule="evenodd"/>
  </g>
</svg>
