<svg xmlns="http://www.w3.org/2000/svg" xmlns:xlink="http://www.w3.org/1999/xlink" preserveAspectRatio="xMidYMid" width="54" height="66" viewBox="0 0 54 66">
  <defs>
    <style>

      .cls-3 {
        fill: #edc951;
      }

      .cls-4 {
        fill: #e56a77;
      }

      .cls-5 {
        fill: #000000;
      }
    </style>
  </defs>
  <g id="group-27svg">
    <path d="M42.000,8.014 C42.000,8.014 46.916,8.014 46.916,8.014 C51.262,8.014 54.000,11.391 54.000,15.740 C54.000,15.740 54.000,56.561 54.000,56.561 C54.000,60.909 51.262,65.047 46.916,65.047 C46.916,65.047 12.729,65.047 12.729,65.047 C8.383,65.047 5.000,60.909 5.000,56.561 C5.000,56.561 5.000,15.740 5.000,15.740 C5.000,11.391 8.383,8.014 12.729,8.014 C12.729,8.014 17.000,8.014 17.000,8.014 C17.000,8.014 17.000,8.014 17.000,8.014 " id="path-1" class="cls-3" fill-rule="evenodd"/>
    <path d="M19.502,18.019 C19.502,18.019 40.144,18.019 40.144,18.019 C40.144,18.019 42.111,5.012 42.111,5.012 C42.111,5.012 17.534,5.012 17.534,5.012 C17.534,5.012 19.502,18.019 19.502,18.019 Z" id="path-2" class="cls-4" fill-rule="evenodd"/>
    <path d="M37.650,56.041 C37.650,56.041 13.995,56.041 13.995,56.041 C8.615,56.041 5.000,52.646 5.000,47.593 C5.000,47.593 5.000,18.703 5.000,18.703 C5.000,13.446 9.031,9.329 14.177,9.329 C15.006,9.329 15.677,10.001 15.677,10.830 C15.677,11.658 15.006,12.331 14.177,12.331 C10.713,12.331 8.000,15.130 8.000,18.703 C8.000,18.703 8.000,47.593 8.000,47.593 C8.000,50.953 10.297,53.040 13.995,53.040 C13.995,53.040 37.650,53.040 37.650,53.040 C40.811,53.040 44.000,51.355 44.000,47.593 C44.000,47.593 44.000,18.703 44.000,18.703 C44.000,15.190 41.147,12.331 37.641,12.331 C36.812,12.331 36.141,11.658 36.141,10.830 C36.141,10.001 36.812,9.329 37.641,9.329 C42.801,9.329 47.000,13.534 47.000,18.703 C47.000,18.703 47.000,47.593 47.000,47.593 C47.000,52.568 43.155,56.041 37.650,56.041 Z" id="path-3" class="cls-5" fill-rule="evenodd"/>
    <path d="M42.916,63.045 C42.916,63.045 8.729,63.045 8.729,63.045 C3.753,63.045 -0.000,58.967 -0.000,53.560 C-0.000,53.560 -0.000,12.738 -0.000,12.738 C-0.000,7.284 3.834,3.011 8.729,3.011 C8.729,3.011 13.000,3.011 13.000,3.011 C13.829,3.011 14.500,3.683 14.500,4.512 C14.500,5.340 13.829,6.012 13.000,6.012 C13.000,6.012 8.729,6.012 8.729,6.012 C5.008,6.012 3.000,9.477 3.000,12.738 C3.000,12.738 3.000,53.560 3.000,53.560 C3.000,56.782 4.968,60.044 8.729,60.044 C8.729,60.044 42.916,60.044 42.916,60.044 C46.328,60.044 49.000,57.195 49.000,53.560 C49.000,53.560 49.000,12.738 49.000,12.738 C49.000,9.030 46.270,6.012 42.916,6.012 C42.916,6.012 38.000,6.012 38.000,6.012 C37.171,6.012 36.500,5.340 36.500,4.512 C36.500,3.683 37.171,3.011 38.000,3.011 C38.000,3.011 42.916,3.011 42.916,3.011 C47.925,3.011 52.000,7.375 52.000,12.738 C52.000,12.738 52.000,53.560 52.000,53.560 C52.000,58.879 48.010,63.045 42.916,63.045 Z" id="path-4" class="cls-5" fill-rule="evenodd"/>
    <path d="M22.000,28.025 C22.000,28.025 11.000,28.025 11.000,28.025 C10.171,28.025 9.500,27.353 9.500,26.524 C9.500,25.696 10.171,25.023 11.000,25.023 C11.000,25.023 22.000,25.023 22.000,25.023 C22.829,25.023 23.500,25.696 23.500,26.524 C23.500,27.353 22.829,28.025 22.000,28.025 Z" id="path-5" class="cls-5" fill-rule="evenodd"/>
    <path d="M22.000,32.027 C22.000,32.027 11.000,32.027 11.000,32.027 C10.171,32.027 9.500,31.355 9.500,30.527 C9.500,29.698 10.171,29.026 11.000,29.026 C11.000,29.026 22.000,29.026 22.000,29.026 C22.829,29.026 23.500,29.698 23.500,30.527 C23.500,31.355 22.829,32.027 22.000,32.027 Z" id="path-6" class="cls-5" fill-rule="evenodd"/>
    <path d="M22.000,45.035 C22.000,45.035 11.000,45.035 11.000,45.035 C10.171,45.035 9.500,44.363 9.500,43.534 C9.500,42.706 10.171,42.033 11.000,42.033 C11.000,42.033 22.000,42.033 22.000,42.033 C22.829,42.033 23.500,42.706 23.500,43.534 C23.500,44.363 22.829,45.035 22.000,45.035 Z" id="path-7" class="cls-5" fill-rule="evenodd"/>
    <path d="M22.000,49.037 C22.000,49.037 11.000,49.037 11.000,49.037 C10.171,49.037 9.500,48.365 9.500,47.536 C9.500,46.708 10.171,46.036 11.000,46.036 C11.000,46.036 22.000,46.036 22.000,46.036 C22.829,46.036 23.500,46.708 23.500,47.536 C23.500,48.365 22.829,49.037 22.000,49.037 Z" id="path-8" class="cls-5" fill-rule="evenodd"/>
    <path d="M36.144,16.018 C36.144,16.018 15.502,16.018 15.502,16.018 C14.760,16.018 14.130,15.476 14.019,14.742 C14.019,14.742 12.052,1.735 12.052,1.735 C11.986,1.302 12.112,0.863 12.397,0.531 C12.683,0.199 13.098,0.009 13.535,0.009 C13.535,0.009 38.111,0.009 38.111,0.009 C38.548,0.009 38.963,0.199 39.248,0.531 C39.533,0.863 39.659,1.302 39.594,1.735 C39.594,1.735 37.626,14.742 37.626,14.742 C37.516,15.476 36.885,16.018 36.144,16.018 ZM16.792,13.016 C16.792,13.016 34.853,13.016 34.853,13.016 C34.853,13.016 36.367,3.011 36.367,3.011 C36.367,3.011 15.279,3.011 15.279,3.011 C15.279,3.011 16.792,13.016 16.792,13.016 Z" id="path-9" class="cls-5" fill-rule="evenodd"/>
  </g>
</svg>
