<svg xmlns="http://www.w3.org/2000/svg" xmlns:xlink="http://www.w3.org/1999/xlink" preserveAspectRatio="xMidYMid" width="53" height="65" viewBox="0 0 53 65">
  <defs>
    <style>

      .cls-3 {
        fill: #81bda4;
      }

      .cls-4 {
        fill: #e56a77;
      }

      .cls-5 {
        fill: #000000;
      }
    </style>
  </defs>
  <g id="group-29svg">
    <path d="M41.781,14.000 C41.781,14.000 11.606,14.000 11.606,14.000 C11.606,14.000 5.535,59.019 5.535,59.019 C5.112,62.150 7.547,65.000 10.705,65.000 C10.705,65.000 33.781,65.000 33.781,65.000 C33.781,65.000 33.781,65.000 33.781,65.000 " id="path-1" class="cls-3" fill-rule="evenodd"/>
    <path d="M46.830,65.000 C46.830,65.000 23.583,65.000 23.583,65.000 C23.583,65.000 12.134,14.000 12.134,14.000 C12.134,14.000 41.902,14.000 41.902,14.000 C41.902,14.000 51.919,58.572 51.919,58.572 C52.654,61.834 50.173,65.000 46.830,65.000 Z" id="path-2" class="cls-4" fill-rule="evenodd"/>
    <path d="M42.830,63.000 C42.830,63.000 19.583,63.000 19.583,63.000 C18.882,63.000 18.273,62.513 18.120,61.829 C18.120,61.829 6.671,10.829 6.671,10.829 C6.571,10.384 6.679,9.918 6.963,9.562 C7.248,9.207 7.679,9.000 8.134,9.000 C8.134,9.000 37.902,9.000 37.902,9.000 C38.604,9.000 39.212,9.487 39.366,10.171 C39.366,10.171 49.383,54.743 49.383,54.743 C49.837,56.760 49.353,58.850 48.053,60.474 C46.769,62.079 44.865,63.000 42.830,63.000 ZM20.784,60.000 C20.784,60.000 42.830,60.000 42.830,60.000 C43.949,60.000 44.998,59.490 45.710,58.600 C46.437,57.691 46.709,56.525 46.456,55.401 C46.456,55.401 36.702,12.000 36.702,12.000 C36.702,12.000 10.008,12.000 10.008,12.000 C10.008,12.000 20.784,60.000 20.784,60.000 Z" id="path-3" class="cls-5" fill-rule="evenodd"/>
    <path d="M29.781,63.000 C29.781,63.000 6.706,63.000 6.706,63.000 C4.785,63.000 2.952,62.162 1.674,60.701 C0.379,59.220 -0.213,57.258 0.049,55.318 C0.049,55.318 6.120,10.300 6.120,10.300 C6.220,9.555 6.855,9.000 7.606,9.000 C7.606,9.000 37.781,9.000 37.781,9.000 C38.610,9.000 39.281,9.671 39.281,10.500 C39.281,11.329 38.610,12.000 37.781,12.000 C37.781,12.000 8.917,12.000 8.917,12.000 C8.917,12.000 3.021,55.720 3.021,55.720 C2.876,56.801 3.208,57.897 3.933,58.726 C4.651,59.547 5.636,60.000 6.706,60.000 C6.706,60.000 29.781,60.000 29.781,60.000 C30.610,60.000 31.281,60.671 31.281,61.500 C31.281,62.329 30.610,63.000 29.781,63.000 Z" id="path-4" class="cls-5" fill-rule="evenodd"/>
    <path d="M29.281,11.500 C28.453,11.500 27.781,10.829 27.781,10.000 C27.781,10.000 27.781,6.989 27.781,6.989 C27.781,4.864 26.033,3.000 24.040,3.000 C24.040,3.000 21.432,3.000 21.432,3.000 C19.453,3.000 17.781,4.827 17.781,6.989 C17.781,6.989 17.781,10.000 17.781,10.000 C17.781,10.829 17.110,11.500 16.281,11.500 C15.453,11.500 14.781,10.829 14.781,10.000 C14.781,10.000 14.781,6.989 14.781,6.989 C14.781,3.201 17.827,-0.000 21.432,-0.000 C21.432,-0.000 24.040,-0.000 24.040,-0.000 C27.694,-0.000 30.781,3.201 30.781,6.989 C30.781,6.989 30.781,10.000 30.781,10.000 C30.781,10.829 30.110,11.500 29.281,11.500 Z" id="path-5" class="cls-5" fill-rule="evenodd"/>
  </g>
</svg>
