<svg xmlns="http://www.w3.org/2000/svg" xmlns:xlink="http://www.w3.org/1999/xlink" preserveAspectRatio="xMidYMid" width="47" height="65" viewBox="0 0 47 65">
  <defs>
    <style>

      .cls-3 {
        fill: #e56a77;
      }

      .cls-4 {
        fill: #8b71b5;
      }

      .cls-5 {
        fill: #000000;
      }
    </style>
  </defs>
  <g id="group-29svg">
    <path d="M47.000,57.000 C47.000,61.418 43.418,65.000 39.000,65.000 C39.000,65.000 13.000,65.000 13.000,65.000 C8.582,65.000 5.000,61.418 5.000,57.000 C5.000,57.000 5.000,13.000 5.000,13.000 C5.000,8.582 8.582,5.000 13.000,5.000 C13.000,5.000 39.000,5.000 39.000,5.000 C43.418,5.000 47.000,8.582 47.000,13.000 C47.000,13.000 47.000,57.000 47.000,57.000 Z" id="path-1" class="cls-3" fill-rule="evenodd"/>
    <path d="M28.839,24.566 C28.839,24.566 38.062,33.791 38.062,33.791 C39.080,34.810 39.080,36.461 38.061,37.480 C38.061,37.480 28.838,46.699 28.838,46.699 C27.820,47.717 26.168,47.717 25.150,46.699 C25.150,46.699 15.927,37.480 15.927,37.480 C14.908,36.461 14.908,34.810 15.926,33.791 C15.926,33.791 25.149,24.566 25.149,24.566 C26.168,23.547 27.820,23.547 28.839,24.566 Z" id="path-2" class="cls-4" fill-rule="evenodd"/>
    <path d="M35.500,63.000 C35.500,63.000 9.500,63.000 9.500,63.000 C4.262,63.000 -0.000,58.738 -0.000,53.500 C-0.000,53.500 -0.000,9.500 -0.000,9.500 C-0.000,4.262 4.262,-0.000 9.500,-0.000 C9.500,-0.000 35.500,-0.000 35.500,-0.000 C40.738,-0.000 45.000,4.262 45.000,9.500 C45.000,9.500 45.000,53.500 45.000,53.500 C45.000,58.738 40.738,63.000 35.500,63.000 ZM9.500,3.000 C5.916,3.000 3.000,5.916 3.000,9.500 C3.000,9.500 3.000,53.500 3.000,53.500 C3.000,57.084 5.916,60.000 9.500,60.000 C9.500,60.000 35.500,60.000 35.500,60.000 C39.084,60.000 42.000,57.084 42.000,53.500 C42.000,53.500 42.000,9.500 42.000,9.500 C42.000,5.916 39.084,3.000 35.500,3.000 C35.500,3.000 9.500,3.000 9.500,3.000 Z" id="path-3" class="cls-5" fill-rule="evenodd"/>
    <path d="M22.994,45.963 C21.897,45.963 20.865,45.536 20.089,44.760 C20.089,44.760 10.867,35.541 10.867,35.541 C10.091,34.765 9.663,33.733 9.663,32.636 C9.662,31.538 10.089,30.506 10.865,29.730 C10.865,29.730 20.089,20.505 20.089,20.505 C20.864,19.729 21.896,19.301 22.994,19.301 C24.092,19.301 25.124,19.729 25.900,20.505 C25.900,20.505 35.123,29.730 35.123,29.730 C35.899,30.506 36.326,31.538 36.326,32.636 C36.325,33.733 35.897,34.765 35.122,35.541 C35.122,35.541 25.899,44.760 25.899,44.760 C25.123,45.536 24.091,45.963 22.994,45.963 ZM22.994,22.301 C22.698,22.301 22.419,22.417 22.210,22.626 C22.210,22.626 12.987,31.851 12.987,31.851 C12.778,32.061 12.663,32.339 12.663,32.635 C12.663,32.931 12.778,33.209 12.988,33.419 C12.988,33.419 22.210,42.638 22.210,42.638 C22.629,43.057 23.359,43.057 23.778,42.638 C23.778,42.638 33.000,33.419 33.000,33.419 C33.210,33.209 33.326,32.931 33.326,32.635 C33.326,32.339 33.210,32.061 33.001,31.851 C33.001,31.851 23.778,22.626 23.778,22.626 C23.569,22.417 23.290,22.301 22.994,22.301 Z" id="path-4" class="cls-5" fill-rule="evenodd"/>
    <path d="M10.500,15.500 C9.671,15.500 9.000,14.829 9.000,14.000 C9.000,14.000 9.000,9.000 9.000,9.000 C9.000,8.171 9.671,7.500 10.500,7.500 C11.329,7.500 12.000,8.171 12.000,9.000 C12.000,9.000 12.000,14.000 12.000,14.000 C12.000,14.829 11.329,15.500 10.500,15.500 Z" id="path-5" class="cls-5" fill-rule="evenodd"/>
    <path d="M35.500,55.500 C34.671,55.500 34.000,54.829 34.000,54.000 C34.000,54.000 34.000,49.000 34.000,49.000 C34.000,48.171 34.671,47.500 35.500,47.500 C36.329,47.500 37.000,48.171 37.000,49.000 C37.000,49.000 37.000,54.000 37.000,54.000 C37.000,54.829 36.329,55.500 35.500,55.500 Z" id="path-6" class="cls-5" fill-rule="evenodd"/>
  </g>
</svg>
