<svg xmlns="http://www.w3.org/2000/svg" xmlns:xlink="http://www.w3.org/1999/xlink" preserveAspectRatio="xMidYMid" width="66" height="64" viewBox="0 0 66 64">
  <defs>
    <style>

      .cls-3 {
        fill: #8b71b5;
      }

      .cls-4 {
        fill: #000000;
      }
    </style>
  </defs>
  <g id="group-6svg">
    <path d="M32.503,36.477 C23.587,27.561 21.257,14.576 25.464,3.507 C21.491,5.017 17.759,7.347 14.559,10.546 C2.444,22.662 2.444,42.305 14.560,54.420 C26.675,66.536 46.318,66.536 58.434,54.421 C61.633,51.221 63.963,47.489 65.473,43.516 C54.404,47.722 41.418,45.393 32.503,36.477 Z" id="path-1" class="cls-3" fill-rule="evenodd"/>
    <path d="M32.497,63.007 C23.809,63.007 15.642,59.624 9.499,53.481 C-3.182,40.800 -3.182,20.166 9.499,7.486 C12.749,4.236 16.595,1.753 20.931,0.105 C21.483,-0.105 22.107,0.029 22.524,0.446 C22.942,0.864 23.076,1.488 22.866,2.040 C18.738,12.904 21.367,25.220 29.563,33.416 C35.127,38.980 42.530,42.045 50.406,42.045 C54.024,42.045 57.569,41.395 60.940,40.114 C61.493,39.904 62.116,40.038 62.533,40.456 C62.951,40.873 63.084,41.497 62.875,42.049 C61.226,46.386 58.743,50.232 55.494,53.481 C49.352,59.624 41.184,63.007 32.497,63.007 ZM19.017,4.229 C16.280,5.625 13.801,7.426 11.620,9.607 C0.109,21.118 0.109,39.849 11.620,51.360 C17.196,56.937 24.610,60.007 32.497,60.007 C40.383,60.007 47.797,56.937 53.373,51.360 C55.554,49.179 57.354,46.701 58.749,43.965 C56.036,44.683 53.241,45.045 50.406,45.045 C41.728,45.045 33.573,41.668 27.442,35.538 C19.222,27.317 16.084,15.338 19.017,4.229 Z" id="path-2" class="cls-4" fill-rule="evenodd"/>
  </g>
</svg>
