<svg xmlns="http://www.w3.org/2000/svg" xmlns:xlink="http://www.w3.org/1999/xlink" preserveAspectRatio="xMidYMid" width="40" height="64" viewBox="0 0 40 64">
  <defs>
    <style>

      .cls-3 {
        fill: #000000;
      }

      .cls-8 {
        fill: #e56a77;
      }

      .cls-9 {
        fill: #53ecf4;
      }
    </style>
  </defs>
  <g id="group-29svg">
    <path d="M15.262,63.501 C15.262,63.501 15.262,63.501 15.262,63.501 C14.927,63.501 14.588,63.490 14.247,63.468 C9.426,63.152 5.152,60.596 2.522,56.456 C-0.237,52.112 -0.757,46.642 1.131,41.826 C2.372,38.659 4.431,36.441 7.406,35.073 C7.406,35.073 7.406,2.500 7.406,2.500 C7.406,1.122 8.527,-0.000 9.906,-0.000 C9.906,-0.000 19.906,-0.000 19.906,-0.000 C21.285,-0.000 22.406,1.122 22.406,2.500 C22.406,2.500 22.406,35.590 22.406,35.590 C29.056,38.626 29.853,44.332 29.853,48.438 C29.853,52.477 28.376,56.250 25.696,59.063 C22.970,61.925 19.264,63.501 15.262,63.501 ZM10.406,3.000 C10.406,3.000 10.406,36.073 10.406,36.073 C10.406,36.698 10.019,37.258 9.434,37.477 C6.733,38.490 4.982,40.220 3.924,42.921 C2.384,46.850 2.807,51.308 5.055,54.848 C7.166,58.171 10.587,60.222 14.442,60.474 C14.718,60.492 14.991,60.501 15.262,60.501 C15.262,60.501 15.262,60.501 15.262,60.501 C18.436,60.501 21.369,59.255 23.523,56.994 C25.670,54.741 26.853,51.702 26.853,48.438 C26.853,42.867 24.913,39.741 20.366,37.986 C19.788,37.763 19.406,37.206 19.406,36.586 C19.406,36.586 19.406,3.000 19.406,3.000 C19.406,3.000 10.406,3.000 10.406,3.000 Z" id="path-1" class="cls-3" fill-rule="evenodd"/>
    <path d="M0.954,8.126 C0.954,7.026 1.846,6.134 2.946,6.134 C4.047,6.134 4.938,7.026 4.938,8.126 C4.938,9.227 4.047,10.118 2.946,10.118 C1.846,10.118 0.954,9.227 0.954,8.126 Z" id="path-2" class="cls-3" fill-rule="evenodd"/>
    <path d="M0.954,14.767 C0.954,13.666 1.846,12.775 2.946,12.775 C4.047,12.775 4.938,13.666 4.938,14.767 C4.938,15.867 4.047,16.759 2.946,16.759 C1.846,16.759 0.954,15.867 0.954,14.767 Z" id="path-3" class="cls-3" fill-rule="evenodd"/>
    <path d="M0.954,21.408 C0.954,20.308 1.846,19.415 2.946,19.415 C4.047,19.415 4.938,20.308 4.938,21.408 C4.938,22.508 4.047,23.400 2.946,23.400 C1.846,23.400 0.954,22.508 0.954,21.408 Z" id="path-4" class="cls-3" fill-rule="evenodd"/>
    <path d="M0.954,28.049 C0.954,26.948 1.846,26.057 2.946,26.057 C4.047,26.057 4.938,26.948 4.938,28.049 C4.938,29.149 4.047,30.041 2.946,30.041 C1.846,30.041 0.954,29.149 0.954,28.049 Z" id="path-5" class="cls-3" fill-rule="evenodd"/>
    <path d="M17.406,40.980 C17.406,40.980 17.406,8.000 17.406,8.000 C17.406,7.448 16.959,7.000 16.406,7.000 C16.406,7.000 13.406,7.000 13.406,7.000 C12.853,7.000 12.406,7.448 12.406,8.000 C12.406,8.000 12.406,40.980 12.406,40.980 C8.566,42.054 7.021,45.057 6.903,48.652 C6.777,52.495 9.031,56.032 12.699,57.186 C18.894,59.136 23.746,54.762 23.746,49.106 C23.746,45.312 21.406,42.099 17.406,40.980 Z" id="path-6" class="cls-8" fill-rule="evenodd"/>
    <path d="M39.613,21.993 C40.058,25.779 38.210,27.489 34.398,27.489 C30.586,27.489 28.936,25.768 29.465,21.993 C30.027,17.973 34.398,13.403 34.398,13.403 C34.398,13.403 39.167,18.184 39.613,21.993 Z" id="path-7" class="cls-9" fill-rule="evenodd"/>
    <path d="M32.398,26.989 C29.963,26.989 28.237,26.367 27.123,25.086 C26.045,23.847 25.660,22.063 25.979,19.785 C26.602,15.337 31.122,10.567 31.314,10.367 C31.594,10.075 31.979,9.908 32.383,9.903 C32.812,9.906 33.176,10.058 33.460,10.344 C33.986,10.871 38.610,15.614 39.104,19.818 C39.364,22.041 38.936,23.799 37.833,25.040 C36.683,26.333 34.853,26.989 32.398,26.989 ZM32.429,13.654 C31.083,15.320 29.260,17.992 28.950,20.201 C28.757,21.581 28.904,22.562 29.387,23.117 C29.890,23.696 30.903,23.989 32.398,23.989 C33.960,23.989 35.034,23.671 35.591,23.046 C36.102,22.472 36.280,21.504 36.123,20.167 C35.879,18.081 33.887,15.353 32.429,13.654 Z" id="path-8" class="cls-3" fill-rule="evenodd"/>
  </g>
</svg>
