<svg xmlns="http://www.w3.org/2000/svg" xmlns:xlink="http://www.w3.org/1999/xlink" preserveAspectRatio="xMidYMid" width="46" height="66" viewBox="0 0 46 66">
  <defs>
    <style>

      .cls-3 {
        fill: #ff917b;
      }

      .cls-4 {
        fill: #e56a77;
      }

      .cls-5 {
        fill: #000000;
      }

      .cls-9 {
        fill: #ffffff;
      }
    </style>
  </defs>
  <g id="group-5svg">
    <path d="M46.000,57.013 C46.000,61.433 42.418,65.016 38.000,65.016 C38.000,65.016 14.000,65.016 14.000,65.016 C9.582,65.016 6.000,61.433 6.000,57.013 C6.000,57.013 6.000,13.000 6.000,13.000 C6.000,8.580 9.582,4.997 14.000,4.997 C14.000,4.997 38.000,4.997 38.000,4.997 C42.418,4.997 46.000,8.580 46.000,13.000 C46.000,13.000 46.000,57.013 46.000,57.013 Z" id="path-1" class="cls-3" fill-rule="evenodd"/>
    <path d="M6.000,56.013 C6.000,56.013 46.000,56.013 46.000,56.013 C46.000,56.013 46.000,13.000 46.000,13.000 C46.000,13.000 6.000,13.000 6.000,13.000 C6.000,13.000 6.000,56.013 6.000,56.013 Z" id="path-2" class="cls-4" fill-rule="evenodd"/>
    <path d="M33.500,63.015 C33.500,63.015 9.500,63.015 9.500,63.015 C4.262,63.015 -0.000,58.752 -0.000,53.512 C-0.000,53.512 -0.000,9.499 -0.000,9.499 C-0.000,4.259 4.262,-0.004 9.500,-0.004 C9.500,-0.004 33.500,-0.004 33.500,-0.004 C38.738,-0.004 43.000,4.259 43.000,9.499 C43.000,9.499 43.000,53.512 43.000,53.512 C43.000,58.752 38.738,63.015 33.500,63.015 ZM9.500,2.997 C5.916,2.997 3.000,5.914 3.000,9.499 C3.000,9.499 3.000,53.512 3.000,53.512 C3.000,57.097 5.916,60.014 9.500,60.014 C9.500,60.014 33.500,60.014 33.500,60.014 C37.084,60.014 40.000,57.097 40.000,53.512 C40.000,53.512 40.000,9.499 40.000,9.499 C40.000,5.914 37.084,2.997 33.500,2.997 C33.500,2.997 9.500,2.997 9.500,2.997 Z" id="path-3" class="cls-5" fill-rule="evenodd"/>
    <path d="M41.500,54.012 C41.500,54.012 1.500,54.012 1.500,54.012 C0.671,54.012 -0.000,53.340 -0.000,52.512 C-0.000,52.512 -0.000,9.499 -0.000,9.499 C-0.000,8.670 0.671,7.998 1.500,7.998 C1.500,7.998 41.500,7.998 41.500,7.998 C42.329,7.998 43.000,8.670 43.000,9.499 C43.000,9.499 43.000,52.512 43.000,52.512 C43.000,53.340 42.329,54.012 41.500,54.012 ZM3.000,51.011 C3.000,51.011 40.000,51.011 40.000,51.011 C40.000,51.011 40.000,10.999 40.000,10.999 C40.000,10.999 3.000,10.999 3.000,10.999 C3.000,10.999 3.000,51.011 3.000,51.011 Z" id="path-4" class="cls-5" fill-rule="evenodd"/>
    <path d="M24.369,5.710 C24.369,6.815 23.473,7.711 22.369,7.711 C21.264,7.711 20.369,6.815 20.369,5.710 C20.369,4.605 21.264,3.709 22.369,3.709 C23.473,3.709 24.369,4.605 24.369,5.710 Z" id="path-5" class="cls-5" fill-rule="evenodd"/>
    <path d="M25.000,58.014 C25.000,58.014 20.000,58.014 20.000,58.014 C19.171,58.014 18.500,57.342 18.500,56.513 C18.500,55.685 19.171,55.013 20.000,55.013 C20.000,55.013 25.000,55.013 25.000,55.013 C25.829,55.013 26.500,55.685 26.500,56.513 C26.500,57.342 25.829,58.014 25.000,58.014 Z" id="path-6" class="cls-5" fill-rule="evenodd"/>
    <path d="M29.000,28.186 C29.000,28.186 23.000,33.006 23.000,33.006 C23.000,33.006 17.000,33.006 17.000,33.006 C17.000,33.006 17.000,38.007 17.000,38.007 C17.000,38.007 23.000,38.007 23.000,38.007 C23.000,38.007 29.000,43.859 29.000,43.859 C29.000,43.859 29.000,28.186 29.000,28.186 Z" id="path-7" class="cls-9" fill-rule="evenodd"/>
    <path d="M26.500,43.359 C26.116,43.359 25.738,43.211 25.452,42.932 C25.452,42.932 19.389,37.007 19.389,37.007 C19.389,37.007 14.500,37.007 14.500,37.007 C13.671,37.007 13.000,36.335 13.000,35.507 C13.000,35.507 13.000,30.505 13.000,30.505 C13.000,29.677 13.671,29.005 14.500,29.005 C14.500,29.005 19.548,29.005 19.548,29.005 C19.548,29.005 25.670,24.936 25.670,24.936 C26.131,24.628 26.722,24.601 27.209,24.863 C27.696,25.125 28.000,25.633 28.000,26.186 C28.000,26.186 28.000,41.858 28.000,41.858 C28.000,42.462 27.638,43.007 27.082,43.242 C26.894,43.321 26.696,43.359 26.500,43.359 ZM16.000,34.006 C16.000,34.006 20.000,34.006 20.000,34.006 C20.392,34.006 20.768,34.160 21.049,34.433 C21.049,34.433 25.000,38.295 25.000,38.295 C25.000,38.295 25.000,28.984 25.000,28.984 C25.000,28.984 20.831,31.755 20.831,31.755 C20.584,31.919 20.296,32.006 20.000,32.006 C20.000,32.006 16.000,32.006 16.000,32.006 C16.000,32.006 16.000,34.006 16.000,34.006 Z" id="path-8" class="cls-5" fill-rule="evenodd"/>
    <path d="M18.214,42.428 C18.214,42.428 14.968,40.089 14.968,40.089 C14.968,40.089 27.009,23.366 27.009,23.366 C27.009,23.366 30.255,25.705 30.255,25.705 C30.255,25.705 18.214,42.428 18.214,42.428 Z" id="path-9" class="cls-4" fill-rule="evenodd"/>
    <path d="M16.590,42.259 C16.388,42.259 16.184,42.197 16.007,42.070 C15.559,41.747 15.457,41.122 15.780,40.674 C15.780,40.674 27.821,23.951 27.821,23.951 C28.143,23.503 28.769,23.400 29.217,23.724 C29.665,24.047 29.767,24.672 29.444,25.120 C29.444,25.120 17.403,41.843 17.403,41.843 C17.207,42.114 16.901,42.259 16.590,42.259 Z" id="path-10" class="cls-5" fill-rule="evenodd"/>
    <path d="M6.265,42.472 C5.871,42.472 5.477,42.317 5.183,42.010 C4.609,41.412 4.629,40.462 5.226,39.889 C5.226,39.889 7.098,38.093 7.098,38.093 C7.098,38.093 5.226,36.291 5.226,36.291 C4.932,36.009 4.765,35.618 4.765,35.211 C4.765,34.802 4.931,34.413 5.224,34.129 C5.224,34.129 7.128,32.294 7.128,32.294 C7.128,32.294 5.199,30.344 5.199,30.344 C4.919,30.062 4.763,29.679 4.765,29.280 C4.768,28.882 4.928,28.501 5.211,28.221 C5.211,28.221 8.209,25.260 8.209,25.260 C8.798,24.677 9.749,24.683 10.331,25.274 C10.913,25.864 10.907,26.814 10.317,27.396 C10.317,27.396 8.388,29.302 8.388,29.302 C8.388,29.302 10.329,31.264 10.329,31.264 C10.612,31.549 10.768,31.935 10.763,32.337 C10.758,32.738 10.593,33.121 10.304,33.400 C10.304,33.400 8.428,35.209 8.428,35.209 C8.428,35.209 10.303,37.012 10.303,37.012 C10.597,37.295 10.763,37.686 10.763,38.094 C10.763,38.503 10.596,38.894 10.302,39.176 C10.302,39.176 7.304,42.054 7.304,42.054 C7.013,42.333 6.639,42.472 6.265,42.472 Z" id="path-11" class="cls-5" fill-rule="evenodd"/>
    <path d="M32.477,42.472 C32.083,42.472 31.689,42.317 31.394,42.010 C30.821,41.412 30.841,40.462 31.438,39.889 C31.438,39.889 33.310,38.093 33.310,38.093 C33.310,38.093 31.437,36.291 31.437,36.291 C31.143,36.009 30.977,35.618 30.977,35.211 C30.977,34.802 31.143,34.413 31.436,34.129 C31.436,34.129 33.340,32.294 33.340,32.294 C33.340,32.294 31.411,30.344 31.411,30.344 C31.131,30.062 30.975,29.679 30.977,29.280 C30.979,28.882 31.140,28.501 31.423,28.221 C31.423,28.221 34.421,25.260 34.421,25.260 C35.010,24.677 35.960,24.683 36.542,25.274 C37.124,25.864 37.119,26.814 36.529,27.396 C36.529,27.396 34.600,29.302 34.600,29.302 C34.600,29.302 36.541,31.264 36.541,31.264 C36.824,31.549 36.979,31.935 36.975,32.337 C36.970,32.738 36.805,33.121 36.516,33.400 C36.516,33.400 34.640,35.209 34.640,35.209 C34.640,35.209 36.515,37.012 36.515,37.012 C36.809,37.295 36.975,37.686 36.975,38.094 C36.975,38.503 36.808,38.894 36.514,39.176 C36.514,39.176 33.516,42.054 33.516,42.054 C33.225,42.333 32.851,42.472 32.477,42.472 Z" id="path-12" class="cls-5" fill-rule="evenodd"/>
  </g>
</svg>
