<svg xmlns="http://www.w3.org/2000/svg" xmlns:xlink="http://www.w3.org/1999/xlink" preserveAspectRatio="xMidYMid" width="67" height="62" viewBox="0 0 67 62">
  <defs>
    <style>

      .cls-3 {
        fill: #81bda4;
      }

      .cls-5 {
        fill: #e56a77;
      }

      .cls-6 {
        fill: #000000;
      }
    </style>
  </defs>
  <g id="group-3svg">
    <path d="M7.941,33.816 C7.255,33.778 6.674,34.287 6.603,34.966 C5.920,41.932 8.130,48.800 12.519,53.639 C16.766,58.326 22.753,60.625 29.832,60.625 C29.832,60.625 29.835,60.625 29.835,60.625 C30.730,60.625 31.648,60.764 32.596,60.684 C33.210,60.630 33.699,60.235 33.758,59.622 C34.397,52.999 32.688,47.168 28.814,42.676 C24.260,37.394 16.849,34.275 7.941,33.816 Z" id="path-1" class="cls-3" fill-rule="evenodd"/>
    <path d="M66.358,34.966 C66.291,34.287 65.695,33.778 65.021,33.816 C56.116,34.275 48.705,37.438 44.150,42.720 C40.274,47.214 38.568,53.087 39.206,59.710 C39.266,60.324 39.755,60.808 40.369,60.861 C41.316,60.940 42.235,60.981 43.130,60.981 C50.212,60.981 56.199,58.503 60.449,53.816 C64.834,48.978 67.044,41.932 66.358,34.966 Z" id="path-2" class="cls-3" fill-rule="evenodd"/>
    <path d="M51.009,20.657 C51.009,12.299 44.208,5.499 35.849,5.499 C27.492,5.499 20.691,12.299 20.691,20.657 C20.691,29.017 27.492,35.816 35.849,35.816 C44.208,35.816 51.009,29.017 51.009,20.657 Z" id="path-3" class="cls-5" fill-rule="evenodd"/>
    <path d="M27.331,57.944 C27.331,57.944 27.331,57.944 27.331,57.944 C26.755,57.944 26.231,57.843 25.768,57.754 C25.421,57.688 25.093,57.625 24.835,57.625 C16.954,57.625 10.754,55.193 6.407,50.396 C1.695,45.200 -0.600,38.065 0.111,30.820 C0.258,29.388 1.444,28.314 2.869,28.314 C2.897,28.314 2.996,28.317 3.023,28.318 C12.398,28.801 20.187,32.110 24.950,37.634 C29.091,42.436 30.924,48.663 30.251,55.641 C30.126,56.928 29.159,57.804 27.726,57.928 C27.592,57.939 27.461,57.944 27.331,57.944 ZM3.077,31.325 C2.512,37.651 4.529,43.860 8.630,48.381 C12.385,52.524 17.836,54.625 24.832,54.625 C25.378,54.625 25.886,54.722 26.334,54.809 C26.686,54.876 27.018,54.940 27.302,54.944 C27.797,48.890 26.243,43.727 22.679,39.593 C18.490,34.736 11.535,31.804 3.077,31.325 Z" id="path-4" class="cls-6" fill-rule="evenodd"/>
    <path d="M38.130,58.481 C37.214,58.481 36.243,58.439 35.244,58.355 C33.905,58.239 32.843,57.187 32.713,55.855 C32.034,48.811 33.867,42.548 38.015,37.741 C42.840,32.145 50.628,28.798 59.944,28.318 C59.970,28.317 60.066,28.314 60.092,28.314 C61.523,28.314 62.709,29.391 62.851,30.818 C63.578,38.197 61.226,45.676 56.560,50.824 C52.017,55.833 45.644,58.481 38.130,58.481 ZM35.683,55.381 C36.529,55.447 37.352,55.481 38.130,55.481 C44.774,55.481 50.379,53.174 54.338,48.809 C58.400,44.327 60.466,37.805 59.886,31.325 C51.494,31.800 44.537,34.770 40.286,39.700 C36.723,43.831 35.133,49.250 35.683,55.381 Z" id="path-5" class="cls-6" fill-rule="evenodd"/>
    <path d="M30.849,33.316 C21.664,33.316 14.191,25.843 14.191,16.657 C14.191,7.472 21.664,-0.001 30.849,-0.001 C40.035,-0.001 47.509,7.472 47.509,16.657 C47.509,25.843 40.035,33.316 30.849,33.316 ZM30.849,2.999 C23.318,2.999 17.191,9.126 17.191,16.657 C17.191,24.189 23.318,30.316 30.849,30.316 C38.381,30.316 44.509,24.189 44.509,16.657 C44.509,9.126 38.381,2.999 30.849,2.999 Z" id="path-6" class="cls-6" fill-rule="evenodd"/>
  </g>
</svg>
