<svg xmlns="http://www.w3.org/2000/svg" xmlns:xlink="http://www.w3.org/1999/xlink" preserveAspectRatio="xMidYMid" width="67" height="61" viewBox="0 0 67 61">
  <defs>
    <style>

      .cls-3 {
        fill: #99746a;
      }

      .cls-4 {
        fill: #e56a77;
      }

      .cls-6 {
        fill: #ffffff;
      }

      .cls-7 {
        fill: #000000;
      }
    </style>
  </defs>
  <g id="group-23svg">
    <path d="M67.000,57.000 C67.000,59.209 65.209,61.000 63.000,61.000 C63.000,61.000 11.000,61.000 11.000,61.000 C8.791,61.000 7.000,59.209 7.000,57.000 C7.000,57.000 7.000,18.000 7.000,18.000 C7.000,15.791 8.791,14.000 11.000,14.000 C11.000,14.000 63.000,14.000 63.000,14.000 C65.209,14.000 67.000,15.791 67.000,18.000 C67.000,18.000 67.000,57.000 67.000,57.000 Z" id="path-1" class="cls-3" fill-rule="evenodd"/>
    <path d="M61.000,13.000 C61.000,14.104 60.104,15.000 59.000,15.000 C59.000,15.000 48.000,15.000 48.000,15.000 C46.895,15.000 46.000,14.104 46.000,13.000 C46.000,13.000 46.000,8.000 46.000,8.000 C46.000,6.895 46.895,6.000 48.000,6.000 C48.000,6.000 59.000,6.000 59.000,6.000 C60.104,6.000 61.000,6.895 61.000,8.000 C61.000,8.000 61.000,13.000 61.000,13.000 Z" id="path-2" class="cls-4" fill-rule="evenodd"/>
    <path d="M26.000,13.000 C26.000,14.104 25.104,15.000 24.000,15.000 C24.000,15.000 13.000,15.000 13.000,15.000 C11.895,15.000 11.000,14.104 11.000,13.000 C11.000,13.000 11.000,8.000 11.000,8.000 C11.000,6.895 11.895,6.000 13.000,6.000 C13.000,6.000 24.000,6.000 24.000,6.000 C25.104,6.000 26.000,6.895 26.000,8.000 C26.000,8.000 26.000,13.000 26.000,13.000 Z" id="path-3" class="cls-4" fill-rule="evenodd"/>
    <path d="M30.356,49.562 C30.356,49.562 22.590,40.869 34.159,35.153 C45.728,29.437 41.639,24.717 41.639,24.717 C41.639,24.717 58.669,39.714 40.922,46.301 C40.922,46.301 35.234,48.265 30.356,49.562 Z" id="path-4" class="cls-6" fill-rule="evenodd"/>
    <path d="M57.500,59.000 C57.500,59.000 5.500,59.000 5.500,59.000 C2.467,59.000 -0.000,56.533 -0.000,53.500 C-0.000,53.500 -0.000,14.500 -0.000,14.500 C-0.000,11.467 2.467,9.000 5.500,9.000 C5.500,9.000 57.500,9.000 57.500,9.000 C60.533,9.000 63.000,11.467 63.000,14.500 C63.000,14.500 63.000,53.500 63.000,53.500 C63.000,56.533 60.533,59.000 57.500,59.000 ZM5.500,12.000 C4.122,12.000 3.000,13.122 3.000,14.500 C3.000,14.500 3.000,53.500 3.000,53.500 C3.000,54.878 4.122,56.000 5.500,56.000 C5.500,56.000 57.500,56.000 57.500,56.000 C58.878,56.000 60.000,54.878 60.000,53.500 C60.000,53.500 60.000,14.500 60.000,14.500 C60.000,13.122 58.878,12.000 57.500,12.000 C57.500,12.000 5.500,12.000 5.500,12.000 Z" id="path-5" class="cls-7" fill-rule="evenodd"/>
    <path d="M53.500,12.000 C53.500,12.000 42.500,12.000 42.500,12.000 C40.570,12.000 39.000,10.430 39.000,8.500 C39.000,8.500 39.000,3.500 39.000,3.500 C39.000,1.570 40.570,-0.000 42.500,-0.000 C42.500,-0.000 53.500,-0.000 53.500,-0.000 C55.430,-0.000 57.000,1.570 57.000,3.500 C57.000,3.500 57.000,8.500 57.000,8.500 C57.000,10.430 55.430,12.000 53.500,12.000 ZM42.500,3.000 C42.224,3.000 42.000,3.225 42.000,3.500 C42.000,3.500 42.000,8.500 42.000,8.500 C42.000,8.775 42.224,9.000 42.500,9.000 C42.500,9.000 53.500,9.000 53.500,9.000 C53.776,9.000 54.000,8.775 54.000,8.500 C54.000,8.500 54.000,3.500 54.000,3.500 C54.000,3.225 53.776,3.000 53.500,3.000 C53.500,3.000 42.500,3.000 42.500,3.000 Z" id="path-6" class="cls-7" fill-rule="evenodd"/>
    <path d="M18.500,12.000 C18.500,12.000 7.500,12.000 7.500,12.000 C5.570,12.000 4.000,10.430 4.000,8.500 C4.000,8.500 4.000,3.500 4.000,3.500 C4.000,1.570 5.570,-0.000 7.500,-0.000 C7.500,-0.000 18.500,-0.000 18.500,-0.000 C20.430,-0.000 22.000,1.570 22.000,3.500 C22.000,3.500 22.000,8.500 22.000,8.500 C22.000,10.430 20.430,12.000 18.500,12.000 ZM7.500,3.000 C7.224,3.000 7.000,3.225 7.000,3.500 C7.000,3.500 7.000,8.500 7.000,8.500 C7.000,8.775 7.224,9.000 7.500,9.000 C7.500,9.000 18.500,9.000 18.500,9.000 C18.776,9.000 19.000,8.775 19.000,8.500 C19.000,8.500 19.000,3.500 19.000,3.500 C19.000,3.225 18.776,3.000 18.500,3.000 C18.500,3.000 7.500,3.000 7.500,3.000 Z" id="path-7" class="cls-7" fill-rule="evenodd"/>
    <path d="M24.356,48.061 C23.935,48.061 23.526,47.884 23.237,47.561 C23.086,47.391 19.535,43.350 20.458,38.583 C21.069,35.429 23.437,32.813 27.495,30.808 C33.212,27.983 34.507,25.629 34.770,24.478 C35.021,23.379 34.505,22.700 34.483,22.672 C34.006,22.061 34.060,21.172 34.623,20.642 C35.187,20.110 36.049,20.080 36.630,20.591 C37.003,20.919 45.733,28.707 44.350,36.169 C43.659,39.897 40.663,42.770 35.444,44.708 C35.354,44.739 29.615,46.716 24.741,48.011 C24.614,48.045 24.484,48.061 24.356,48.061 ZM37.491,25.846 C36.532,28.557 33.622,31.127 28.824,33.498 C25.650,35.066 23.827,36.968 23.404,39.154 C22.951,41.488 24.186,43.740 24.940,44.849 C29.471,43.592 34.380,41.902 34.433,41.883 C38.560,40.351 40.915,38.240 41.400,35.622 C42.002,32.373 39.714,28.569 37.491,25.846 Z" id="path-8" class="cls-7" fill-rule="evenodd"/>
    <path d="M24.354,48.061 C24.072,48.061 23.787,47.982 23.533,47.815 C22.841,47.361 22.647,46.432 23.102,45.739 C23.299,45.438 27.991,38.338 33.220,35.500 C33.948,35.105 34.858,35.374 35.254,36.102 C35.649,36.831 35.379,37.742 34.651,38.137 C30.090,40.612 25.654,47.317 25.610,47.384 C25.322,47.823 24.843,48.061 24.354,48.061 Z" id="path-9" class="cls-7" fill-rule="evenodd"/>
  </g>
</svg>
