<svg xmlns="http://www.w3.org/2000/svg" xmlns:xlink="http://www.w3.org/1999/xlink" preserveAspectRatio="xMidYMid" width="63" height="33" viewBox="0 0 63 33">
  <defs>
    <style>

      .cls-3 {
        fill: #53ecf4;
      }
    </style>
  </defs>
  <g id="group-29svg">
    <path d="M43.417,32.819 C39.407,32.819 34.936,31.549 30.160,28.128 C13.996,16.553 3.026,27.482 2.568,27.953 C1.989,28.546 1.041,28.559 0.448,27.984 C-0.146,27.408 -0.162,26.462 0.411,25.867 C0.541,25.733 13.592,12.572 31.906,25.689 C47.978,37.200 59.778,21.160 60.273,20.472 C60.758,19.798 61.696,19.647 62.366,20.129 C63.039,20.612 63.192,21.549 62.709,22.222 C62.606,22.365 54.917,32.818 43.417,32.819 Z" id="path-1" class="cls-3" fill-rule="evenodd"/>
    <path d="M43.417,23.375 C39.407,23.375 34.936,22.105 30.160,18.684 C13.930,7.059 3.027,18.033 2.571,18.505 C1.995,19.102 1.047,19.119 0.450,18.544 C-0.147,17.969 -0.163,17.019 0.411,16.423 C0.541,16.288 13.592,3.128 31.906,16.245 C47.976,27.752 59.778,11.716 60.273,11.027 C60.758,10.354 61.696,10.203 62.366,10.684 C63.039,11.167 63.192,12.105 62.709,12.778 C62.606,12.921 54.917,23.374 43.417,23.375 Z" id="path-2" class="cls-3" fill-rule="evenodd"/>
    <path d="M43.417,12.986 C39.407,12.986 34.936,11.716 30.160,8.295 C13.996,-3.280 3.026,7.648 2.568,8.120 C1.989,8.712 1.041,8.726 0.448,8.150 C-0.146,7.575 -0.162,6.629 0.411,6.034 C0.541,5.899 13.592,-7.261 31.906,5.856 C47.978,17.367 59.778,1.327 60.273,0.638 C60.758,-0.035 61.696,-0.187 62.366,0.295 C63.039,0.779 63.192,1.716 62.709,2.389 C62.606,2.532 54.917,12.984 43.417,12.986 Z" id="path-3" class="cls-3" fill-rule="evenodd"/>
  </g>
</svg>
