<svg xmlns="http://www.w3.org/2000/svg" xmlns:xlink="http://www.w3.org/1999/xlink" preserveAspectRatio="xMidYMid" width="57" height="66" viewBox="0 0 57 66">
  <defs>
    <style>

      .cls-3 {
        fill: #99746a;
      }

      .cls-4 {
        fill: #53ecf4;
      }

      .cls-5 {
        fill: #000000;
      }
    </style>
  </defs>
  <g id="group-32svg">
    <path d="M57.000,13.010 C57.000,8.591 53.418,5.009 49.000,5.009 C49.000,5.009 14.000,5.009 14.000,5.009 C9.582,5.009 6.000,8.591 6.000,13.010 C6.000,13.010 6.000,57.013 6.000,57.013 C6.000,61.432 9.582,65.013 14.000,65.013 C14.000,65.013 49.000,65.013 49.000,65.013 C53.418,65.013 57.000,61.432 57.000,57.013 C57.000,57.013 57.000,13.010 57.000,13.010 Z" id="path-1" class="cls-3" fill-rule="evenodd"/>
    <path d="M37.883,31.378 C37.883,28.252 35.309,25.717 32.183,25.717 C29.057,25.717 26.585,28.252 26.585,31.378 C26.585,32.777 27.000,34.056 28.000,35.044 C28.000,35.044 28.000,52.822 28.000,52.822 C28.000,52.822 32.500,47.154 32.500,47.154 C32.500,47.154 37.000,52.822 37.000,52.822 C37.000,52.822 37.000,34.541 37.000,34.541 C37.000,33.638 37.883,32.550 37.883,31.378 Z" id="path-2" class="cls-4" fill-rule="evenodd"/>
    <path d="M44.500,63.013 C44.500,63.013 9.500,63.013 9.500,63.013 C4.262,63.013 -0.000,58.751 -0.000,53.513 C-0.000,53.513 -0.000,9.510 -0.000,9.510 C-0.000,4.271 4.262,0.009 9.500,0.009 C9.500,0.009 44.500,0.009 44.500,0.009 C49.738,0.009 54.000,4.271 54.000,9.510 C54.000,9.510 54.000,53.513 54.000,53.513 C54.000,58.751 49.738,63.013 44.500,63.013 ZM9.500,3.009 C5.916,3.009 3.000,5.925 3.000,9.510 C3.000,9.510 3.000,53.513 3.000,53.513 C3.000,57.097 5.916,60.013 9.500,60.013 C9.500,60.013 44.500,60.013 44.500,60.013 C48.084,60.013 51.000,57.097 51.000,53.513 C51.000,53.513 51.000,9.510 51.000,9.510 C51.000,5.925 48.084,3.009 44.500,3.009 C44.500,3.009 9.500,3.009 9.500,3.009 Z" id="path-3" class="cls-5" fill-rule="evenodd"/>
    <path d="M31.500,51.322 C31.051,51.322 30.615,51.120 30.325,50.755 C30.325,50.755 27.000,46.567 27.000,46.567 C27.000,46.567 23.675,50.755 23.675,50.755 C23.279,51.255 22.610,51.449 22.006,51.238 C21.404,51.028 21.000,50.460 21.000,49.822 C21.000,49.822 21.000,32.613 21.000,32.613 C19.923,31.245 19.773,29.653 19.773,28.378 C19.773,24.430 23.041,21.217 27.058,21.217 C30.959,21.217 34.133,24.430 34.133,28.378 C34.133,29.587 33.986,30.951 33.000,32.140 C33.000,32.140 33.000,49.822 33.000,49.822 C33.000,50.460 32.596,51.028 31.994,51.238 C31.832,51.295 31.665,51.322 31.500,51.322 ZM27.000,42.654 C27.457,42.654 27.890,42.863 28.175,43.222 C28.175,43.222 30.000,45.521 30.000,45.521 C30.000,45.521 30.000,31.541 30.000,31.541 C30.000,31.117 30.180,30.712 30.495,30.428 C30.978,29.991 31.133,29.493 31.133,28.378 C31.133,26.045 29.343,24.218 27.058,24.218 C24.735,24.218 22.773,26.123 22.773,28.378 C22.773,29.676 22.999,30.429 23.554,30.978 C23.839,31.259 24.000,31.643 24.000,32.044 C24.000,32.044 24.000,45.521 24.000,45.521 C24.000,45.521 25.825,43.222 25.825,43.222 C26.110,42.863 26.542,42.654 27.000,42.654 Z" id="path-4" class="cls-5" fill-rule="evenodd"/>
    <path d="M20.000,13.010 C20.000,13.010 8.000,13.010 8.000,13.010 C7.171,13.010 6.500,12.338 6.500,11.510 C6.500,10.682 7.171,10.010 8.000,10.010 C8.000,10.010 20.000,10.010 20.000,10.010 C20.829,10.010 21.500,10.682 21.500,11.510 C21.500,12.338 20.829,13.010 20.000,13.010 Z" id="path-5" class="cls-5" fill-rule="evenodd"/>
    <path d="M20.000,19.010 C20.000,19.010 8.000,19.010 8.000,19.010 C7.171,19.010 6.500,18.338 6.500,17.510 C6.500,16.682 7.171,16.010 8.000,16.010 C8.000,16.010 20.000,16.010 20.000,16.010 C20.829,16.010 21.500,16.682 21.500,17.510 C21.500,18.338 20.829,19.010 20.000,19.010 Z" id="path-6" class="cls-5" fill-rule="evenodd"/>
  </g>
</svg>
