<svg xmlns="http://www.w3.org/2000/svg" xmlns:xlink="http://www.w3.org/1999/xlink" preserveAspectRatio="xMidYMid" width="67" height="59" viewBox="0 0 67 59">
  <defs>
    <style>

      .cls-3 {
        fill: #8b71b5;
      }

      .cls-4 {
        fill: #e56a77;
      }

      .cls-5 {
        fill: #edc951;
      }

      .cls-7 {
        fill: #53ecf4;
      }

      .cls-8 {
        fill: #000000;
      }
    </style>
  </defs>
  <g id="group-2svg">
    <path d="M63.500,51.000 C63.500,51.000 66.500,51.000 66.500,51.000 C66.500,51.000 66.500,41.000 66.500,41.000 C66.500,41.000 21.152,41.000 21.152,41.000 C21.152,41.000 23.073,51.000 23.073,51.000 C23.073,51.000 26.500,51.000 26.500,51.000 C26.500,51.000 26.500,51.000 26.500,51.000 " id="path-1" class="cls-3" fill-rule="evenodd"/>
    <path d="M21.152,41.000 C21.152,41.000 57.640,41.000 57.640,41.000 C57.640,41.000 67.242,21.000 67.242,21.000 C67.242,21.000 16.252,21.000 16.252,21.000 C16.252,21.000 21.152,41.000 21.152,41.000 Z" id="path-2" class="cls-4" fill-rule="evenodd"/>
    <path d="M62.152,51.654 C62.152,54.835 59.573,57.415 56.392,57.415 C53.210,57.415 50.630,54.835 50.630,51.654 C50.630,48.472 53.210,45.893 56.392,45.893 C59.573,45.893 62.152,48.472 62.152,51.654 Z" id="path-3" class="cls-5" fill-rule="evenodd"/>
    <path d="M39.061,51.654 C39.061,54.835 36.480,57.415 33.299,57.415 C30.117,57.415 27.538,54.835 27.538,51.654 C27.538,48.472 30.117,45.893 33.299,45.893 C36.480,45.893 39.061,48.472 39.061,51.654 Z" id="path-4" class="cls-5" fill-rule="evenodd"/>
    <path d="M31.289,18.482 C31.289,18.482 37.968,28.773 37.968,28.773 C38.944,30.236 41.085,30.410 42.101,28.974 C42.101,28.974 49.172,18.464 49.172,18.464 C50.347,16.804 49.159,14.000 47.125,14.000 C47.125,14.000 44.500,14.000 44.500,14.000 C44.500,14.000 44.500,2.728 44.500,2.728 C44.500,2.178 44.415,2.000 43.865,2.000 C43.865,2.000 37.865,2.000 37.865,2.000 C37.312,2.000 36.500,2.176 36.500,2.728 C36.500,2.728 36.500,14.000 36.500,14.000 C36.500,14.000 33.374,14.000 33.374,14.000 C31.370,14.000 30.176,16.815 31.289,18.482 Z" id="path-5" class="cls-7" fill-rule="evenodd"/>
    <path d="M51.640,41.000 C51.640,41.000 15.152,41.000 15.152,41.000 C14.461,41.000 13.860,40.528 13.695,39.857 C13.695,39.857 8.795,19.857 8.795,19.857 C8.686,19.409 8.787,18.937 9.072,18.574 C9.356,18.212 9.791,18.000 10.252,18.000 C10.252,18.000 21.500,18.000 21.500,18.000 C22.328,18.000 23.000,18.671 23.000,19.500 C23.000,20.329 22.328,21.000 21.500,21.000 C21.500,21.000 12.164,21.000 12.164,21.000 C12.164,21.000 16.329,38.000 16.329,38.000 C16.329,38.000 50.696,38.000 50.696,38.000 C50.696,38.000 58.858,21.000 58.858,21.000 C58.858,21.000 48.500,21.000 48.500,21.000 C47.672,21.000 47.000,20.329 47.000,19.500 C47.000,18.671 47.672,18.000 48.500,18.000 C48.500,18.000 61.242,18.000 61.242,18.000 C61.758,18.000 62.237,18.265 62.512,18.701 C62.786,19.138 62.817,19.684 62.595,20.149 C62.595,20.149 52.992,40.149 52.992,40.149 C52.742,40.669 52.217,41.000 51.640,41.000 Z" id="path-6" class="cls-8" fill-rule="evenodd"/>
    <path d="M61.000,52.000 C61.000,52.000 57.500,52.000 57.500,52.000 C56.672,52.000 56.000,51.329 56.000,50.500 C56.000,49.671 56.672,49.000 57.500,49.000 C57.500,49.000 59.500,49.000 59.500,49.000 C59.500,49.000 59.500,41.000 59.500,41.000 C59.500,41.000 16.936,41.000 16.936,41.000 C16.936,41.000 18.334,49.000 18.334,49.000 C18.334,49.000 20.500,49.000 20.500,49.000 C21.328,49.000 22.000,49.671 22.000,50.500 C22.000,51.329 21.328,52.000 20.500,52.000 C20.500,52.000 17.073,52.000 17.073,52.000 C16.345,52.000 15.721,51.476 15.596,50.758 C15.596,50.758 13.675,39.758 13.675,39.758 C13.599,39.322 13.719,38.874 14.004,38.535 C14.289,38.196 14.709,38.000 15.152,38.000 C15.152,38.000 61.000,38.000 61.000,38.000 C61.828,38.000 62.500,38.671 62.500,39.500 C62.500,39.500 62.500,50.500 62.500,50.500 C62.500,51.329 61.828,52.000 61.000,52.000 Z" id="path-7" class="cls-8" fill-rule="evenodd"/>
    <path d="M43.500,52.000 C43.500,52.000 33.500,52.000 33.500,52.000 C32.672,52.000 32.000,51.329 32.000,50.500 C32.000,49.671 32.672,49.000 33.500,49.000 C33.500,49.000 43.500,49.000 43.500,49.000 C44.328,49.000 45.000,49.671 45.000,50.500 C45.000,51.329 44.328,52.000 43.500,52.000 Z" id="path-8" class="cls-8" fill-rule="evenodd"/>
    <path d="M50.392,58.127 C46.388,58.127 43.130,54.870 43.130,50.866 C43.130,46.862 46.388,43.604 50.392,43.604 C54.395,43.604 57.652,46.862 57.652,50.866 C57.652,54.870 54.395,58.127 50.392,58.127 ZM50.392,46.604 C48.042,46.604 46.130,48.516 46.130,50.866 C46.130,53.215 48.042,55.127 50.392,55.127 C52.741,55.127 54.652,53.215 54.652,50.866 C54.652,48.516 52.741,46.604 50.392,46.604 Z" id="path-9" class="cls-8" fill-rule="evenodd"/>
    <path d="M27.299,58.127 C23.295,58.127 20.038,54.870 20.038,50.866 C20.038,46.862 23.295,43.604 27.299,43.604 C31.303,43.604 34.561,46.862 34.561,50.866 C34.561,54.870 31.303,58.127 27.299,58.127 ZM27.299,46.604 C24.949,46.604 23.038,48.516 23.038,50.866 C23.038,53.215 24.949,55.127 27.299,55.127 C29.648,55.127 31.560,53.215 31.560,50.866 C31.560,48.516 29.648,46.604 27.299,46.604 Z" id="path-10" class="cls-8" fill-rule="evenodd"/>
    <path d="M17.072,51.406 C16.396,51.406 15.782,50.946 15.615,50.260 C15.615,50.260 6.013,10.769 6.013,10.769 C5.985,10.652 5.971,10.533 5.971,10.414 C5.971,9.749 5.297,9.187 4.499,9.187 C3.664,9.187 3.011,9.877 3.011,10.758 C3.011,11.300 3.276,11.800 3.723,12.096 C4.412,12.554 4.601,13.485 4.143,14.175 C3.684,14.866 2.755,15.054 2.062,14.596 C0.778,13.742 0.011,12.308 0.011,10.758 C0.011,8.238 2.024,6.187 4.499,6.187 C6.894,6.187 8.854,7.976 8.966,10.214 C8.966,10.214 18.531,49.551 18.531,49.551 C18.727,50.356 18.232,51.167 17.428,51.363 C17.309,51.392 17.189,51.406 17.072,51.406 Z" id="path-11" class="cls-8" fill-rule="evenodd"/>
    <path d="M35.718,31.375 C35.718,31.375 35.718,31.375 35.718,31.375 C34.318,31.375 33.010,30.667 32.218,29.481 C32.218,29.481 25.523,19.041 25.523,19.041 C24.647,17.730 24.626,15.829 25.485,14.222 C26.229,12.831 27.495,12.000 28.871,12.000 C28.871,12.000 30.500,12.000 30.500,12.000 C30.500,12.000 30.500,2.728 30.500,2.728 C30.500,1.259 32.074,-0.000 33.362,-0.000 C33.362,-0.000 39.362,-0.000 39.362,-0.000 C39.720,-0.000 41.500,0.132 41.500,2.728 C41.500,2.728 41.500,12.000 41.500,12.000 C41.500,12.000 42.622,12.000 42.622,12.000 C44.039,12.000 45.324,12.848 46.060,14.269 C46.885,15.863 46.820,17.739 45.894,19.049 C45.894,19.049 38.850,29.737 38.850,29.737 C38.104,30.792 36.973,31.375 35.718,31.375 ZM28.871,15.000 C28.576,15.000 28.296,15.329 28.131,15.636 C27.809,16.241 27.766,16.999 28.033,17.399 C28.033,17.399 34.728,27.838 34.728,27.838 C34.988,28.228 35.413,28.375 35.718,28.375 C35.998,28.375 36.218,28.264 36.373,28.045 C36.373,28.045 43.418,17.357 43.418,17.357 C43.713,16.938 43.691,16.221 43.395,15.648 C43.233,15.335 42.944,15.000 42.622,15.000 C42.622,15.000 38.500,15.000 38.500,15.000 C38.500,15.000 38.500,3.000 38.500,3.000 C38.500,3.000 33.507,3.000 33.507,3.000 C33.505,3.001 33.502,3.003 33.500,3.005 C33.500,3.005 33.500,15.000 33.500,15.000 C33.500,15.000 28.871,15.000 28.871,15.000 Z" id="path-12" class="cls-8" fill-rule="evenodd"/>
  </g>
</svg>
