<svg xmlns="http://www.w3.org/2000/svg" xmlns:xlink="http://www.w3.org/1999/xlink" preserveAspectRatio="xMidYMid" width="63" height="64" viewBox="0 0 63 64">
  <defs>
    <style>

      .cls-3 {
        fill: #53ecf4;
      }

      .cls-4 {
        fill: #edc951;
      }

      .cls-5 {
        fill: #81bda4;
      }

      .cls-6 {
        fill: #e56a77;
      }

      .cls-7 {
        fill: #000000;
      }
    </style>
  </defs>
  <g id="group-5svg">
    <path d="M37.906,61.041 C37.906,62.146 37.011,63.042 35.906,63.042 C35.906,63.042 29.906,63.042 29.906,63.042 C28.802,63.042 27.906,62.146 27.906,61.041 C27.906,61.041 27.906,5.001 27.906,5.001 C27.906,3.896 28.802,3.000 29.906,3.000 C29.906,3.000 35.906,3.000 35.906,3.000 C37.011,3.000 37.906,3.896 37.906,5.001 C37.906,5.001 37.906,61.041 37.906,61.041 Z" id="path-1" class="cls-3" fill-rule="evenodd"/>
    <path d="M26.906,26.016 C26.906,26.016 26.906,17.010 26.906,17.010 C26.906,17.010 9.310,17.010 9.310,17.010 C8.838,17.010 8.379,16.818 8.001,17.102 C8.001,17.102 4.365,19.658 4.365,19.658 C3.202,20.532 3.202,22.192 4.365,23.065 C4.365,23.065 8.001,25.687 8.001,25.687 C8.379,25.971 8.838,26.016 9.310,26.016 C9.310,26.016 26.906,26.016 26.906,26.016 Z" id="path-2" class="cls-4" fill-rule="evenodd"/>
    <path d="M26.906,43.028 C26.906,43.028 26.906,33.021 26.906,33.021 C26.906,33.021 9.310,33.021 9.310,33.021 C8.838,33.021 8.379,33.011 8.001,33.295 C8.001,33.295 4.365,35.942 4.365,35.942 C3.202,36.816 3.202,38.521 4.365,39.395 C4.365,39.395 8.001,42.358 8.001,42.358 C8.379,42.641 8.838,43.028 9.310,43.028 C9.310,43.028 26.906,43.028 26.906,43.028 Z" id="path-3" class="cls-5" fill-rule="evenodd"/>
    <path d="M37.906,23.014 C37.906,23.014 37.906,13.007 37.906,13.007 C37.906,13.007 56.765,13.007 56.765,13.007 C57.237,13.007 57.697,13.179 58.074,13.462 C58.074,13.462 61.710,16.201 61.710,16.201 C62.874,17.075 62.874,18.826 61.710,19.699 C61.710,19.699 58.074,22.503 58.074,22.503 C57.697,22.786 57.237,23.014 56.765,23.014 C56.765,23.014 37.906,23.014 37.906,23.014 Z" id="path-4" class="cls-6" fill-rule="evenodd"/>
    <path d="M54.765,22.013 C54.765,22.013 36.406,22.013 36.406,22.013 C35.578,22.013 34.906,21.341 34.906,20.512 C34.906,20.512 34.906,10.505 34.906,10.505 C34.906,9.676 35.578,9.004 36.406,9.004 C36.406,9.004 54.765,9.004 54.765,9.004 C55.683,9.004 56.370,9.540 56.824,9.894 C56.824,9.894 60.638,12.895 60.638,12.895 C61.546,13.576 62.083,14.663 62.083,15.855 C62.083,17.047 61.546,18.134 60.610,18.836 C60.610,18.836 56.943,21.444 56.943,21.444 C56.185,22.013 55.296,22.013 54.765,22.013 ZM37.906,19.011 C37.906,19.011 54.765,19.011 54.765,19.011 C54.891,19.011 55.154,19.011 55.233,18.986 C55.233,18.986 58.842,16.412 58.842,16.412 C59.057,16.249 59.083,15.967 59.083,15.855 C59.083,15.742 59.057,15.460 58.810,15.276 C58.810,15.276 54.979,12.262 54.979,12.262 C54.881,12.185 54.728,12.066 54.632,12.006 C54.632,12.006 37.906,12.006 37.906,12.006 C37.906,12.006 37.906,19.011 37.906,19.011 Z" id="path-5" class="cls-7" fill-rule="evenodd"/>
    <path d="M6.555,25.068 C6.000,25.068 5.511,24.912 5.102,24.605 C5.102,24.605 1.539,22.254 1.539,22.254 C0.529,21.500 -0.007,20.430 -0.007,19.267 C-0.007,18.103 0.529,17.033 1.465,16.331 C1.465,16.331 5.111,13.642 5.111,13.642 C5.869,13.073 6.730,13.007 7.310,13.007 C7.310,13.007 25.406,13.007 25.406,13.007 C26.235,13.007 26.906,13.679 26.906,14.508 C26.906,14.508 26.906,23.514 26.906,23.514 C26.906,24.343 26.235,25.015 25.406,25.015 C25.406,25.015 7.310,25.015 7.310,25.015 C7.230,25.015 7.151,25.026 7.073,25.034 C6.896,25.052 6.723,25.068 6.555,25.068 ZM6.553,22.065 C6.553,22.065 6.555,23.567 6.555,23.567 C6.555,23.567 6.555,22.065 6.555,22.065 C6.555,22.065 6.553,22.065 6.553,22.065 ZM7.310,16.009 C6.989,16.009 6.906,16.049 6.897,16.053 C6.897,16.053 3.255,18.740 3.255,18.740 C3.028,18.910 2.993,19.144 2.993,19.267 C2.993,19.389 3.028,19.622 3.265,19.800 C3.265,19.800 6.685,22.057 6.685,22.057 C6.711,22.054 6.737,22.051 6.764,22.048 C6.943,22.029 7.126,22.013 7.310,22.013 C7.310,22.013 23.906,22.013 23.906,22.013 C23.906,22.013 23.906,16.009 23.906,16.009 C23.906,16.009 7.310,16.009 7.310,16.009 Z" id="path-6" class="cls-7" fill-rule="evenodd"/>
    <path d="M25.406,42.027 C25.406,42.027 7.310,42.027 7.310,42.027 C6.532,42.027 5.748,41.761 5.102,41.276 C5.102,41.276 1.462,38.530 1.462,38.530 C0.529,37.830 -0.007,36.751 -0.007,35.574 C-0.007,34.396 0.529,33.318 1.465,32.615 C1.465,32.615 5.092,29.849 5.092,29.849 C5.830,29.295 6.574,29.018 7.310,29.018 C7.310,29.018 25.406,29.018 25.406,29.018 C26.235,29.018 26.906,29.690 26.906,30.519 C26.906,30.519 26.906,40.526 26.906,40.526 C26.906,41.356 26.235,42.027 25.406,42.027 ZM7.310,32.020 C7.279,32.024 7.132,32.071 6.901,32.244 C6.901,32.244 3.274,35.010 3.274,35.010 C3.028,35.195 2.993,35.442 2.993,35.574 C2.993,35.705 3.028,35.952 3.265,36.130 C3.265,36.130 6.905,38.876 6.905,38.876 C7.031,38.972 7.177,39.025 7.310,39.025 C7.310,39.025 23.906,39.025 23.906,39.025 C23.906,39.025 23.906,32.020 23.906,32.020 C23.906,32.020 7.310,32.020 7.310,32.020 Z" id="path-7" class="cls-7" fill-rule="evenodd"/>
    <path d="M34.406,63.042 C34.406,63.042 28.406,63.042 28.406,63.042 C26.476,63.042 24.906,61.471 24.906,59.540 C24.906,59.540 24.906,3.500 24.906,3.500 C24.906,1.569 26.476,-0.002 28.406,-0.002 C28.406,-0.002 34.406,-0.002 34.406,-0.002 C36.336,-0.002 37.906,1.569 37.906,3.500 C37.906,3.500 37.906,59.540 37.906,59.540 C37.906,61.471 36.336,63.042 34.406,63.042 ZM28.406,3.000 C28.130,3.000 27.906,3.224 27.906,3.500 C27.906,3.500 27.906,59.540 27.906,59.540 C27.906,59.816 28.130,60.040 28.406,60.040 C28.406,60.040 34.406,60.040 34.406,60.040 C34.682,60.040 34.906,59.816 34.906,59.540 C34.906,59.540 34.906,3.500 34.906,3.500 C34.906,3.224 34.682,3.000 34.406,3.000 C34.406,3.000 28.406,3.000 28.406,3.000 Z" id="path-8" class="cls-7" fill-rule="evenodd"/>
  </g>
</svg>
