<svg xmlns="http://www.w3.org/2000/svg" xmlns:xlink="http://www.w3.org/1999/xlink" preserveAspectRatio="xMidYMid" width="50" height="64" viewBox="0 0 50 64">
  <defs>
    <style>

      .cls-3 {
        fill: #e56a77;
      }

      .cls-4 {
        fill: #81bda4;
      }

      .cls-5 {
        fill: #000000;
      }
    </style>
  </defs>
  <g id="group-2svg">
    <path d="M34.934,24.033 C32.227,24.033 29.694,24.771 27.520,26.054 C25.346,24.771 22.813,24.033 20.106,24.033 C12.036,24.033 5.493,30.575 5.493,38.646 C5.493,46.717 12.036,63.485 20.106,63.485 C22.813,63.485 25.346,62.746 27.520,61.464 C29.694,62.746 32.227,63.485 34.934,63.485 C43.005,63.485 49.547,46.717 49.547,38.646 C49.547,30.575 43.005,24.033 34.934,24.033 Z" id="path-1" class="cls-3" fill-rule="evenodd"/>
    <path d="M27.410,24.401 C27.410,24.401 20.873,17.082 30.612,12.271 C40.351,7.459 36.909,3.485 36.909,3.485 C36.909,3.485 51.245,16.110 36.305,21.656 C36.305,21.656 31.517,23.309 27.410,24.401 Z" id="path-2" class="cls-4" fill-rule="evenodd"/>
    <path d="M30.934,62.985 C28.349,62.985 25.804,62.363 23.520,61.178 C21.237,62.363 18.691,62.985 16.106,62.985 C6.959,62.985 -0.007,45.431 -0.007,36.646 C-0.007,27.761 7.222,20.533 16.106,20.533 C18.691,20.533 21.237,21.155 23.520,22.340 C25.804,21.155 28.349,20.533 30.934,20.533 C39.819,20.533 47.047,27.761 47.047,36.646 C47.047,45.431 40.081,62.985 30.934,62.985 ZM23.520,57.964 C23.784,57.964 24.047,58.033 24.282,58.172 C26.293,59.358 28.593,59.985 30.934,59.985 C37.843,59.985 44.047,44.133 44.047,36.646 C44.047,29.415 38.165,23.533 30.934,23.533 C28.593,23.533 26.293,24.160 24.282,25.346 C23.811,25.624 23.227,25.624 22.758,25.346 C20.747,24.160 18.447,23.533 16.106,23.533 C8.876,23.533 2.993,29.415 2.993,36.646 C2.993,44.133 9.197,59.985 16.106,59.985 C18.447,59.985 20.747,59.358 22.758,58.172 C22.993,58.033 23.256,57.964 23.520,57.964 Z" id="path-3" class="cls-5" fill-rule="evenodd"/>
    <path d="M23.410,23.900 C22.989,23.900 22.580,23.723 22.291,23.400 C22.161,23.253 19.097,19.766 19.896,15.639 C20.426,12.907 22.461,10.648 25.947,8.926 C30.655,6.600 31.725,4.698 31.943,3.771 C32.131,2.971 31.787,2.487 31.747,2.434 C31.281,1.820 31.340,0.933 31.904,0.408 C32.469,-0.117 33.322,-0.151 33.900,0.360 C34.218,0.639 41.664,7.283 40.475,13.695 C39.877,16.922 37.304,19.401 32.827,21.062 C32.597,21.143 27.907,22.757 23.795,23.850 C23.668,23.884 23.539,23.900 23.410,23.900 ZM34.540,5.426 C33.583,7.625 31.147,9.703 27.276,11.616 C24.675,12.901 23.183,14.446 22.841,16.209 C22.494,18.003 23.387,19.744 24.002,20.684 C27.763,19.634 31.772,18.253 31.816,18.238 C35.201,16.981 37.133,15.265 37.525,13.148 C37.996,10.613 36.295,7.646 34.540,5.426 Z" id="path-4" class="cls-5" fill-rule="evenodd"/>
    <path d="M23.409,23.900 C23.126,23.900 22.841,23.821 22.587,23.654 C21.895,23.200 21.702,22.270 22.156,21.578 C22.323,21.323 26.306,15.297 30.759,12.880 C31.487,12.484 32.397,12.755 32.793,13.482 C33.188,14.211 32.918,15.121 32.190,15.516 C28.404,17.572 24.701,23.167 24.664,23.223 C24.376,23.662 23.897,23.900 23.409,23.900 Z" id="path-5" class="cls-5" fill-rule="evenodd"/>
    <path d="M27.449,45.730 C27.449,45.730 27.268,37.816 27.268,37.816 C27.268,37.816 31.295,44.632 31.295,44.632 C31.875,45.615 31.550,46.882 30.567,47.463 C29.584,48.043 28.316,47.718 27.736,46.735 C27.551,46.421 27.458,46.070 27.449,45.730 Z" id="path-6" class="cls-5" fill-rule="evenodd"/>
    <path d="M17.979,44.632 C17.979,44.632 22.006,37.816 22.006,37.816 C22.006,37.816 21.825,45.730 21.825,45.730 C21.799,46.872 20.853,47.776 19.711,47.750 C18.570,47.724 17.666,46.777 17.692,45.636 C17.700,45.272 17.807,44.925 17.979,44.632 Z" id="path-7" class="cls-5" fill-rule="evenodd"/>
  </g>
</svg>
