<svg xmlns="http://www.w3.org/2000/svg" xmlns:xlink="http://www.w3.org/1999/xlink" preserveAspectRatio="xMidYMid" width="67" height="66" viewBox="0 0 67 66">
  <defs>
    <style>

      .cls-3 {
        fill: #ff917b;
      }

      .cls-4 {
        fill: #81bda4;
      }

      .cls-5 {
        fill: #edc951;
      }

      .cls-9 {
        fill: #000000;
      }
    </style>
  </defs>
  <g id="group-5svg">
    <path d="M61.000,54.045 C61.000,54.045 12.000,54.045 12.000,54.045 C12.000,54.045 12.000,28.132 12.000,28.132 C12.000,14.591 24.030,4.010 37.560,4.010 C37.560,4.010 37.468,4.010 37.468,4.010 C50.999,4.010 61.000,14.591 61.000,28.132 C61.000,28.132 61.000,54.045 61.000,54.045 Z" id="path-1" class="cls-3" fill-rule="evenodd"/>
    <path d="M67.000,65.053 C67.000,65.053 67.000,61.050 67.000,61.050 C67.000,61.050 61.000,61.050 61.000,61.050 C61.000,61.050 61.000,58.048 61.000,58.048 C61.000,58.048 12.000,58.048 12.000,58.048 C12.000,58.048 12.000,61.050 12.000,61.050 C12.000,61.050 6.000,61.050 6.000,61.050 C6.000,61.050 6.000,65.053 6.000,65.053 C6.000,65.053 67.000,65.053 67.000,65.053 Z" id="path-2" class="cls-4" fill-rule="evenodd"/>
    <path d="M19.000,31.029 C19.000,31.029 19.000,21.022 19.000,21.022 C19.000,21.022 33.000,21.022 33.000,21.022 C33.000,21.022 33.000,31.029 33.000,31.029 C33.000,31.029 19.000,31.029 19.000,31.029 Z" id="path-3" class="cls-5" fill-rule="evenodd"/>
    <path d="M39.000,31.029 C39.000,31.029 39.000,21.022 39.000,21.022 C39.000,21.022 54.000,21.022 54.000,21.022 C54.000,21.022 54.000,31.029 54.000,31.029 C54.000,31.029 39.000,31.029 39.000,31.029 Z" id="path-4" class="cls-5" fill-rule="evenodd"/>
    <path d="M19.000,47.040 C19.000,47.040 19.000,37.033 19.000,37.033 C19.000,37.033 33.000,37.033 33.000,37.033 C33.000,37.033 33.000,47.040 33.000,47.040 C33.000,47.040 19.000,47.040 19.000,47.040 Z" id="path-5" class="cls-5" fill-rule="evenodd"/>
    <path d="M39.000,47.040 C39.000,47.040 39.000,37.033 39.000,37.033 C39.000,37.033 54.000,37.033 54.000,37.033 C54.000,37.033 54.000,47.040 54.000,47.040 C54.000,47.040 39.000,47.040 39.000,47.040 Z" id="path-6" class="cls-5" fill-rule="evenodd"/>
    <path d="M28.500,30.028 C28.500,30.028 14.500,30.028 14.500,30.028 C13.672,30.028 13.000,29.356 13.000,28.527 C13.000,28.527 13.000,18.520 13.000,18.520 C13.000,17.692 13.672,17.019 14.500,17.019 C14.500,17.019 28.500,17.019 28.500,17.019 C29.328,17.019 30.000,17.692 30.000,18.520 C30.000,18.520 30.000,28.527 30.000,28.527 C30.000,29.356 29.328,30.028 28.500,30.028 ZM16.000,27.026 C16.000,27.026 27.000,27.026 27.000,27.026 C27.000,27.026 27.000,20.021 27.000,20.021 C27.000,20.021 16.000,20.021 16.000,20.021 C16.000,20.021 16.000,27.026 16.000,27.026 Z" id="path-7" class="cls-9" fill-rule="evenodd"/>
    <path d="M49.500,30.028 C49.500,30.028 34.500,30.028 34.500,30.028 C33.672,30.028 33.000,29.356 33.000,28.527 C33.000,28.527 33.000,18.520 33.000,18.520 C33.000,17.692 33.672,17.019 34.500,17.019 C34.500,17.019 49.500,17.019 49.500,17.019 C50.328,17.019 51.000,17.692 51.000,18.520 C51.000,18.520 51.000,28.527 51.000,28.527 C51.000,29.356 50.328,30.028 49.500,30.028 ZM36.000,27.026 C36.000,27.026 48.000,27.026 48.000,27.026 C48.000,27.026 48.000,20.021 48.000,20.021 C48.000,20.021 36.000,20.021 36.000,20.021 C36.000,20.021 36.000,27.026 36.000,27.026 Z" id="path-8" class="cls-9" fill-rule="evenodd"/>
    <path d="M28.500,46.039 C28.500,46.039 14.500,46.039 14.500,46.039 C13.672,46.039 13.000,45.367 13.000,44.538 C13.000,44.538 13.000,34.532 13.000,34.532 C13.000,33.703 13.672,33.030 14.500,33.030 C14.500,33.030 28.500,33.030 28.500,33.030 C29.328,33.030 30.000,33.703 30.000,34.532 C30.000,34.532 30.000,44.538 30.000,44.538 C30.000,45.367 29.328,46.039 28.500,46.039 ZM16.000,43.037 C16.000,43.037 27.000,43.037 27.000,43.037 C27.000,43.037 27.000,36.033 27.000,36.033 C27.000,36.033 16.000,36.033 16.000,36.033 C16.000,36.033 16.000,43.037 16.000,43.037 Z" id="path-9" class="cls-9" fill-rule="evenodd"/>
    <path d="M49.500,46.039 C49.500,46.039 34.500,46.039 34.500,46.039 C33.672,46.039 33.000,45.367 33.000,44.538 C33.000,44.538 33.000,34.532 33.000,34.532 C33.000,33.703 33.672,33.030 34.500,33.030 C34.500,33.030 49.500,33.030 49.500,33.030 C50.328,33.030 51.000,33.703 51.000,34.532 C51.000,34.532 51.000,44.538 51.000,44.538 C51.000,45.367 50.328,46.039 49.500,46.039 ZM36.000,43.037 C36.000,43.037 48.000,43.037 48.000,43.037 C48.000,43.037 48.000,36.033 48.000,36.033 C48.000,36.033 36.000,36.033 36.000,36.033 C36.000,36.033 36.000,43.037 36.000,43.037 Z" id="path-10" class="cls-9" fill-rule="evenodd"/>
    <path d="M56.500,53.044 C56.500,53.044 7.500,53.044 7.500,53.044 C6.672,53.044 6.000,52.372 6.000,51.543 C6.000,51.543 6.000,26.130 6.000,26.130 C6.000,12.022 18.100,0.076 32.437,0.008 C32.455,0.008 32.472,0.008 32.486,0.008 C32.496,0.008 32.552,0.012 32.560,0.008 C32.571,0.008 32.582,0.008 32.592,0.008 C46.849,0.078 58.000,11.537 58.000,26.130 C58.000,26.130 58.000,51.543 58.000,51.543 C58.000,52.372 57.328,53.044 56.500,53.044 ZM9.000,50.042 C9.000,50.042 55.000,50.042 55.000,50.042 C55.000,50.042 55.000,26.130 55.000,26.130 C55.000,13.190 45.122,3.034 32.512,3.010 C19.769,3.034 9.000,13.622 9.000,26.130 C9.000,26.130 9.000,50.042 9.000,50.042 Z" id="path-11" class="cls-9" fill-rule="evenodd"/>
    <path d="M62.500,64.052 C62.500,64.052 1.500,64.052 1.500,64.052 C0.672,64.052 -0.000,63.380 -0.000,62.551 C-0.000,62.551 -0.000,58.548 -0.000,58.548 C-0.000,57.719 0.672,57.047 1.500,57.047 C1.500,57.047 6.000,57.047 6.000,57.047 C6.000,57.047 6.000,55.546 6.000,55.546 C6.000,54.717 6.672,54.045 7.500,54.045 C7.500,54.045 56.500,54.045 56.500,54.045 C57.328,54.045 58.000,54.717 58.000,55.546 C58.000,55.546 58.000,57.047 58.000,57.047 C58.000,57.047 62.500,57.047 62.500,57.047 C63.328,57.047 64.000,57.719 64.000,58.548 C64.000,58.548 64.000,62.551 64.000,62.551 C64.000,63.380 63.328,64.052 62.500,64.052 ZM3.000,61.050 C3.000,61.050 61.000,61.050 61.000,61.050 C61.000,61.050 61.000,60.049 61.000,60.049 C61.000,60.049 56.500,60.049 56.500,60.049 C55.672,60.049 55.000,59.377 55.000,58.548 C55.000,58.548 55.000,57.047 55.000,57.047 C55.000,57.047 9.000,57.047 9.000,57.047 C9.000,57.047 9.000,58.548 9.000,58.548 C9.000,59.377 8.328,60.049 7.500,60.049 C7.500,60.049 3.000,60.049 3.000,60.049 C3.000,60.049 3.000,61.050 3.000,61.050 Z" id="path-12" class="cls-9" fill-rule="evenodd"/>
  </g>
</svg>
