<svg xmlns="http://www.w3.org/2000/svg" xmlns:xlink="http://www.w3.org/1999/xlink" preserveAspectRatio="xMidYMid" width="64" height="64" viewBox="0 0 64 64">
  <defs>
    <style>

      .cls-3 {
        fill: #edc951;
      }

      .cls-4 {
        fill: #000000;
      }
    </style>
  </defs>
  <g id="group-4svg">
    <path d="M24.889,63.173 C24.889,63.173 39.118,51.014 39.118,51.014 C39.897,50.348 40.892,49.987 41.917,49.998 C41.917,49.998 45.502,49.798 45.502,49.798 C62.310,49.798 62.793,37.788 62.445,37.788 C62.445,37.788 48.795,37.788 48.795,37.788 C47.854,37.788 46.938,37.714 46.195,37.136 C46.195,37.136 43.217,35.124 43.217,35.124 C42.184,34.322 41.344,33.206 41.344,31.898 C41.344,31.898 41.344,24.773 41.344,24.773 C41.344,23.700 41.987,22.666 42.720,21.881 C42.720,21.881 46.065,18.283 46.065,18.283 C46.866,17.425 48.106,16.794 49.280,16.794 C49.280,16.794 62.445,16.794 62.445,16.794 C62.843,16.794 63.205,16.714 63.387,16.367 C63.569,16.015 63.540,15.661 63.312,15.339 C59.312,9.670 52.823,6.454 45.502,6.454 C36.344,6.454 28.101,12.480 24.986,21.421 C24.910,21.640 24.729,22.162 24.316,26.680 C24.086,29.204 22.826,31.576 20.862,33.177 C20.862,33.177 3.506,47.350 3.506,47.350 C3.506,47.350 24.889,63.173 24.889,63.173 Z" id="path-1" class="cls-3" fill-rule="evenodd"/>
    <path d="M22.890,59.676 C22.466,59.676 22.045,59.497 21.749,59.151 C21.210,58.521 21.285,57.575 21.915,57.036 C21.915,57.036 36.143,44.878 36.143,44.878 C37.196,43.978 38.545,43.520 39.933,43.505 C39.933,43.505 43.521,43.550 43.521,43.550 C49.410,43.550 53.778,42.067 56.485,39.141 C57.940,37.568 58.582,35.892 58.846,34.789 C58.846,34.789 46.795,34.789 46.795,34.789 C45.540,34.789 44.292,34.357 43.281,33.571 C43.281,33.571 40.541,31.425 40.541,31.425 C39.146,30.341 38.344,28.690 38.344,26.899 C38.344,26.899 38.344,19.774 38.344,19.774 C38.344,18.320 38.872,16.984 39.873,15.912 C39.873,15.912 43.092,12.504 43.092,12.504 C44.121,11.404 45.610,10.795 47.280,10.795 C47.280,10.795 59.735,10.795 59.735,10.795 C55.996,5.826 50.115,2.991 43.502,2.991 C34.983,2.991 27.308,8.594 24.403,16.933 C24.343,17.104 24.167,17.919 23.810,21.827 C23.543,24.750 22.085,27.489 19.810,29.344 C19.810,29.344 2.454,43.515 2.454,43.515 C1.811,44.039 0.867,43.941 0.344,43.302 C-0.181,42.659 -0.085,41.715 0.557,41.191 C0.557,41.191 17.914,27.021 17.914,27.021 C19.569,25.671 20.628,23.680 20.822,21.555 C21.252,16.857 21.443,16.309 21.570,15.947 C24.894,6.403 33.708,-0.008 43.502,-0.008 C51.315,-0.008 58.253,3.474 62.538,9.548 C63.085,10.320 63.160,11.457 62.719,12.308 C62.244,13.213 61.353,13.794 60.445,13.794 C60.445,13.794 47.280,13.794 47.280,13.794 C46.692,13.794 45.869,13.927 45.279,14.558 C45.279,14.558 42.061,17.965 42.061,17.965 C41.587,18.472 41.344,19.083 41.344,19.774 C41.344,19.774 41.344,26.899 41.344,26.899 C41.344,27.758 41.724,28.546 42.387,29.060 C42.387,29.060 45.127,31.206 45.127,31.206 C45.610,31.581 46.204,31.790 46.795,31.790 C46.795,31.790 60.445,31.790 60.445,31.790 C60.605,31.790 62.009,31.843 62.009,33.655 C62.009,35.097 61.323,38.288 58.752,41.107 C55.458,44.718 50.327,46.549 43.502,46.549 C43.502,46.549 39.899,46.504 39.899,46.504 C39.189,46.517 38.593,46.730 38.092,47.158 C38.092,47.158 23.864,59.317 23.864,59.317 C23.581,59.558 23.234,59.676 22.890,59.676 Z" id="path-2" class="cls-4" fill-rule="evenodd"/>
  </g>
</svg>
