<svg xmlns="http://www.w3.org/2000/svg" xmlns:xlink="http://www.w3.org/1999/xlink" preserveAspectRatio="xMidYMid" width="66" height="66" viewBox="0 0 66 66">
  <defs>
    <style>

      .cls-3 {
        fill: #edc951;
      }

      .cls-6 {
        fill: #8b71b5;
      }

      .cls-8 {
        fill: #000000;
      }

      .cls-13 {
        fill: #e56a77;
      }
    </style>
  </defs>
  <g id="group-73svg">
    <path d="M57.036,62.000 C57.036,62.000 65.075,62.000 65.075,62.000 C65.075,54.000 58.941,47.024 51.065,46.172 C54.992,45.380 57.949,41.833 57.949,37.673 C57.949,32.927 53.635,29.000 48.890,29.000 C48.890,29.000 40.812,29.000 40.812,29.000 C40.812,29.000 40.812,62.000 40.812,62.000 C40.812,62.000 57.036,62.000 57.036,62.000 Z" id="path-1" class="cls-3" fill-rule="evenodd"/>
    <path d="M28.862,48.268 C26.518,46.912 23.896,46.281 20.961,46.281 C12.348,46.281 5.491,53.000 5.491,62.000 C5.491,62.000 16.812,62.000 16.812,62.000 C16.812,62.000 16.812,62.000 16.812,62.000 " id="path-2" class="cls-3" fill-rule="evenodd"/>
    <path d="M27.114,30.685 C25.571,29.144 23.440,28.189 21.086,28.189 C16.377,28.189 12.560,32.006 12.560,36.714 C12.560,41.423 16.377,45.239 21.086,45.239 C23.991,45.239 26.558,43.786 28.097,41.566 C28.097,41.566 28.097,41.566 28.097,41.566 " id="path-3" class="cls-3" fill-rule="evenodd"/>
    <path d="M18.937,65.254 C18.937,54.832 27.387,46.383 37.809,46.383 C48.231,46.383 56.681,54.832 56.681,65.254 C56.681,65.254 56.681,65.254 56.681,65.254 " id="path-4" class="cls-6" fill-rule="evenodd"/>
    <path d="M48.125,35.506 C48.125,41.203 43.507,45.822 37.809,45.822 C32.111,45.822 27.493,41.203 27.493,35.506 C27.493,29.808 32.111,25.189 37.809,25.189 C43.507,25.189 48.125,29.808 48.125,35.506 Z" id="path-5" class="cls-3" fill-rule="evenodd"/>
    <path d="M52.681,64.754 C51.852,64.754 51.181,64.082 51.181,63.254 C51.181,53.676 43.388,45.883 33.809,45.883 C24.230,45.883 16.437,53.676 16.437,63.254 C16.437,64.082 15.766,64.754 14.937,64.754 C14.109,64.754 13.437,64.082 13.437,63.254 C13.437,52.021 22.576,42.883 33.809,42.883 C45.042,42.883 54.181,52.021 54.181,63.254 C54.181,64.082 53.509,64.754 52.681,64.754 Z" id="path-6" class="cls-8" fill-rule="evenodd"/>
    <path d="M33.809,45.322 C27.293,45.322 21.993,40.021 21.993,33.506 C21.993,26.990 27.293,21.689 33.809,21.689 C40.325,21.689 45.625,26.990 45.625,33.506 C45.625,40.021 40.325,45.322 33.809,45.322 ZM33.809,24.689 C28.948,24.689 24.993,28.644 24.993,33.506 C24.993,38.367 28.948,42.322 33.809,42.322 C38.670,42.322 42.625,38.367 42.625,33.506 C42.625,28.644 38.670,24.689 33.809,24.689 Z" id="path-7" class="cls-8" fill-rule="evenodd"/>
    <path d="M12.812,61.000 C12.812,61.000 1.491,61.000 1.491,61.000 C0.663,61.000 -0.009,60.328 -0.009,59.500 C-0.009,49.755 7.287,42.406 16.961,42.406 C20.048,42.406 22.959,43.185 25.613,44.721 C26.331,45.135 26.576,46.053 26.161,46.769 C25.746,47.487 24.828,47.731 24.111,47.316 C21.919,46.049 19.514,45.406 16.961,45.406 C9.500,45.406 3.759,50.723 3.062,58.000 C3.062,58.000 12.812,58.000 12.812,58.000 C13.641,58.000 14.312,58.672 14.312,59.500 C14.312,60.328 13.641,61.000 12.812,61.000 Z" id="path-8" class="cls-8" fill-rule="evenodd"/>
    <path d="M17.086,44.739 C11.558,44.739 7.061,40.242 7.061,34.715 C7.061,29.186 11.558,24.689 17.086,24.689 C19.764,24.689 22.281,25.732 24.175,27.625 C24.761,28.211 24.761,29.161 24.175,29.746 C23.589,30.332 22.640,30.332 22.054,29.746 C20.726,28.420 18.962,27.689 17.086,27.689 C13.212,27.689 10.061,30.840 10.061,34.715 C10.061,38.588 13.212,41.739 17.086,41.739 C19.389,41.739 21.549,40.607 22.864,38.711 C23.335,38.031 24.269,37.861 24.952,38.334 C25.632,38.807 25.801,39.740 25.329,40.422 C23.454,43.125 20.373,44.739 17.086,44.739 Z" id="path-9" class="cls-8" fill-rule="evenodd"/>
    <path d="M61.074,61.000 C61.074,61.000 52.812,61.000 52.812,61.000 C51.984,61.000 51.312,60.328 51.312,59.500 C51.312,58.672 51.984,58.000 52.812,58.000 C52.812,58.000 59.492,58.000 59.492,58.000 C58.778,51.519 53.505,46.128 46.904,45.414 C46.168,45.334 45.600,44.730 45.566,43.990 C45.533,43.252 46.043,42.598 46.768,42.452 C50.060,41.787 52.449,38.873 52.449,35.522 C52.449,31.748 48.864,28.435 44.778,28.435 C43.949,28.435 43.278,27.765 43.278,26.936 C43.278,26.107 43.949,25.435 44.778,25.435 C50.562,25.435 55.449,30.055 55.449,35.522 C55.449,38.702 53.940,41.605 51.547,43.469 C58.059,45.957 62.574,52.234 62.574,59.500 C62.574,60.328 61.903,61.000 61.074,61.000 Z" id="path-10" class="cls-8" fill-rule="evenodd"/>
    <path d="M63.994,4.000 C63.994,4.000 50.075,4.000 50.075,4.000 C49.083,4.000 48.279,4.803 48.279,5.795 C48.279,5.795 48.286,18.073 48.291,18.151 C48.291,18.151 48.279,27.198 48.279,27.198 C48.279,27.198 52.407,22.000 52.407,22.000 C52.407,22.000 62.198,22.000 62.198,22.000 C64.182,22.000 64.812,19.900 64.812,17.916 C64.812,17.916 64.812,5.793 64.812,5.793 C64.812,4.802 64.985,4.000 63.994,4.000 Z" id="path-11" class="cls-13" fill-rule="evenodd"/>
    <path d="M45.278,26.387 C45.118,26.387 44.955,26.360 44.796,26.307 C44.187,26.100 43.789,25.527 43.790,24.885 C43.790,24.885 43.812,16.023 43.812,16.023 C43.812,16.025 43.812,16.027 43.812,16.027 C43.812,16.027 43.796,15.424 43.790,3.545 C43.790,1.656 45.319,-0.000 47.075,-0.000 C47.075,-0.000 60.994,-0.000 60.994,-0.000 C62.680,-0.000 63.812,1.524 63.812,3.793 C63.812,3.793 63.812,15.916 63.812,15.916 C63.812,18.862 61.872,21.000 59.198,21.000 C59.198,21.000 50.147,21.000 50.147,21.000 C50.147,21.000 46.469,25.799 46.469,25.799 C46.180,26.176 45.736,26.387 45.278,26.387 ZM47.075,3.000 C46.990,3.029 46.779,3.303 46.779,3.545 C46.781,6.904 46.786,15.691 46.790,15.998 C46.790,15.998 46.785,20.455 46.785,20.455 C46.785,20.455 48.216,18.588 48.216,18.588 C48.500,18.217 48.940,18.000 49.407,18.000 C49.407,18.000 59.198,18.000 59.198,18.000 C60.696,18.000 60.812,16.405 60.812,15.916 C60.812,15.916 60.812,3.793 60.812,3.793 C60.812,3.438 60.755,3.164 60.701,3.000 C60.701,3.000 47.075,3.000 47.075,3.000 Z" id="path-12" class="cls-8" fill-rule="evenodd"/>
    <path d="M56.312,13.500 C55.484,13.500 54.812,12.828 54.812,12.000 C54.812,12.000 54.812,9.000 54.812,9.000 C54.812,8.172 55.484,7.500 56.312,7.500 C57.141,7.500 57.812,8.172 57.812,9.000 C57.812,9.000 57.812,12.000 57.812,12.000 C57.812,12.828 57.141,13.500 56.312,13.500 Z" id="path-13" class="cls-8" fill-rule="evenodd"/>
    <path d="M50.312,13.500 C49.484,13.500 48.812,12.828 48.812,12.000 C48.812,12.000 48.812,9.000 48.812,9.000 C48.812,8.172 49.484,7.500 50.312,7.500 C51.141,7.500 51.812,8.172 51.812,9.000 C51.812,9.000 51.812,12.000 51.812,12.000 C51.812,12.828 51.141,13.500 50.312,13.500 Z" id="path-14" class="cls-8" fill-rule="evenodd"/>
  </g>
</svg>
