<svg xmlns="http://www.w3.org/2000/svg" xmlns:xlink="http://www.w3.org/1999/xlink" preserveAspectRatio="xMidYMid" width="62" height="64" viewBox="0 0 62 64">
  <defs>
    <style>

      .cls-3 {
        fill: #53ecf4;
      }

      .cls-4 {
        fill: #edc951;
      }

      .cls-7 {
        fill: #e56a77;
      }

      .cls-10 {
        fill: #000000;
      }
    </style>
  </defs>
  <g id="group-14svg">
    <path d="M61.623,31.588 C61.623,15.578 48.235,2.697 32.051,3.546 C17.886,4.289 6.282,15.901 5.539,30.076 C4.690,46.272 17.562,59.670 33.562,59.670 C33.657,59.670 33.814,59.454 33.814,59.454 C33.814,59.454 34.821,53.536 35.017,51.421 C35.341,47.905 37.596,45.053 40.266,47.576 C40.266,47.576 55.178,62.711 55.178,62.711 C57.802,64.732 61.602,62.868 61.604,59.554 C61.612,48.957 61.623,31.710 61.623,31.588 Z" id="path-1" class="cls-3" fill-rule="evenodd"/>
    <path d="M36.149,19.151 C36.149,21.323 34.389,23.084 32.218,23.084 C30.047,23.084 28.288,21.323 28.288,19.151 C28.288,16.978 30.047,15.217 32.218,15.217 C34.389,15.217 36.149,16.978 36.149,19.151 Z" id="path-2" class="cls-4" fill-rule="evenodd"/>
    <path d="M36.965,32.222 C36.965,34.395 35.206,36.156 33.035,36.156 C30.864,36.156 29.104,34.395 29.104,32.222 C29.104,30.049 30.864,28.288 33.035,28.288 C35.206,28.288 36.965,30.049 36.965,32.222 Z" id="path-3" class="cls-4" fill-rule="evenodd"/>
    <path d="M56.337,44.625 C56.337,46.797 54.577,48.559 52.407,48.559 C50.235,48.559 48.476,46.797 48.476,44.625 C48.476,42.452 50.235,40.691 52.407,40.691 C54.577,40.691 56.337,42.452 56.337,44.625 Z" id="path-4" class="cls-4" fill-rule="evenodd"/>
    <path d="M48.395,26.503 C48.395,28.676 46.635,30.437 44.464,30.437 C42.293,30.437 40.533,28.676 40.533,26.503 C40.533,24.331 42.293,22.570 44.464,22.570 C46.635,22.570 48.395,24.331 48.395,26.503 Z" id="path-5" class="cls-7" fill-rule="evenodd"/>
    <path d="M23.087,26.503 C23.087,28.676 21.327,30.437 19.156,30.437 C16.985,30.437 15.226,28.676 15.226,26.503 C15.226,24.331 16.985,22.570 19.156,22.570 C21.327,22.570 23.087,24.331 23.087,26.503 Z" id="path-6" class="cls-7" fill-rule="evenodd"/>
    <path d="M27.169,40.391 C27.169,42.564 25.409,44.325 23.238,44.325 C21.067,44.325 19.307,42.564 19.307,40.391 C19.307,38.219 21.067,36.458 23.238,36.458 C25.409,36.458 27.169,38.219 27.169,40.391 Z" id="path-7" class="cls-7" fill-rule="evenodd"/>
    <path d="M53.600,63.049 C53.600,63.049 53.599,63.049 53.599,63.049 C52.393,63.049 51.239,62.651 50.263,61.899 C50.209,61.857 50.158,61.812 50.110,61.764 C50.110,61.764 35.198,46.629 35.198,46.629 C34.865,46.316 34.507,46.115 34.254,46.115 C33.659,46.115 32.707,47.425 32.510,49.558 C32.312,51.705 31.334,57.460 31.292,57.704 C31.254,57.932 31.163,58.148 31.027,58.335 C30.526,59.025 29.954,59.170 29.561,59.170 C21.371,59.170 13.754,55.894 8.114,49.947 C2.478,44.003 -0.389,36.207 0.041,27.995 C0.822,13.103 13.091,0.826 27.972,0.045 C45.009,-0.848 59.123,12.747 59.123,29.587 C59.123,29.708 59.112,46.956 59.104,57.555 C59.102,60.584 56.633,63.049 53.600,63.049 ZM52.166,59.575 C52.597,59.884 53.090,60.046 53.599,60.046 C53.599,60.046 53.600,60.046 53.600,60.046 C54.830,60.046 56.103,59.114 56.104,57.552 C56.112,46.954 56.124,29.708 56.124,29.587 C56.124,14.455 43.437,2.243 28.129,3.044 C14.760,3.745 3.738,14.774 3.037,28.153 C2.650,35.533 5.226,42.539 10.291,47.880 C15.117,52.969 21.553,55.881 28.511,56.148 C28.807,54.361 29.384,50.785 29.523,49.282 C29.858,45.650 31.803,43.113 34.254,43.113 C35.310,43.113 36.333,43.574 37.296,44.484 C37.296,44.484 52.166,59.575 52.166,59.575 Z" id="path-8" class="cls-10" fill-rule="evenodd"/>
    <path d="M40.464,29.936 C37.469,29.936 35.033,27.499 35.033,24.502 C35.033,21.505 37.469,19.067 40.464,19.067 C43.458,19.067 45.895,21.505 45.895,24.502 C45.895,27.499 43.458,29.936 40.464,29.936 ZM40.464,22.069 C39.123,22.069 38.033,23.161 38.033,24.502 C38.033,25.843 39.123,26.934 40.464,26.934 C41.804,26.934 42.894,25.843 42.894,24.502 C42.894,23.161 41.804,22.069 40.464,22.069 Z" id="path-9" class="cls-10" fill-rule="evenodd"/>
    <path d="M15.156,29.936 C12.162,29.936 9.726,27.499 9.726,24.502 C9.726,21.505 12.162,19.067 15.156,19.067 C18.151,19.067 20.587,21.505 20.587,24.502 C20.587,27.499 18.151,29.936 15.156,29.936 ZM15.156,22.069 C13.816,22.069 12.726,23.161 12.726,24.502 C12.726,25.843 13.816,26.934 15.156,26.934 C16.497,26.934 17.587,25.843 17.587,24.502 C17.587,23.161 16.497,22.069 15.156,22.069 Z" id="path-10" class="cls-10" fill-rule="evenodd"/>
    <path d="M19.238,43.825 C16.244,43.825 13.807,41.387 13.807,38.390 C13.807,35.393 16.244,32.955 19.238,32.955 C22.233,32.955 24.669,35.393 24.669,38.390 C24.669,41.387 22.233,43.825 19.238,43.825 ZM19.238,35.957 C17.898,35.957 16.807,37.049 16.807,38.390 C16.807,39.731 17.898,40.822 19.238,40.822 C20.579,40.822 21.669,39.731 21.669,38.390 C21.669,37.049 20.579,35.957 19.238,35.957 Z" id="path-11" class="cls-10" fill-rule="evenodd"/>
    <path d="M28.218,22.584 C25.224,22.584 22.788,20.146 22.788,17.149 C22.788,14.153 25.224,11.714 28.218,11.714 C31.213,11.714 33.649,14.153 33.649,17.149 C33.649,20.146 31.213,22.584 28.218,22.584 ZM28.218,14.717 C26.878,14.717 25.788,15.808 25.788,17.149 C25.788,18.491 26.878,19.582 28.218,19.582 C29.559,19.582 30.649,18.491 30.649,17.149 C30.649,15.808 29.559,14.717 28.218,14.717 Z" id="path-12" class="cls-10" fill-rule="evenodd"/>
    <path d="M29.035,35.655 C26.040,35.655 23.603,33.217 23.603,30.221 C23.603,27.223 26.040,24.786 29.035,24.786 C32.029,24.786 34.465,27.223 34.465,30.221 C34.465,33.217 32.029,35.655 29.035,35.655 ZM29.035,27.788 C27.694,27.788 26.604,28.879 26.604,30.221 C26.604,31.561 27.694,32.653 29.035,32.653 C30.375,32.653 31.465,31.561 31.465,30.221 C31.465,28.879 30.375,27.788 29.035,27.788 Z" id="path-13" class="cls-10" fill-rule="evenodd"/>
    <path d="M48.406,48.058 C45.412,48.058 42.976,45.620 42.976,42.623 C42.976,39.627 45.412,37.189 48.406,37.189 C51.401,37.189 53.837,39.627 53.837,42.623 C53.837,45.620 51.401,48.058 48.406,48.058 ZM48.406,40.191 C47.066,40.191 45.976,41.282 45.976,42.623 C45.976,43.965 47.066,45.056 48.406,45.056 C49.747,45.056 50.837,43.965 50.837,42.623 C50.837,41.282 49.747,40.191 48.406,40.191 Z" id="path-14" class="cls-10" fill-rule="evenodd"/>
  </g>
</svg>
