<svg xmlns="http://www.w3.org/2000/svg" xmlns:xlink="http://www.w3.org/1999/xlink" preserveAspectRatio="xMidYMid" width="63" height="63" viewBox="0 0 63 63">
  <defs>
    <style>

      .cls-3 {
        fill: #81bda4;
      }

      .cls-4 {
        fill: #53ecf4;
      }

      .cls-5 {
        fill: #000000;
      }
    </style>
  </defs>
  <g id="group-16svg">
    <path d="M43.110,8.969 C51.724,17.588 51.724,31.564 43.110,40.183 C34.497,48.803 20.532,48.803 11.919,40.183 C3.306,31.564 3.306,17.588 11.919,8.969 C20.532,0.350 34.497,0.350 43.110,8.969 Z" id="path-1" class="cls-3" fill-rule="evenodd"/>
    <path d="M37.750,14.334 C43.402,19.991 43.402,29.162 37.750,34.818 C32.097,40.475 22.932,40.475 17.279,34.818 C11.627,29.162 11.627,19.991 17.279,14.334 C22.932,8.677 32.097,8.677 37.750,14.334 Z" id="path-2" class="cls-4" fill-rule="evenodd"/>
    <path d="M23.515,47.148 C17.223,47.148 11.307,44.696 6.858,40.244 C-2.326,31.053 -2.326,16.098 6.858,6.907 C11.307,2.455 17.223,0.003 23.515,0.003 C29.807,0.003 35.722,2.455 40.171,6.907 C49.355,16.098 49.355,31.053 40.171,40.244 C35.722,44.696 29.807,47.148 23.515,47.148 ZM23.515,3.005 C18.024,3.005 12.862,5.145 8.979,9.030 C0.965,17.051 0.965,30.100 8.979,38.121 C12.862,42.006 18.024,44.146 23.515,44.146 C29.005,44.146 34.167,42.006 38.050,38.121 C46.064,30.100 46.064,17.051 38.050,9.030 C34.167,5.145 29.005,3.005 23.515,3.005 Z" id="path-3" class="cls-5" fill-rule="evenodd"/>
    <path d="M23.515,39.562 C19.248,39.562 15.236,37.899 12.219,34.879 C5.991,28.646 5.991,18.505 12.219,12.272 C15.236,9.253 19.248,7.590 23.515,7.590 C27.782,7.590 31.793,9.253 34.810,12.272 C37.828,15.291 39.489,19.306 39.489,23.576 C39.489,27.845 37.828,31.860 34.810,34.879 C31.793,37.899 27.782,39.562 23.515,39.562 ZM23.515,10.592 C20.049,10.592 16.790,11.942 14.340,14.394 C9.281,19.457 9.281,27.694 14.340,32.756 C16.790,35.209 20.049,36.559 23.515,36.559 C26.980,36.559 30.238,35.209 32.689,32.756 C35.140,30.304 36.489,27.043 36.489,23.576 C36.489,20.107 35.140,16.847 32.689,14.394 C30.238,11.942 26.980,10.592 23.515,10.592 Z" id="path-4" class="cls-5" fill-rule="evenodd"/>
    <path d="M59.361,62.424 C58.593,62.424 57.825,62.131 57.240,61.545 C57.240,61.545 42.544,46.839 42.544,46.839 C41.372,45.666 41.372,43.765 42.544,42.593 C43.715,41.420 45.616,41.421 46.786,42.593 C46.786,42.593 61.482,57.299 61.482,57.299 C62.654,58.472 62.654,60.373 61.482,61.545 C60.896,62.131 60.128,62.424 59.361,62.424 Z" id="path-5" class="cls-5" fill-rule="evenodd"/>
  </g>
</svg>
