<svg xmlns="http://www.w3.org/2000/svg" xmlns:xlink="http://www.w3.org/1999/xlink" preserveAspectRatio="xMidYMid" width="60" height="66" viewBox="0 0 60 66">
  <defs>
    <style>

      .cls-3 {
        fill: #edc951;
      }

      .cls-4 {
        fill: #8b71b5;
      }

      .cls-5 {
        fill: #000000;
      }
    </style>
  </defs>
  <g id="group-74svg">
    <path d="M23.164,5.014 C23.164,5.014 47.664,5.014 47.664,5.014 C49.864,5.014 52.000,6.314 52.000,8.514 C52.000,8.514 52.000,60.518 52.000,60.518 C52.000,62.718 49.864,65.018 47.664,65.018 C47.664,65.018 10.665,65.018 10.665,65.018 C8.456,65.018 7.000,62.727 7.000,60.518 C7.000,60.518 7.000,24.584 7.000,24.584 C7.000,24.584 23.164,5.014 23.164,5.014 Z" id="path-1" class="cls-3" fill-rule="evenodd"/>
    <path d="M7.850,23.015 C7.850,23.015 19.165,23.015 19.165,23.015 C21.373,23.015 23.000,21.224 23.000,19.015 C23.000,19.015 23.000,4.514 23.000,4.514 C23.000,4.514 7.850,23.015 7.850,23.015 Z" id="path-2" class="cls-4" fill-rule="evenodd"/>
    <path d="M42.664,63.018 C42.664,63.018 5.665,63.018 5.665,63.018 C2.594,63.018 -0.000,60.499 -0.000,57.517 C-0.000,57.517 -0.000,21.584 -0.000,21.584 C-0.000,21.241 0.117,20.909 0.332,20.644 C0.332,20.644 16.497,0.573 16.497,0.573 C16.781,0.219 17.210,0.013 17.665,0.013 C17.665,0.013 42.664,0.013 42.664,0.013 C45.656,0.013 48.000,2.430 48.000,5.514 C48.000,5.514 48.000,57.517 48.000,57.517 C48.000,60.602 45.656,63.018 42.664,63.018 ZM3.000,22.114 C3.000,22.114 3.000,57.517 3.000,57.517 C3.000,58.849 4.245,60.018 5.665,60.018 C5.665,60.018 42.664,60.018 42.664,60.018 C43.996,60.018 45.000,58.942 45.000,57.517 C45.000,57.517 45.000,5.514 45.000,5.514 C45.000,4.089 43.996,3.013 42.664,3.013 C42.664,3.013 18.382,3.013 18.382,3.013 C18.382,3.013 3.000,22.114 3.000,22.114 Z" id="path-3" class="cls-5" fill-rule="evenodd"/>
    <path d="M13.128,22.015 C13.128,22.015 2.353,22.015 2.353,22.015 C1.775,22.015 1.248,21.683 0.999,21.162 C0.750,20.641 0.822,20.023 1.185,19.573 C1.185,19.573 16.332,0.787 16.332,0.787 C16.731,0.293 17.401,0.101 17.999,0.314 C18.599,0.525 19.000,1.092 19.000,1.728 C19.000,1.728 19.000,16.034 19.000,16.034 C19.000,19.108 16.146,22.015 13.128,22.015 ZM5.489,19.015 C5.489,19.015 13.128,19.015 13.128,19.015 C14.470,19.015 16.000,17.427 16.000,16.034 C16.000,16.034 16.000,5.979 16.000,5.979 C16.000,5.979 5.489,19.015 5.489,19.015 Z" id="path-4" class="cls-5" fill-rule="evenodd"/>
    <path d="M58.000,38.016 C58.000,40.225 56.209,42.016 54.000,42.016 C54.000,42.016 35.000,42.016 35.000,42.016 C32.791,42.016 31.000,40.225 31.000,38.016 C31.000,38.016 31.000,29.015 31.000,29.015 C31.000,26.806 32.791,25.015 35.000,25.015 C35.000,25.015 54.000,25.015 54.000,25.015 C56.209,25.015 58.000,26.806 58.000,29.015 C58.000,29.015 58.000,38.016 58.000,38.016 Z" id="path-5" class="cls-4" fill-rule="evenodd"/>
    <path d="M54.500,43.016 C54.500,43.016 35.500,43.016 35.500,43.016 C32.467,43.016 30.000,40.548 30.000,37.516 C30.000,37.516 30.000,28.515 30.000,28.515 C30.000,25.483 32.467,23.015 35.500,23.015 C35.500,23.015 54.500,23.015 54.500,23.015 C57.533,23.015 60.000,25.483 60.000,28.515 C60.000,28.515 60.000,37.516 60.000,37.516 C60.000,40.548 57.533,43.016 54.500,43.016 ZM35.500,26.015 C34.122,26.015 33.000,27.136 33.000,28.515 C33.000,28.515 33.000,37.516 33.000,37.516 C33.000,38.895 34.122,40.016 35.500,40.016 C35.500,40.016 54.500,40.016 54.500,40.016 C55.878,40.016 57.000,38.895 57.000,37.516 C57.000,37.516 57.000,28.515 57.000,28.515 C57.000,27.136 55.878,26.015 54.500,26.015 C54.500,26.015 35.500,26.015 35.500,26.015 Z" id="path-6" class="cls-5" fill-rule="evenodd"/>
    <path d="M39.484,35.863 C39.484,35.863 38.156,35.863 38.156,35.863 C38.156,35.863 38.156,37.889 38.156,37.889 C38.156,38.180 38.087,38.399 37.951,38.549 C37.814,38.698 37.642,38.774 37.433,38.774 C37.215,38.774 37.039,38.700 36.906,38.551 C36.772,38.403 36.706,38.186 36.706,37.899 C36.706,37.899 36.706,32.381 36.706,32.381 C36.706,32.062 36.779,31.834 36.925,31.697 C37.072,31.560 37.305,31.492 37.623,31.492 C37.623,31.492 39.484,31.492 39.484,31.492 C40.034,31.492 40.457,31.535 40.753,31.619 C41.046,31.701 41.299,31.836 41.513,32.025 C41.726,32.213 41.888,32.445 41.998,32.719 C42.109,32.992 42.165,33.299 42.165,33.641 C42.165,34.371 41.940,34.922 41.491,35.299 C41.041,35.674 40.373,35.863 39.484,35.863 ZM39.132,32.582 C39.132,32.582 38.156,32.582 38.156,32.582 C38.156,32.582 38.156,34.770 38.156,34.770 C38.156,34.770 39.132,34.770 39.132,34.770 C39.474,34.770 39.760,34.733 39.989,34.662 C40.219,34.590 40.394,34.473 40.514,34.311 C40.635,34.147 40.695,33.934 40.695,33.670 C40.695,33.355 40.602,33.098 40.416,32.898 C40.208,32.687 39.780,32.582 39.132,32.582 Z" id="path-7" class="cls-3" fill-rule="evenodd"/>
    <path d="M44.274,31.492 C44.274,31.492 46.164,31.492 46.164,31.492 C46.655,31.492 47.077,31.539 47.428,31.629 C47.780,31.721 48.099,31.890 48.385,32.143 C49.131,32.779 49.503,33.750 49.503,35.053 C49.503,35.483 49.466,35.875 49.391,36.229 C49.316,36.584 49.201,36.905 49.044,37.188 C48.888,37.473 48.688,37.729 48.444,37.953 C48.252,38.125 48.042,38.264 47.814,38.368 C47.586,38.473 47.341,38.545 47.079,38.588 C46.817,38.629 46.521,38.651 46.193,38.651 C46.193,38.651 44.303,38.651 44.303,38.651 C44.040,38.651 43.841,38.612 43.708,38.532 C43.574,38.451 43.487,38.340 43.446,38.194 C43.406,38.049 43.385,37.862 43.385,37.631 C43.385,37.631 43.385,32.381 43.385,32.381 C43.385,32.068 43.455,31.842 43.595,31.703 C43.735,31.562 43.961,31.492 44.274,31.492 ZM44.835,32.641 C44.835,32.641 44.835,37.498 44.835,37.498 C44.835,37.498 45.934,37.498 45.934,37.498 C46.175,37.498 46.364,37.492 46.500,37.479 C46.637,37.467 46.779,37.434 46.925,37.381 C47.072,37.330 47.199,37.256 47.306,37.162 C47.791,36.752 48.034,36.045 48.034,35.043 C48.034,34.336 47.927,33.807 47.714,33.455 C47.500,33.104 47.238,32.881 46.925,32.783 C46.613,32.687 46.235,32.641 45.792,32.641 C45.792,32.641 44.835,32.641 44.835,32.641 Z" id="path-8" class="cls-3" fill-rule="evenodd"/>
    <path d="M55.055,32.611 C55.055,32.611 52.199,32.611 52.199,32.611 C52.199,32.611 52.199,34.441 52.199,34.441 C52.199,34.441 54.586,34.441 54.586,34.441 C54.808,34.441 54.973,34.492 55.082,34.590 C55.191,34.690 55.246,34.822 55.246,34.988 C55.246,35.154 55.190,35.287 55.080,35.385 C54.969,35.483 54.805,35.531 54.586,35.531 C54.586,35.531 52.199,35.531 52.199,35.531 C52.199,35.531 52.199,37.889 52.199,37.889 C52.199,38.190 52.131,38.410 51.996,38.555 C51.861,38.701 51.687,38.774 51.476,38.774 C51.261,38.774 51.086,38.700 50.951,38.553 C50.816,38.407 50.749,38.186 50.749,37.889 C50.749,37.889 50.749,32.381 50.749,32.381 C50.749,32.174 50.779,32.002 50.841,31.871 C50.903,31.738 51.000,31.642 51.132,31.582 C51.264,31.523 51.432,31.492 51.637,31.492 C51.637,31.492 55.055,31.492 55.055,31.492 C55.286,31.492 55.458,31.543 55.570,31.646 C55.683,31.748 55.739,31.883 55.739,32.049 C55.739,32.219 55.683,32.353 55.570,32.457 C55.458,32.559 55.286,32.611 55.055,32.611 Z" id="path-9" class="cls-3" fill-rule="evenodd"/>
  </g>
</svg>
