<svg xmlns="http://www.w3.org/2000/svg" xmlns:xlink="http://www.w3.org/1999/xlink" preserveAspectRatio="xMidYMid" width="64" height="64" viewBox="0 0 64 64">
  <defs>
    <style>

      .cls-3 {
        fill: #81bda4;
      }

      .cls-4 {
        fill: #edc951;
      }

      .cls-5 {
        fill: #000000;
      }
    </style>
  </defs>
  <g id="group-3svg">
    <path d="M64.000,60.000 C64.000,62.209 62.209,64.000 60.000,64.000 C60.000,64.000 10.000,64.000 10.000,64.000 C7.791,64.000 6.000,62.209 6.000,60.000 C6.000,60.000 6.000,8.000 6.000,8.000 C6.000,5.791 7.791,4.000 10.000,4.000 C10.000,4.000 60.000,4.000 60.000,4.000 C62.209,4.000 64.000,5.791 64.000,8.000 C64.000,8.000 64.000,60.000 64.000,60.000 Z" id="path-1" class="cls-3" fill-rule="evenodd"/>
    <path d="M45.000,50.000 C45.000,52.209 43.209,54.000 41.000,54.000 C41.000,54.000 19.000,54.000 19.000,54.000 C16.791,54.000 15.000,52.209 15.000,50.000 C15.000,50.000 15.000,29.000 15.000,29.000 C15.000,26.791 16.791,25.000 19.000,25.000 C19.000,25.000 41.000,25.000 41.000,25.000 C43.209,25.000 45.000,26.791 45.000,29.000 C45.000,29.000 45.000,50.000 45.000,50.000 Z" id="path-2" class="cls-4" fill-rule="evenodd"/>
    <path d="M36.500,53.000 C36.500,53.000 14.500,53.000 14.500,53.000 C11.468,53.000 9.000,50.533 9.000,47.500 C9.000,47.500 9.000,26.500 9.000,26.500 C9.000,23.467 11.468,21.000 14.500,21.000 C14.500,21.000 36.500,21.000 36.500,21.000 C39.532,21.000 42.000,23.467 42.000,26.500 C42.000,26.500 42.000,47.500 42.000,47.500 C42.000,50.533 39.532,53.000 36.500,53.000 ZM14.500,24.000 C13.121,24.000 12.000,25.122 12.000,26.500 C12.000,26.500 12.000,47.500 12.000,47.500 C12.000,48.878 13.121,50.000 14.500,50.000 C14.500,50.000 36.500,50.000 36.500,50.000 C37.879,50.000 39.000,48.878 39.000,47.500 C39.000,47.500 39.000,26.500 39.000,26.500 C39.000,25.122 37.879,24.000 36.500,24.000 C36.500,24.000 14.500,24.000 14.500,24.000 Z" id="path-3" class="cls-5" fill-rule="evenodd"/>
    <path d="M55.500,63.000 C55.500,63.000 5.500,63.000 5.500,63.000 C2.468,63.000 -0.000,60.533 -0.000,57.500 C-0.000,57.500 -0.000,5.500 -0.000,5.500 C-0.000,2.467 2.468,-0.000 5.500,-0.000 C5.500,-0.000 55.500,-0.000 55.500,-0.000 C58.532,-0.000 61.000,2.467 61.000,5.500 C61.000,5.500 61.000,57.500 61.000,57.500 C61.000,60.533 58.532,63.000 55.500,63.000 ZM5.500,3.000 C4.121,3.000 3.000,4.122 3.000,5.500 C3.000,5.500 3.000,57.500 3.000,57.500 C3.000,58.878 4.121,60.000 5.500,60.000 C5.500,60.000 55.500,60.000 55.500,60.000 C56.879,60.000 58.000,58.878 58.000,57.500 C58.000,57.500 58.000,5.500 58.000,5.500 C58.000,4.122 56.879,3.000 55.500,3.000 C55.500,3.000 5.500,3.000 5.500,3.000 Z" id="path-4" class="cls-5" fill-rule="evenodd"/>
    <path d="M53.646,26.291 C53.646,27.720 52.488,28.877 51.060,28.877 C49.632,28.877 48.475,27.720 48.475,26.291 C48.475,24.863 49.632,23.705 51.060,23.705 C52.488,23.705 53.646,24.863 53.646,26.291 Z" id="path-5" class="cls-5" fill-rule="evenodd"/>
    <path d="M53.646,34.567 C53.646,35.995 52.488,37.153 51.060,37.153 C49.632,37.153 48.475,35.995 48.475,34.567 C48.475,33.139 49.632,31.981 51.060,31.981 C52.488,31.981 53.646,33.139 53.646,34.567 Z" id="path-6" class="cls-5" fill-rule="evenodd"/>
    <path d="M53.646,42.843 C53.646,44.271 52.488,45.429 51.060,45.429 C49.632,45.429 48.475,44.271 48.475,42.843 C48.475,41.414 49.632,40.257 51.060,40.257 C52.488,40.257 53.646,41.414 53.646,42.843 Z" id="path-7" class="cls-5" fill-rule="evenodd"/>
    <path d="M54.000,54.000 C54.000,54.000 46.000,54.000 46.000,54.000 C45.172,54.000 44.500,53.329 44.500,52.500 C44.500,51.671 45.172,51.000 46.000,51.000 C46.000,51.000 54.000,51.000 54.000,51.000 C54.828,51.000 55.500,51.671 55.500,52.500 C55.500,53.329 54.828,54.000 54.000,54.000 Z" id="path-8" class="cls-5" fill-rule="evenodd"/>
    <path d="M18.991,37.102 C18.614,37.102 18.238,36.960 17.949,36.681 C17.949,36.681 14.199,33.060 14.199,33.060 C13.604,32.485 13.587,31.535 14.162,30.939 C14.737,30.343 15.687,30.326 16.283,30.902 C16.283,30.902 19.096,33.617 19.096,33.617 C19.096,33.617 23.370,30.281 23.370,30.281 C23.959,29.821 24.799,29.864 25.337,30.387 C25.337,30.387 28.604,33.555 28.604,33.555 C28.604,33.555 32.220,30.342 32.220,30.342 C32.805,29.821 33.695,29.839 34.260,30.387 C34.260,30.387 38.526,34.525 38.526,34.525 C39.121,35.102 39.136,36.051 38.560,36.646 C37.981,37.241 37.033,37.255 36.438,36.678 C36.438,36.678 33.171,33.510 33.171,33.510 C33.171,33.510 29.557,36.723 29.557,36.723 C28.971,37.243 28.079,37.225 27.517,36.678 C27.517,36.678 24.186,33.449 24.186,33.449 C24.186,33.449 19.914,36.784 19.914,36.784 C19.642,36.997 19.316,37.102 18.991,37.102 Z" id="path-9" class="cls-5" fill-rule="evenodd"/>
    <path d="M18.991,46.412 C18.614,46.412 18.238,46.270 17.949,45.991 C17.949,45.991 14.199,42.370 14.199,42.370 C13.604,41.795 13.587,40.845 14.162,40.249 C14.737,39.654 15.687,39.637 16.283,40.212 C16.283,40.212 19.096,42.927 19.096,42.927 C19.096,42.927 23.370,39.591 23.370,39.591 C23.959,39.131 24.799,39.175 25.337,39.697 C25.337,39.697 28.604,42.865 28.604,42.865 C28.604,42.865 32.220,39.653 32.220,39.653 C32.805,39.131 33.695,39.150 34.260,39.697 C34.260,39.697 38.526,43.835 38.526,43.835 C39.121,44.412 39.136,45.361 38.560,45.956 C37.981,46.551 37.033,46.566 36.438,45.988 C36.438,45.988 33.171,42.820 33.171,42.820 C33.171,42.820 29.557,46.033 29.557,46.033 C28.971,46.553 28.079,46.535 27.517,45.989 C27.517,45.989 24.186,42.760 24.186,42.760 C24.186,42.760 19.914,46.094 19.914,46.094 C19.642,46.307 19.316,46.412 18.991,46.412 Z" id="path-10" class="cls-5" fill-rule="evenodd"/>
  </g>
</svg>
