<svg xmlns="http://www.w3.org/2000/svg" xmlns:xlink="http://www.w3.org/1999/xlink" preserveAspectRatio="xMidYMid" width="68" height="64" viewBox="0 0 68 64">
  <defs>
    <style>

      .cls-3 {
        fill: #53ecf4;
      }

      .cls-4 {
        fill: #000000;
      }
    </style>
  </defs>
  <g id="group-62svg">
    <path d="M67.492,33.491 C67.492,50.060 54.061,63.491 37.492,63.491 C20.923,63.491 7.492,50.060 7.492,33.491 C7.492,16.923 20.923,3.491 37.492,3.491 C54.061,3.491 67.492,16.923 67.492,33.491 Z" id="path-1" class="cls-3" fill-rule="evenodd"/>
    <path d="M31.492,62.991 C14.123,62.991 -0.008,48.860 -0.008,31.491 C-0.008,14.122 14.123,-0.009 31.492,-0.009 C48.861,-0.009 62.992,14.122 62.992,31.491 C62.992,48.860 48.861,62.991 31.492,62.991 ZM31.492,2.991 C15.777,2.991 2.992,15.776 2.992,31.491 C2.992,47.206 15.777,59.991 31.492,59.991 C47.207,59.991 59.992,47.206 59.992,31.491 C59.992,15.776 47.207,2.991 31.492,2.991 Z" id="path-2" class="cls-4" fill-rule="evenodd"/>
    <path d="M48.215,41.344 C48.215,41.344 46.625,41.344 46.625,41.344 C45.796,41.344 45.125,40.672 45.125,39.844 C45.125,39.016 45.796,38.344 46.625,38.344 C46.625,38.344 48.215,38.344 48.215,38.344 C48.317,38.344 48.356,38.327 48.356,38.327 C48.356,38.327 48.356,38.327 48.356,38.327 C48.355,38.327 48.625,38.050 48.625,36.875 C48.625,36.875 48.625,34.261 48.625,34.261 C48.625,33.342 48.396,30.344 45.451,30.344 C45.451,30.344 16.352,30.344 16.352,30.344 C14.166,30.344 11.625,32.055 11.625,34.261 C11.625,34.261 11.625,36.875 11.625,36.875 C11.625,37.420 12.741,38.344 13.588,38.344 C13.588,38.344 14.625,38.344 14.625,38.344 C15.454,38.344 16.125,39.016 16.125,39.844 C16.125,40.672 15.454,41.344 14.625,41.344 C14.625,41.344 13.588,41.344 13.588,41.344 C11.340,41.344 8.625,39.351 8.625,36.875 C8.625,36.875 8.625,34.261 8.625,34.261 C8.625,30.185 12.697,27.344 16.352,27.344 C16.352,27.344 45.451,27.344 45.451,27.344 C49.144,27.344 51.625,30.123 51.625,34.261 C51.625,34.261 51.625,36.875 51.625,36.875 C51.625,41.021 49.015,41.344 48.215,41.344 Z" id="path-3" class="cls-4" fill-rule="evenodd"/>
    <path d="M37.625,41.344 C37.625,41.344 23.625,41.344 23.625,41.344 C22.796,41.344 22.125,40.672 22.125,39.844 C22.125,39.016 22.796,38.344 23.625,38.344 C23.625,38.344 37.625,38.344 37.625,38.344 C38.454,38.344 39.125,39.016 39.125,39.844 C39.125,40.672 38.454,41.344 37.625,41.344 Z" id="path-4" class="cls-4" fill-rule="evenodd"/>
    <path d="M39.779,29.296 C38.950,29.296 38.279,28.624 38.279,27.796 C38.279,23.969 33.903,20.854 28.524,20.854 C23.145,20.854 18.768,23.969 18.768,27.796 C18.768,28.624 18.097,29.296 17.269,29.296 C16.440,29.296 15.769,28.624 15.769,27.796 C15.769,22.314 21.491,17.854 28.524,17.854 C35.557,17.854 41.279,22.314 41.279,27.796 C41.279,28.624 40.607,29.296 39.779,29.296 Z" id="path-5" class="cls-4" fill-rule="evenodd"/>
    <path d="M42.438,44.939 C39.452,44.939 37.022,42.510 37.022,39.523 C37.022,36.537 39.452,34.107 42.438,34.107 C45.424,34.107 47.853,36.537 47.853,39.523 C47.853,42.510 45.424,44.939 42.438,44.939 ZM42.438,37.107 C41.106,37.107 40.022,38.191 40.022,39.523 C40.022,40.855 41.106,41.939 42.438,41.939 C43.770,41.939 44.853,40.855 44.853,39.523 C44.853,38.191 43.770,37.107 42.438,37.107 Z" id="path-6" class="cls-4" fill-rule="evenodd"/>
    <path d="M19.634,44.939 C16.648,44.939 14.219,42.510 14.219,39.523 C14.219,36.537 16.648,34.107 19.634,34.107 C22.621,34.107 25.050,36.537 25.050,39.523 C25.050,42.510 22.621,44.939 19.634,44.939 ZM19.634,37.107 C18.302,37.107 17.219,38.191 17.219,39.523 C17.219,40.855 18.302,41.939 19.634,41.939 C20.966,41.939 22.050,40.855 22.050,39.523 C22.050,38.191 20.966,37.107 19.634,37.107 Z" id="path-7" class="cls-4" fill-rule="evenodd"/>
    <path d="M28.125,29.844 C27.296,29.844 26.625,29.172 26.625,28.344 C26.625,28.344 26.625,19.344 26.625,19.344 C26.625,18.516 27.296,17.844 28.125,17.844 C28.954,17.844 29.625,18.516 29.625,19.344 C29.625,19.344 29.625,28.344 29.625,28.344 C29.625,29.172 28.954,29.844 28.125,29.844 Z" id="path-8" class="cls-4" fill-rule="evenodd"/>
    <path d="M49.625,34.344 C49.625,34.344 46.625,34.344 46.625,34.344 C45.796,34.344 45.125,33.672 45.125,32.844 C45.125,32.016 45.796,31.344 46.625,31.344 C46.625,31.344 49.625,31.344 49.625,31.344 C50.454,31.344 51.125,32.016 51.125,32.844 C51.125,33.672 50.454,34.344 49.625,34.344 Z" id="path-9" class="cls-4" fill-rule="evenodd"/>
  </g>
</svg>
