<svg xmlns="http://www.w3.org/2000/svg" xmlns:xlink="http://www.w3.org/1999/xlink" preserveAspectRatio="xMidYMid" width="62" height="61" viewBox="0 0 62 61">
  <defs>
    <style>

      .cls-3 {
        fill: #8b71b5;
      }

      .cls-4 {
        fill: #ff917b;
      }

      .cls-6 {
        fill: #000000;
      }
    </style>
  </defs>
  <g id="group-2svg">
    <path d="M31.204,13.988 C31.204,13.988 35.021,17.804 35.021,17.804 C35.021,17.804 22.617,30.208 22.617,30.208 C22.617,30.208 18.801,26.392 18.801,26.392 C18.801,26.392 16.270,28.922 16.270,28.922 C14.263,30.930 13.275,34.225 15.283,36.233 C15.283,36.233 28.006,48.955 28.006,48.955 C30.013,50.962 33.345,50.013 35.353,48.005 C35.353,48.005 37.883,45.475 37.883,45.475 C37.883,45.475 35.021,42.612 35.021,42.612 C35.021,42.612 47.425,30.208 47.425,30.208 C47.425,30.208 50.287,33.070 50.287,33.070 C50.287,33.070 54.435,28.922 54.435,28.922 C56.443,26.915 55.774,25.200 53.768,23.193 C53.768,23.193 41.045,10.471 41.045,10.471 C39.038,8.463 37.360,7.832 35.353,9.839 C35.353,9.839 31.204,13.988 31.204,13.988 Z" id="path-1" class="cls-3" fill-rule="evenodd"/>
    <path d="M61.276,14.448 C61.276,14.448 58.380,17.344 58.380,17.344 C57.600,18.125 56.333,18.125 55.552,17.344 C55.552,17.344 45.976,7.769 45.976,7.769 C45.195,6.988 45.195,5.721 45.976,4.940 C45.976,4.940 48.873,2.044 48.873,2.044 C49.654,1.263 50.920,1.263 51.701,2.044 C51.701,2.044 61.276,11.619 61.276,11.619 C62.058,12.400 62.058,13.667 61.276,14.448 Z" id="path-2" class="cls-4" fill-rule="evenodd"/>
    <path d="M22.156,53.568 C22.156,53.568 19.261,56.464 19.261,56.464 C18.479,57.245 17.213,57.245 16.432,56.464 C16.432,56.464 6.856,46.889 6.856,46.889 C6.075,46.107 6.075,44.841 6.856,44.060 C6.856,44.060 9.753,41.164 9.753,41.164 C10.534,40.383 11.801,40.383 12.581,41.164 C12.581,41.164 22.156,50.739 22.156,50.739 C22.937,51.520 22.937,52.787 22.156,53.568 Z" id="path-3" class="cls-4" fill-rule="evenodd"/>
    <path d="M26.171,52.044 C24.883,52.044 23.666,51.507 22.651,50.492 C22.651,50.492 9.930,37.770 9.930,37.770 C7.338,35.180 7.352,30.948 9.961,28.339 C9.961,28.339 12.969,25.331 12.969,25.331 C13.555,24.745 14.504,24.745 15.090,25.331 C15.090,25.331 17.846,28.086 17.846,28.086 C17.846,28.086 28.129,17.804 28.129,17.804 C28.129,17.804 25.373,15.048 25.373,15.048 C24.787,14.463 24.787,13.513 25.373,12.927 C25.373,12.927 29.044,9.256 29.044,9.256 C30.134,8.166 31.465,7.590 32.895,7.590 C34.584,7.590 36.331,8.406 37.812,9.887 C37.812,9.887 50.534,22.609 50.534,22.609 C51.852,23.926 52.439,25.248 52.332,26.649 C52.234,27.926 51.571,29.136 50.248,30.460 C50.248,30.460 46.577,34.131 46.577,34.131 C46.015,34.694 45.019,34.694 44.456,34.131 C44.456,34.131 42.654,32.329 42.654,32.329 C42.654,32.329 32.371,42.612 32.371,42.612 C32.371,42.612 34.173,44.414 34.173,44.414 C34.454,44.695 34.612,45.077 34.612,45.474 C34.612,45.873 34.454,46.253 34.173,46.535 C34.173,46.535 31.165,49.543 31.165,49.543 C29.529,51.179 27.803,52.044 26.171,52.044 ZM14.029,28.513 C14.029,28.513 12.082,30.460 12.082,30.460 C10.643,31.899 10.629,34.227 12.051,35.649 C12.051,35.649 24.772,48.371 24.772,48.371 C25.226,48.824 25.683,49.044 26.171,49.044 C26.978,49.044 27.998,48.468 29.044,47.421 C29.044,47.421 30.991,45.474 30.991,45.474 C30.991,45.474 29.189,43.673 29.189,43.673 C28.908,43.391 28.750,43.010 28.750,42.612 C28.750,42.214 28.908,41.833 29.189,41.552 C29.189,41.552 41.594,29.147 41.594,29.147 C41.875,28.866 42.257,28.708 42.654,28.708 C42.654,28.708 42.654,28.708 42.654,28.708 C43.052,28.708 43.434,28.866 43.715,29.147 C43.715,29.147 45.517,30.949 45.517,30.949 C45.517,30.949 48.127,28.339 48.127,28.339 C48.894,27.572 49.302,26.926 49.341,26.419 C49.354,26.245 49.395,25.713 48.413,24.731 C48.413,24.731 35.691,12.009 35.691,12.009 C34.124,10.441 32.439,10.105 31.165,11.377 C31.165,11.377 28.555,13.988 28.555,13.988 C28.555,13.988 31.310,16.744 31.310,16.744 C31.592,17.025 31.750,17.406 31.750,17.804 C31.750,18.202 31.592,18.583 31.310,18.865 C31.310,18.865 18.906,31.269 18.906,31.269 C18.320,31.854 17.371,31.854 16.785,31.269 C16.785,31.269 14.029,28.513 14.029,28.513 Z" id="path-4" class="cls-6" fill-rule="evenodd"/>
    <path d="M52.195,19.430 C51.261,19.430 50.382,19.066 49.721,18.405 C49.721,18.405 40.145,8.829 40.145,8.829 C39.484,8.168 39.120,7.290 39.120,6.354 C39.120,5.419 39.484,4.540 40.145,3.880 C40.145,3.880 43.042,0.983 43.042,0.983 C44.362,-0.338 46.669,-0.339 47.991,0.983 C47.991,0.983 57.566,10.559 57.566,10.559 C58.227,11.220 58.592,12.099 58.592,13.034 C58.592,13.969 58.227,14.848 57.566,15.509 C57.566,15.509 54.670,18.405 54.670,18.405 C54.009,19.066 53.130,19.430 52.195,19.430 ZM45.517,2.958 C45.439,2.958 45.291,2.977 45.164,3.104 C45.164,3.104 42.267,6.001 42.267,6.001 C42.139,6.128 42.120,6.277 42.120,6.354 C42.120,6.432 42.139,6.581 42.267,6.708 C42.267,6.708 51.842,16.284 51.842,16.284 C51.970,16.411 52.118,16.430 52.195,16.430 C52.272,16.430 52.421,16.411 52.549,16.283 C52.549,16.283 55.445,13.387 55.445,13.387 C55.573,13.260 55.592,13.111 55.592,13.034 C55.592,12.956 55.573,12.808 55.445,12.680 C55.445,12.680 45.870,3.104 45.870,3.104 C45.742,2.977 45.594,2.958 45.517,2.958 Z" id="path-5" class="cls-6" fill-rule="evenodd"/>
    <path d="M13.075,58.550 C12.141,58.550 11.262,58.186 10.601,57.525 C10.601,57.525 1.025,47.949 1.025,47.949 C0.364,47.289 -0.000,46.410 -0.000,45.474 C-0.000,44.540 0.364,43.661 1.025,42.999 C1.025,42.999 3.922,40.103 3.922,40.103 C5.244,38.781 7.549,38.781 8.871,40.103 C8.871,40.103 18.446,49.679 18.446,49.679 C19.107,50.339 19.472,51.219 19.472,52.153 C19.472,53.088 19.107,53.967 18.446,54.628 C18.446,54.628 15.550,57.524 15.550,57.524 C14.890,58.186 14.011,58.550 13.075,58.550 ZM6.396,42.078 C6.319,42.078 6.171,42.097 6.043,42.225 C6.043,42.225 3.146,45.121 3.146,45.121 C3.019,45.249 3.000,45.397 3.000,45.474 C3.000,45.552 3.019,45.700 3.146,45.828 C3.146,45.828 12.722,55.403 12.722,55.403 C12.850,55.531 12.998,55.550 13.075,55.550 C13.152,55.550 13.301,55.531 13.428,55.404 C13.428,55.404 16.325,52.507 16.325,52.507 C16.453,52.379 16.472,52.231 16.472,52.153 C16.472,52.076 16.453,51.927 16.325,51.800 C16.325,51.800 6.750,42.224 6.750,42.224 C6.622,42.097 6.474,42.078 6.396,42.078 Z" id="path-6" class="cls-6" fill-rule="evenodd"/>
    <path d="M53.627,9.286 C53.243,9.286 52.859,9.139 52.566,8.847 C51.980,8.260 51.980,7.311 52.566,6.725 C52.566,6.725 58.291,1.000 58.291,1.000 C58.877,0.415 59.826,0.415 60.412,1.000 C60.998,1.586 60.998,2.536 60.412,3.122 C60.412,3.122 54.687,8.846 54.687,8.846 C54.394,9.139 54.011,9.286 53.627,9.286 Z" id="path-7" class="cls-6" fill-rule="evenodd"/>
    <path d="M2.102,60.810 C1.719,60.810 1.335,60.663 1.042,60.370 C0.456,59.785 0.456,58.835 1.042,58.249 C1.042,58.249 5.812,53.478 5.812,53.478 C6.398,52.893 7.348,52.893 7.934,53.478 C8.520,54.064 8.520,55.014 7.934,55.599 C7.934,55.599 3.163,60.370 3.163,60.370 C2.870,60.663 2.486,60.810 2.102,60.810 Z" id="path-8" class="cls-6" fill-rule="evenodd"/>
  </g>
</svg>
