<svg xmlns="http://www.w3.org/2000/svg" xmlns:xlink="http://www.w3.org/1999/xlink" preserveAspectRatio="xMidYMid" width="52" height="67" viewBox="0 0 52 67">
  <defs>
    <style>

      .cls-3 {
        fill: #e56a77;
      }

      .cls-4 {
        fill: #000000;
      }
    </style>
  </defs>
  <g id="group-25svg">
    <path d="M43.868,6.000 C43.868,6.000 16.875,6.000 16.875,6.000 C11.690,6.000 7.000,10.369 7.000,15.554 C7.000,15.554 7.000,66.165 7.000,66.165 C7.000,66.165 18.276,52.000 18.276,52.000 C18.276,52.000 43.868,52.000 43.868,52.000 C49.053,52.000 52.000,47.732 52.000,42.546 C52.000,42.546 52.000,15.554 52.000,15.554 C52.000,10.369 49.053,6.000 43.868,6.000 Z" id="path-1" class="cls-3" fill-rule="evenodd"/>
    <path d="M1.500,63.665 C1.344,63.665 1.186,63.641 1.033,63.590 C0.416,63.388 -0.000,62.813 -0.000,62.165 C-0.000,62.165 -0.000,11.554 -0.000,11.554 C-0.000,5.399 5.082,-0.000 10.875,-0.000 C10.875,-0.000 37.868,-0.000 37.868,-0.000 C44.210,-0.000 48.000,5.874 48.000,11.554 C48.000,11.554 48.000,38.546 48.000,38.546 C48.000,44.701 43.833,49.000 37.868,49.000 C37.868,49.000 13.035,49.000 13.035,49.000 C13.035,49.000 2.709,63.053 2.709,63.053 C2.421,63.445 1.968,63.665 1.500,63.665 ZM10.875,3.000 C6.680,3.000 3.000,6.997 3.000,11.554 C3.000,11.554 3.000,57.590 3.000,57.590 C3.000,57.590 11.067,46.612 11.067,46.612 C11.350,46.227 11.798,46.000 12.276,46.000 C12.276,46.000 37.868,46.000 37.868,46.000 C42.134,46.000 45.000,43.004 45.000,38.546 C45.000,38.546 45.000,11.554 45.000,11.554 C45.000,7.349 42.333,3.000 37.868,3.000 C37.868,3.000 10.875,3.000 10.875,3.000 Z" id="path-2" class="cls-4" fill-rule="evenodd"/>
    <path d="M32.500,32.500 C31.671,32.500 31.000,31.829 31.000,31.000 C31.000,31.000 31.000,28.000 31.000,28.000 C31.000,28.000 22.000,28.000 22.000,28.000 C21.171,28.000 20.500,27.329 20.500,26.500 C20.500,25.671 21.171,25.000 22.000,25.000 C22.000,25.000 32.500,25.000 32.500,25.000 C33.329,25.000 34.000,25.671 34.000,26.500 C34.000,26.500 34.000,31.000 34.000,31.000 C34.000,31.829 33.329,32.500 32.500,32.500 Z" id="path-3" class="cls-4" fill-rule="evenodd"/>
    <path d="M17.152,34.000 C17.152,34.000 16.848,34.000 16.848,34.000 C13.623,34.000 11.000,31.377 11.000,28.152 C11.000,28.152 11.000,27.848 11.000,27.848 C11.000,24.623 13.623,22.000 16.848,22.000 C16.848,22.000 17.152,22.000 17.152,22.000 C20.377,22.000 23.000,24.623 23.000,27.848 C23.000,27.848 23.000,28.152 23.000,28.152 C23.000,31.377 20.377,34.000 17.152,34.000 ZM16.848,25.000 C15.277,25.000 14.000,26.277 14.000,27.848 C14.000,27.848 14.000,28.152 14.000,28.152 C14.000,29.723 15.277,31.000 16.848,31.000 C16.848,31.000 17.152,31.000 17.152,31.000 C18.723,31.000 20.000,29.723 20.000,28.152 C20.000,28.152 20.000,27.848 20.000,27.848 C20.000,26.277 18.723,25.000 17.152,25.000 C17.152,25.000 16.848,25.000 16.848,25.000 Z" id="path-4" class="cls-4" fill-rule="evenodd"/>
  </g>
</svg>
