<svg xmlns="http://www.w3.org/2000/svg" xmlns:xlink="http://www.w3.org/1999/xlink" preserveAspectRatio="xMidYMid" width="70" height="65" viewBox="0 0 70 65">
  <defs>
    <style>

      .cls-3 {
        fill: #edc951;
      }

      .cls-4 {
        fill: #e56a77;
      }

      .cls-6 {
        fill: #000000;
      }
    </style>
  </defs>
  <g id="group-45svg">
    <path d="M65.058,32.922 C65.058,48.892 52.111,61.838 36.140,61.838 C20.168,61.838 7.221,48.892 7.221,32.922 C7.221,16.953 20.168,4.007 36.140,4.007 C52.111,4.007 65.058,16.953 65.058,32.922 Z" id="path-1" class="cls-3" fill-rule="evenodd"/>
    <path d="M54.136,41.472 C53.446,41.472 52.811,42.329 52.297,42.712 C51.783,42.329 51.148,41.472 50.458,41.472 C48.753,41.472 47.371,42.854 47.371,44.559 C47.371,46.263 51.783,51.297 52.297,50.915 C52.811,51.297 57.223,46.263 57.223,44.559 C57.223,42.854 55.841,41.472 54.136,41.472 Z" id="path-2" class="cls-4" fill-rule="evenodd"/>
    <path d="M66.457,55.015 C65.767,55.015 65.132,55.872 64.618,56.254 C64.104,55.872 63.469,55.015 62.779,55.015 C61.074,55.015 59.692,56.397 59.692,58.101 C59.692,59.806 64.104,64.840 64.618,64.457 C65.132,64.840 69.544,59.806 69.544,58.101 C69.544,56.397 68.162,55.015 66.457,55.015 Z" id="path-3" class="cls-4" fill-rule="evenodd"/>
    <path d="M23.961,21.513 C23.577,21.513 23.193,21.366 22.900,21.073 C22.078,20.251 20.929,19.765 19.747,19.740 C18.571,19.730 17.460,20.145 16.657,20.947 C16.071,21.533 15.122,21.533 14.536,20.947 C13.950,20.362 13.950,19.412 14.536,18.827 C15.921,17.440 17.788,16.709 19.810,16.742 C21.786,16.782 23.637,17.568 25.021,18.953 C25.607,19.538 25.607,20.488 25.021,21.073 C24.728,21.366 24.345,21.513 23.961,21.513 Z" id="path-4" class="cls-6" fill-rule="evenodd"/>
    <path d="M47.482,21.513 C47.098,21.513 46.714,21.366 46.421,21.073 C45.599,20.251 44.450,19.765 43.269,19.740 C42.092,19.730 40.981,20.145 40.178,20.947 C39.592,21.533 38.643,21.533 38.057,20.947 C37.471,20.362 37.471,19.412 38.057,18.827 C39.443,17.440 41.323,16.709 43.331,16.742 C45.307,16.782 47.158,17.568 48.542,18.953 C49.128,19.538 49.128,20.488 48.542,21.073 C48.249,21.366 47.866,21.513 47.482,21.513 Z" id="path-5" class="cls-6" fill-rule="evenodd"/>
    <path d="M35.582,48.029 C34.877,48.029 34.249,47.530 34.111,46.812 C33.955,45.999 34.487,45.212 35.301,45.056 C36.176,44.888 36.744,44.596 36.858,44.257 C37.120,43.485 36.077,41.729 35.256,40.810 C34.970,40.489 34.834,40.061 34.884,39.634 C34.935,39.207 35.164,38.822 35.518,38.577 C37.323,37.323 37.715,36.461 37.663,36.149 C37.561,35.550 36.151,34.805 35.185,34.535 C34.388,34.312 33.920,33.487 34.140,32.690 C34.361,31.894 35.183,31.426 35.979,31.643 C36.404,31.759 40.142,32.858 40.619,35.640 C40.874,37.121 40.152,38.609 38.473,40.077 C39.341,41.366 40.322,43.368 39.703,45.211 C39.366,46.212 38.428,47.510 35.867,48.002 C35.771,48.020 35.676,48.029 35.582,48.029 Z" id="path-6" class="cls-6" fill-rule="evenodd"/>
    <path d="M47.294,50.402 C47.268,50.402 47.242,50.402 47.215,50.400 C47.191,50.402 47.167,50.402 47.144,50.402 C45.210,50.402 40.789,44.538 40.789,42.526 C40.789,39.997 42.846,37.939 45.375,37.939 C46.128,37.939 46.737,38.294 47.215,38.677 C47.692,38.294 48.301,37.939 49.054,37.939 C51.583,37.939 53.641,39.997 53.641,42.526 C53.641,43.636 52.808,45.233 51.166,47.271 C48.660,50.382 47.738,50.402 47.294,50.402 ZM45.245,40.944 C44.431,41.011 43.789,41.695 43.789,42.526 C43.907,43.351 46.055,46.132 47.215,47.180 C48.374,46.131 50.522,43.346 50.643,42.486 C50.641,41.693 49.998,41.011 49.184,40.944 C49.053,41.036 48.843,41.234 48.709,41.360 C48.499,41.558 48.297,41.743 48.110,41.882 C47.579,42.277 46.851,42.278 46.320,41.882 C46.132,41.743 45.930,41.558 45.720,41.359 C45.586,41.234 45.376,41.036 45.245,40.944 Z" id="path-7" class="cls-6" fill-rule="evenodd"/>
    <path d="M59.617,63.945 C59.588,63.943 59.563,63.945 59.535,63.943 C59.511,63.945 59.487,63.945 59.464,63.945 C57.531,63.945 53.109,58.081 53.109,56.069 C53.109,53.540 55.167,51.482 57.696,51.482 C58.449,51.482 59.058,51.837 59.535,52.220 C60.013,51.837 60.622,51.482 61.374,51.482 C63.904,51.482 65.961,53.540 65.961,56.069 C65.961,57.179 65.128,58.775 63.486,60.814 C60.985,63.918 60.062,63.945 59.617,63.945 ZM57.566,54.487 C56.752,54.554 56.109,55.238 56.109,56.069 C56.228,56.894 58.375,59.674 59.535,60.722 C60.695,59.674 62.843,56.889 62.963,56.029 C62.961,55.235 62.319,54.553 61.504,54.487 C61.374,54.578 61.164,54.776 61.030,54.903 C60.820,55.100 60.618,55.286 60.431,55.425 C59.899,55.820 59.171,55.820 58.639,55.425 C58.453,55.286 58.250,55.100 58.040,54.902 C57.906,54.776 57.697,54.579 57.566,54.487 Z" id="path-8" class="cls-6" fill-rule="evenodd"/>
    <path d="M30.985,61.936 C13.903,61.936 0.006,48.041 0.006,30.961 C0.006,13.881 13.903,-0.014 30.985,-0.014 C48.067,-0.014 61.964,13.881 61.964,30.961 C61.964,48.041 48.067,61.936 30.985,61.936 ZM30.985,2.986 C15.558,2.986 3.006,15.535 3.006,30.961 C3.006,46.387 15.558,58.936 30.985,58.936 C46.413,58.936 58.964,46.387 58.964,30.961 C58.964,15.535 46.413,2.986 30.985,2.986 Z" id="path-9" class="cls-6" fill-rule="evenodd"/>
  </g>
</svg>
