<svg xmlns="http://www.w3.org/2000/svg" xmlns:xlink="http://www.w3.org/1999/xlink" preserveAspectRatio="xMidYMid" width="51" height="64" viewBox="0 0 51 64">
  <defs>
    <style>

      .cls-3 {
        fill: #e56a77;
      }

      .cls-4 {
        fill: #ffffff;
      }

      .cls-5 {
        fill: #000000;
      }
    </style>
  </defs>
  <g id="group-1svg">
    <path d="M51.115,41.556 C51.115,58.124 39.873,63.485 28.850,63.485 C17.825,63.485 6.583,58.124 6.583,41.556 C6.583,24.987 17.825,3.485 28.850,3.485 C39.873,3.485 51.115,24.987 51.115,41.556 Z" id="path-1" class="cls-3" fill-rule="evenodd"/>
    <path d="M29.350,47.580 C29.350,47.580 33.700,57.406 33.700,57.406 C33.700,57.406 24.734,57.406 24.734,57.406 C24.734,57.406 29.350,47.580 29.350,47.580 Z" id="path-2" class="cls-4" fill-rule="evenodd"/>
    <path d="M23.850,62.985 C8.968,62.985 0.083,54.227 0.083,39.556 C0.083,22.278 11.608,-0.015 23.850,-0.015 C36.091,-0.015 47.615,22.278 47.615,39.556 C47.615,54.227 38.730,62.985 23.850,62.985 ZM23.850,2.985 C14.340,2.985 3.083,22.809 3.083,39.556 C3.083,57.995 17.605,59.985 23.850,59.985 C30.093,59.985 44.615,57.995 44.615,39.556 C44.615,22.809 33.359,2.985 23.850,2.985 Z" id="path-3" class="cls-5" fill-rule="evenodd"/>
    <path d="M28.720,56.406 C28.716,56.407 28.708,56.407 28.700,56.406 C28.700,56.406 19.734,56.406 19.734,56.406 C19.221,56.406 18.743,56.144 18.468,55.710 C18.193,55.277 18.158,54.733 18.377,54.269 C18.377,54.269 22.993,44.442 22.993,44.442 C23.243,43.910 23.752,43.578 24.367,43.580 C24.955,43.587 25.484,43.936 25.723,44.473 C25.723,44.473 29.980,54.092 29.980,54.092 C30.132,54.327 30.220,54.606 30.220,54.906 C30.220,55.735 29.549,56.406 28.720,56.406 ZM22.097,53.406 C22.097,53.406 26.395,53.406 26.395,53.406 C26.395,53.406 24.310,48.694 24.310,48.694 C24.310,48.694 22.097,53.406 22.097,53.406 Z" id="path-4" class="cls-5" fill-rule="evenodd"/>
    <path d="M45.500,40.406 C45.500,40.406 1.500,40.406 1.500,40.406 C0.672,40.406 -0.000,39.735 -0.000,38.906 C-0.000,38.078 0.672,37.406 1.500,37.406 C1.500,37.406 45.500,37.406 45.500,37.406 C46.328,37.406 47.000,38.078 47.000,38.906 C47.000,39.735 46.328,40.406 45.500,40.406 Z" id="path-5" class="cls-5" fill-rule="evenodd"/>
    <path d="M26.977,29.406 C26.977,29.406 19.500,29.406 19.500,29.406 C18.672,29.406 18.000,28.735 18.000,27.906 C18.000,27.078 18.672,26.406 19.500,26.406 C19.500,26.406 26.977,26.406 26.977,26.406 C27.197,26.406 27.499,26.406 27.500,25.418 C27.499,24.406 27.185,24.406 26.977,24.406 C26.977,24.406 21.804,24.406 21.804,24.406 C19.552,24.406 17.500,22.356 17.500,20.105 C17.500,20.105 17.500,19.071 17.500,19.071 C17.500,16.947 19.310,15.406 21.804,15.406 C21.804,15.406 27.500,15.406 27.500,15.406 C28.328,15.406 29.000,16.078 29.000,16.906 C29.000,17.735 28.328,18.406 27.500,18.406 C27.500,18.406 21.804,18.406 21.804,18.406 C21.466,18.406 20.500,18.528 20.500,19.071 C20.500,19.071 20.500,20.105 20.500,20.105 C20.500,20.701 21.207,21.406 21.804,21.406 C21.804,21.406 26.977,21.406 26.977,21.406 C29.109,21.406 30.490,22.973 30.500,25.400 C30.500,25.404 30.500,25.408 30.500,25.412 C30.500,25.414 30.500,25.416 30.500,25.418 C30.500,25.420 30.500,25.423 30.500,25.425 C30.500,25.429 30.500,25.433 30.500,25.437 C30.490,27.849 29.109,29.406 26.977,29.406 Z" id="path-6" class="cls-5" fill-rule="evenodd"/>
    <path d="M41.000,39.906 C40.172,39.906 39.500,39.235 39.500,38.406 C39.500,38.406 39.500,33.406 39.500,33.406 C39.500,32.578 40.172,31.906 41.000,31.906 C41.828,31.906 42.500,32.578 42.500,33.406 C42.500,33.406 42.500,38.406 42.500,38.406 C42.500,39.235 41.828,39.906 41.000,39.906 Z" id="path-7" class="cls-5" fill-rule="evenodd"/>
    <path d="M32.000,39.906 C31.172,39.906 30.500,39.235 30.500,38.406 C30.500,38.406 30.500,33.406 30.500,33.406 C30.500,32.578 31.172,31.906 32.000,31.906 C32.828,31.906 33.500,32.578 33.500,33.406 C33.500,33.406 33.500,38.406 33.500,38.406 C33.500,39.235 32.828,39.906 32.000,39.906 Z" id="path-8" class="cls-5" fill-rule="evenodd"/>
    <path d="M16.000,39.906 C15.172,39.906 14.500,39.235 14.500,38.406 C14.500,38.406 14.500,33.406 14.500,33.406 C14.500,32.578 15.172,31.906 16.000,31.906 C16.828,31.906 17.500,32.578 17.500,33.406 C17.500,33.406 17.500,38.406 17.500,38.406 C17.500,39.235 16.828,39.906 16.000,39.906 Z" id="path-9" class="cls-5" fill-rule="evenodd"/>
    <path d="M24.000,39.906 C23.172,39.906 22.500,39.235 22.500,38.406 C22.500,38.406 22.500,33.406 22.500,33.406 C22.500,32.578 23.172,31.906 24.000,31.906 C24.828,31.906 25.500,32.578 25.500,33.406 C25.500,33.406 25.500,38.406 25.500,38.406 C25.500,39.235 24.828,39.906 24.000,39.906 Z" id="path-10" class="cls-5" fill-rule="evenodd"/>
    <path d="M7.000,39.906 C6.172,39.906 5.500,39.235 5.500,38.406 C5.500,38.406 5.500,33.406 5.500,33.406 C5.500,32.578 6.172,31.906 7.000,31.906 C7.828,31.906 8.500,32.578 8.500,33.406 C8.500,33.406 8.500,38.406 8.500,38.406 C8.500,39.235 7.828,39.906 7.000,39.906 Z" id="path-11" class="cls-5" fill-rule="evenodd"/>
  </g>
</svg>
