<svg xmlns="http://www.w3.org/2000/svg" xmlns:xlink="http://www.w3.org/1999/xlink" preserveAspectRatio="xMidYMid" width="63" height="63" viewBox="0 0 63 63">
  <defs>
    <style>

      .cls-3 {
        fill: #81bda4;
      }

      .cls-4 {
        fill: #53ecf4;
      }

      .cls-5 {
        fill: #000000;
      }
    </style>
  </defs>
  <g id="group-27svg">
    <path d="M50.449,40.729 C50.449,52.868 40.608,62.708 28.470,62.708 C16.332,62.708 6.491,52.868 6.491,40.729 C6.491,28.591 16.332,18.750 28.470,18.750 C40.608,18.750 50.449,28.591 50.449,40.729 Z" id="path-1" class="cls-3" fill-rule="evenodd"/>
    <path d="M42.032,40.729 C42.032,48.219 35.960,54.291 28.470,54.291 C20.980,54.291 14.908,48.219 14.908,40.729 C14.908,33.239 20.980,27.167 28.470,27.167 C35.960,27.167 42.032,33.239 42.032,40.729 Z" id="path-2" class="cls-4" fill-rule="evenodd"/>
    <path d="M23.470,61.208 C10.524,61.208 -0.008,50.675 -0.008,37.729 C-0.008,24.783 10.524,14.250 23.470,14.250 C36.416,14.250 46.949,24.783 46.949,37.729 C46.949,50.675 36.416,61.208 23.470,61.208 ZM23.470,17.250 C12.178,17.250 2.992,26.437 2.992,37.729 C2.992,49.021 12.178,58.208 23.470,58.208 C34.762,58.208 43.949,49.021 43.949,37.729 C43.949,26.437 34.762,17.250 23.470,17.250 Z" id="path-3" class="cls-5" fill-rule="evenodd"/>
    <path d="M23.470,52.791 C15.165,52.791 8.408,46.034 8.408,37.729 C8.408,29.424 15.165,22.667 23.470,22.667 C31.775,22.667 38.532,29.424 38.532,37.729 C38.532,46.034 31.775,52.791 23.470,52.791 ZM23.470,25.667 C16.819,25.667 11.408,31.079 11.408,37.729 C11.408,44.380 16.819,49.791 23.470,49.791 C30.121,49.791 35.532,44.380 35.532,37.729 C35.532,31.079 30.121,25.667 23.470,25.667 Z" id="path-4" class="cls-5" fill-rule="evenodd"/>
    <path d="M27.235,37.729 C27.235,39.809 25.549,41.494 23.470,41.494 C21.391,41.494 19.705,39.809 19.705,37.729 C19.705,35.650 21.391,33.964 23.470,33.964 C25.549,33.964 27.235,35.650 27.235,37.729 Z" id="path-5" class="cls-5" fill-rule="evenodd"/>
    <path d="M61.416,11.044 C60.995,11.044 60.576,10.867 60.280,10.523 C60.280,10.523 56.661,6.328 56.661,6.328 C56.135,5.719 56.185,4.803 56.772,4.253 C56.772,4.253 60.467,0.795 60.467,0.795 C61.072,0.229 62.022,0.261 62.587,0.866 C63.153,1.471 63.122,2.420 62.517,2.986 C62.517,2.986 59.873,5.459 59.873,5.459 C59.873,5.459 62.551,8.564 62.551,8.564 C63.092,9.191 63.022,10.138 62.395,10.680 C62.112,10.924 61.763,11.044 61.416,11.044 Z" id="path-6" class="cls-5" fill-rule="evenodd"/>
    <path d="M23.483,10.667 C23.062,10.667 22.644,10.492 22.347,10.147 C22.347,10.147 18.728,5.952 18.728,5.952 C18.202,5.342 18.251,4.427 18.839,3.876 C18.839,3.876 22.534,0.419 22.534,0.419 C23.139,-0.147 24.088,-0.115 24.654,0.490 C25.220,1.095 25.188,2.044 24.583,2.609 C24.583,2.609 21.940,5.083 21.940,5.083 C21.940,5.083 24.619,8.188 24.619,8.188 C25.160,8.815 25.090,9.763 24.462,10.304 C24.179,10.548 23.831,10.667 23.483,10.667 Z" id="path-7" class="cls-5" fill-rule="evenodd"/>
    <path d="M57.281,6.437 C57.281,6.437 21.281,6.437 21.281,6.437 C20.453,6.437 19.781,5.766 19.781,4.937 C19.781,4.109 20.453,3.437 21.281,3.437 C21.281,3.437 57.281,3.437 57.281,3.437 C58.110,3.437 58.781,4.109 58.781,4.937 C58.781,5.766 58.110,6.437 57.281,6.437 Z" id="path-8" class="cls-5" fill-rule="evenodd"/>
  </g>
</svg>
