<svg xmlns="http://www.w3.org/2000/svg" xmlns:xlink="http://www.w3.org/1999/xlink" preserveAspectRatio="xMidYMid" width="56" height="65" viewBox="0 0 56 65">
  <defs>
    <style>

      .cls-3 {
        fill: #81bda4;
      }

      .cls-4 {
        fill: #edc951;
      }

      .cls-5 {
        fill: #ff917b;
      }

      .cls-6 {
        fill: #000000;
      }
    </style>
  </defs>
  <g id="group-25svg">
    <path d="M33.784,42.850 C38.436,44.998 41.479,48.564 41.479,52.600 C41.479,59.165 33.428,64.486 23.494,64.486 C13.561,64.486 5.509,59.165 5.509,52.600 C5.509,48.687 8.369,45.217 12.782,43.051 C12.782,43.051 12.782,43.051 12.782,43.051 " id="path-1" class="cls-3" fill-rule="evenodd"/>
    <path d="M21.594,49.312 C21.594,49.312 21.594,4.486 21.594,4.486 C21.594,4.486 54.869,18.143 54.869,18.143 C54.869,18.143 25.629,30.991 25.629,30.991 C25.629,30.991 25.629,30.991 25.629,30.991 " id="path-2" class="cls-4" fill-rule="evenodd"/>
    <path d="M35.289,49.327 C35.289,53.632 30.008,57.122 23.494,57.122 C16.980,57.122 11.700,53.632 11.700,49.327 C11.700,49.327 11.700,49.327 11.700,49.327 " id="path-3" class="cls-5" fill-rule="evenodd"/>
    <path d="M18.094,47.812 C17.266,47.812 16.594,47.141 16.594,46.312 C16.594,46.312 16.594,1.486 16.594,1.486 C16.594,0.985 16.844,0.518 17.260,0.239 C17.677,-0.039 18.204,-0.091 18.667,0.100 C18.667,0.100 51.692,13.756 51.692,13.756 C52.247,13.986 52.612,14.524 52.619,15.125 C52.626,15.726 52.274,16.272 51.725,16.515 C51.725,16.515 22.609,29.363 22.609,29.363 C21.849,29.698 20.966,29.354 20.632,28.597 C20.297,27.838 20.641,26.953 21.398,26.619 C21.398,26.619 47.302,15.187 47.302,15.187 C47.302,15.187 19.594,3.729 19.594,3.729 C19.594,3.729 19.594,46.312 19.594,46.312 C19.594,47.141 18.922,47.812 18.094,47.812 Z" id="path-4" class="cls-6" fill-rule="evenodd"/>
    <path d="M19.494,55.621 C12.040,55.621 6.200,51.539 6.200,46.327 C6.200,45.498 6.872,44.827 7.700,44.827 C8.528,44.827 9.200,45.498 9.200,46.327 C9.200,49.739 13.914,52.621 19.494,52.621 C25.074,52.621 29.789,49.739 29.789,46.327 C29.789,45.498 30.461,44.827 31.289,44.827 C32.117,44.827 32.789,45.498 32.789,46.327 C32.789,51.539 26.949,55.621 19.494,55.621 Z" id="path-5" class="cls-6" fill-rule="evenodd"/>
    <path d="M19.494,62.986 C8.750,62.986 0.009,56.981 0.009,49.600 C0.009,45.270 3.042,41.197 8.121,38.704 C8.866,38.339 9.764,38.646 10.129,39.390 C10.494,40.134 10.187,41.033 9.443,41.397 C5.414,43.374 3.009,46.441 3.009,49.600 C3.009,55.327 10.404,59.986 19.494,59.986 C28.584,59.986 35.979,55.327 35.979,49.600 C35.979,46.321 33.429,43.185 29.155,41.212 C28.403,40.864 28.075,39.973 28.423,39.221 C28.770,38.469 29.660,38.142 30.413,38.488 C35.777,40.965 38.979,45.119 38.979,49.600 C38.979,56.981 30.238,62.986 19.494,62.986 Z" id="path-6" class="cls-6" fill-rule="evenodd"/>
  </g>
</svg>
