<svg xmlns="http://www.w3.org/2000/svg" xmlns:xlink="http://www.w3.org/1999/xlink" preserveAspectRatio="xMidYMid" width="66" height="43" viewBox="0 0 66 43">
  <defs>
    <style>

      .cls-3 {
        fill: #000000;
      }

      .cls-4 {
        fill: #53ecf4;
      }

      .cls-5 {
        fill: #e56a77;
      }
    </style>
  </defs>
  <g id="group-17svg">
    <path d="M1.491,16.855 C1.025,16.855 0.566,16.638 0.272,16.231 C-0.211,15.559 -0.059,14.622 0.614,14.138 C7.953,8.855 21.590,-0.007 30.461,-0.007 C31.289,-0.007 31.961,0.664 31.961,1.492 C31.961,2.320 31.289,2.992 30.461,2.992 C21.898,2.992 6.793,13.387 2.366,16.573 C2.102,16.763 1.795,16.855 1.491,16.855 Z" id="path-1" class="cls-3" fill-rule="evenodd"/>
    <path d="M64.556,25.101 C65.803,25.998 65.803,27.844 64.556,28.742 C58.816,32.874 44.367,42.605 35.585,42.605 C26.804,42.605 12.354,32.874 6.615,28.742 C5.368,27.844 5.368,25.998 6.615,25.101 C12.354,20.969 26.804,11.238 35.585,11.238 C44.367,11.238 58.816,20.969 64.556,25.101 Z" id="path-2" class="cls-4" fill-rule="evenodd"/>
    <path d="M46.229,26.921 C46.229,32.798 41.463,37.562 35.585,37.562 C29.707,37.562 24.942,32.798 24.942,26.921 C24.942,21.045 29.707,16.281 35.585,16.281 C41.463,16.281 46.229,21.045 46.229,26.921 Z" id="path-3" class="cls-5" fill-rule="evenodd"/>
    <path d="M31.585,41.105 C22.377,41.105 7.644,31.213 1.738,26.959 C0.763,26.257 0.180,25.121 0.180,23.922 C0.180,22.723 0.763,21.587 1.739,20.884 C7.646,16.631 22.381,6.739 31.585,6.739 C40.790,6.739 55.524,16.631 61.433,20.885 C62.408,21.587 62.991,22.723 62.991,23.922 C62.991,25.121 62.408,26.257 61.432,26.960 C55.526,31.213 40.794,41.105 31.585,41.105 ZM31.585,9.738 C23.020,9.738 7.917,20.132 3.492,23.318 C3.221,23.513 3.180,23.781 3.180,23.922 C3.180,24.063 3.221,24.331 3.491,24.525 C7.916,27.712 23.017,38.106 31.585,38.106 C40.154,38.106 55.255,27.712 59.679,24.526 C59.950,24.331 59.991,24.063 59.991,23.922 C59.991,23.781 59.950,23.513 59.680,23.319 C55.254,20.132 40.150,9.738 31.585,9.738 Z" id="path-4" class="cls-3" fill-rule="evenodd"/>
    <path d="M31.585,36.062 C24.890,36.062 19.442,30.616 19.442,23.923 C19.442,17.228 24.890,11.782 31.585,11.782 C38.281,11.782 43.729,17.228 43.729,23.923 C43.729,30.616 38.281,36.062 31.585,36.062 ZM31.585,14.781 C26.544,14.781 22.442,18.882 22.442,23.923 C22.442,28.962 26.544,33.063 31.585,33.063 C36.627,33.063 40.728,28.962 40.728,23.923 C40.728,18.882 36.627,14.781 31.585,14.781 Z" id="path-5" class="cls-3" fill-rule="evenodd"/>
    <path d="M34.034,19.826 C34.034,22.819 31.607,25.246 28.613,25.246 C25.619,25.246 23.191,22.819 23.191,19.826 C23.191,16.833 25.619,14.406 28.613,14.406 C31.607,14.406 34.034,16.833 34.034,19.826 Z" id="path-6" class="cls-3" fill-rule="evenodd"/>
  </g>
</svg>
