<svg xmlns="http://www.w3.org/2000/svg" xmlns:xlink="http://www.w3.org/1999/xlink" preserveAspectRatio="xMidYMid" width="58" height="64" viewBox="0 0 58 64">
  <defs>
    <style>

      .cls-3 {
        fill: #edc951;
      }

      .cls-4 {
        fill: #e56a77;
      }

      .cls-7 {
        fill: #000000;
      }
    </style>
  </defs>
  <g id="group-6svg">
    <path d="M58.000,39.413 C58.000,34.996 54.418,31.415 50.000,31.415 C50.000,31.415 13.000,31.415 13.000,31.415 C8.582,31.415 5.000,34.996 5.000,39.413 C5.000,39.413 5.000,56.409 5.000,56.409 C5.000,60.827 8.582,64.407 13.000,64.407 C13.000,64.407 50.000,64.407 50.000,64.407 C54.418,64.407 58.000,60.827 58.000,56.409 C58.000,56.409 58.000,39.413 58.000,39.413 ZM38.000,53.410 C38.000,55.618 36.209,57.409 34.000,57.409 C34.000,57.409 29.000,57.409 29.000,57.409 C26.791,57.409 25.000,55.618 25.000,53.410 C25.000,53.410 25.000,42.413 25.000,42.413 C25.000,40.204 26.791,38.413 29.000,38.413 C29.000,38.413 34.000,38.413 34.000,38.413 C36.209,38.413 38.000,40.204 38.000,42.413 C38.000,42.413 38.000,53.410 38.000,53.410 Z" id="path-1" class="cls-3" fill-rule="evenodd"/>
    <path d="M25.000,31.415 C25.000,31.415 25.000,25.437 25.000,25.437 C25.000,24.337 26.244,23.417 27.344,23.417 C27.344,23.417 34.344,23.417 34.344,23.417 C35.448,23.417 36.000,24.333 36.000,25.437 C36.000,25.437 36.000,31.415 36.000,31.415 C36.000,31.415 36.000,31.415 36.000,31.415 " id="path-2" class="cls-4" fill-rule="evenodd"/>
    <path d="M51.779,49.514 C51.779,51.923 49.825,53.877 47.415,53.877 C45.005,53.877 43.051,51.923 43.051,49.514 C43.051,47.105 45.005,45.152 47.415,45.152 C49.825,45.152 51.779,47.105 51.779,49.514 Z" id="path-3" class="cls-4" fill-rule="evenodd"/>
    <path d="M20.494,49.514 C20.494,51.923 18.540,53.877 16.130,53.877 C13.720,53.877 11.767,51.923 11.767,49.514 C11.767,47.105 13.720,45.152 16.130,45.152 C18.540,45.152 20.494,47.105 20.494,49.514 Z" id="path-4" class="cls-4" fill-rule="evenodd"/>
    <path d="M46.500,63.407 C46.500,63.407 9.500,63.407 9.500,63.407 C4.262,63.407 -0.000,59.147 -0.000,53.910 C-0.000,53.910 -0.000,36.914 -0.000,36.914 C-0.000,31.677 4.262,27.416 9.500,27.416 C9.500,27.416 46.500,27.416 46.500,27.416 C51.738,27.416 56.000,31.677 56.000,36.914 C56.000,36.914 56.000,53.910 56.000,53.910 C56.000,59.147 51.738,63.407 46.500,63.407 ZM9.500,30.415 C5.916,30.415 3.000,33.331 3.000,36.914 C3.000,36.914 3.000,53.910 3.000,53.910 C3.000,57.493 5.916,60.408 9.500,60.408 C9.500,60.408 46.500,60.408 46.500,60.408 C50.084,60.408 53.000,57.493 53.000,53.910 C53.000,53.910 53.000,36.914 53.000,36.914 C53.000,33.331 50.084,30.415 46.500,30.415 C46.500,30.415 9.500,30.415 9.500,30.415 ZM30.500,56.409 C30.500,56.409 25.500,56.409 25.500,56.409 C22.467,56.409 20.000,53.942 20.000,50.910 C20.000,50.910 20.000,39.913 20.000,39.913 C20.000,36.882 22.467,34.414 25.500,34.414 C25.500,34.414 30.500,34.414 30.500,34.414 C33.533,34.414 36.000,36.882 36.000,39.913 C36.000,39.913 36.000,50.910 36.000,50.910 C36.000,53.942 33.533,56.409 30.500,56.409 ZM25.500,37.414 C24.122,37.414 23.000,38.535 23.000,39.913 C23.000,39.913 23.000,50.910 23.000,50.910 C23.000,52.289 24.122,53.410 25.500,53.410 C25.500,53.410 30.500,53.410 30.500,53.410 C31.878,53.410 33.000,52.289 33.000,50.910 C33.000,50.910 33.000,39.913 33.000,39.913 C33.000,38.535 31.878,37.414 30.500,37.414 C30.500,37.414 25.500,37.414 25.500,37.414 Z" id="path-5" class="cls-7" fill-rule="evenodd"/>
    <path d="M19.554,13.064 C19.370,13.064 19.182,13.030 19.000,12.958 C18.230,12.652 17.854,11.780 18.160,11.011 C19.532,7.559 22.820,5.329 26.535,5.329 C30.164,5.329 33.422,7.488 34.836,10.830 C35.159,11.593 34.802,12.472 34.040,12.796 C33.275,13.115 32.396,12.760 32.074,11.998 C31.130,9.769 28.956,8.328 26.535,8.328 C24.057,8.328 21.863,9.816 20.948,12.118 C20.714,12.707 20.150,13.064 19.554,13.064 Z" id="path-6" class="cls-7" fill-rule="evenodd"/>
    <path d="M16.260,9.967 C16.076,9.967 15.889,9.933 15.707,9.861 C14.937,9.555 14.561,8.683 14.867,7.914 C16.781,3.099 21.367,-0.012 26.550,-0.012 C31.612,-0.012 36.158,3.000 38.130,7.662 C38.453,8.425 38.096,9.304 37.333,9.627 C36.568,9.948 35.689,9.592 35.367,8.830 C33.866,5.281 30.405,2.987 26.550,2.987 C22.603,2.987 19.112,5.356 17.655,9.021 C17.421,9.610 16.857,9.967 16.260,9.967 Z" id="path-7" class="cls-7" fill-rule="evenodd"/>
    <path d="M32.500,29.916 C31.671,29.916 31.000,29.244 31.000,28.416 C31.000,28.416 31.000,22.517 31.000,22.517 C30.894,22.474 30.680,22.417 30.344,22.417 C30.344,22.417 23.344,22.417 23.344,22.417 C23.182,22.417 23.071,22.431 23.000,22.446 C23.000,22.446 23.000,28.416 23.000,28.416 C23.000,29.244 22.329,29.916 21.500,29.916 C20.671,29.916 20.000,29.244 20.000,28.416 C20.000,28.416 20.000,22.438 20.000,22.438 C20.000,20.603 21.312,19.418 23.344,19.418 C23.344,19.418 30.344,19.418 30.344,19.418 C32.531,19.418 34.000,20.632 34.000,22.438 C34.000,22.438 34.000,28.416 34.000,28.416 C34.000,29.244 33.329,29.916 32.500,29.916 Z" id="path-8" class="cls-7" fill-rule="evenodd"/>
    <path d="M43.415,52.377 C40.182,52.377 37.551,49.748 37.551,46.515 C37.551,43.282 40.182,40.653 43.415,40.653 C46.648,40.653 49.279,43.282 49.279,46.515 C49.279,49.748 46.648,52.377 43.415,52.377 ZM43.415,43.652 C41.836,43.652 40.551,44.936 40.551,46.515 C40.551,48.094 41.836,49.378 43.415,49.378 C44.994,49.378 46.279,48.094 46.279,46.515 C46.279,44.936 44.994,43.652 43.415,43.652 Z" id="path-9" class="cls-7" fill-rule="evenodd"/>
    <path d="M12.130,52.377 C8.897,52.377 6.267,49.748 6.267,46.515 C6.267,43.282 8.897,40.653 12.130,40.653 C15.363,40.653 17.994,43.282 17.994,46.515 C17.994,49.748 15.363,52.377 12.130,52.377 ZM12.130,43.652 C10.551,43.652 9.267,44.936 9.267,46.515 C9.267,48.094 10.551,49.378 12.130,49.378 C13.709,49.378 14.994,48.094 14.994,46.515 C14.994,44.936 13.709,43.652 12.130,43.652 Z" id="path-10" class="cls-7" fill-rule="evenodd"/>
    <path d="M26.500,21.917 C25.671,21.917 25.000,21.246 25.000,20.418 C25.000,20.418 25.000,12.420 25.000,12.420 C25.000,11.592 25.671,10.920 26.500,10.920 C27.329,10.920 28.000,11.592 28.000,12.420 C28.000,12.420 28.000,20.418 28.000,20.418 C28.000,21.246 27.329,21.917 26.500,21.917 Z" id="path-11" class="cls-7" fill-rule="evenodd"/>
  </g>
</svg>
