<svg xmlns="http://www.w3.org/2000/svg" xmlns:xlink="http://www.w3.org/1999/xlink" preserveAspectRatio="xMidYMid" width="66" height="36" viewBox="0 0 66 36">
  <defs>
    <style>

      .cls-3 {
        fill: #53ecf4;
      }

      .cls-4 {
        fill: #000000;
      }
    </style>
  </defs>
  <g id="group-13svg">
    <path d="M60.215,35.341 C63.541,32.146 65.430,27.806 65.493,22.605 C65.590,14.668 60.434,7.571 52.673,5.905 C46.031,4.479 39.861,6.919 36.090,11.491 C34.394,10.771 32.529,10.346 30.571,10.346 C24.578,10.346 19.468,14.070 17.412,19.335 C14.814,18.747 11.863,19.000 8.710,22.015 C6.761,23.878 5.484,26.383 5.495,29.079 C5.501,30.574 5.844,31.936 6.451,33.173 C6.451,33.173 6.451,33.173 6.451,33.173 " id="path-1" class="cls-3" fill-rule="evenodd"/>
    <path d="M56.215,32.841 C55.821,32.841 55.428,32.686 55.134,32.379 C54.560,31.782 54.579,30.833 55.176,30.259 C58.271,27.286 59.937,23.250 59.993,18.587 C60.084,11.119 55.300,4.862 48.358,3.372 C42.547,2.124 36.897,4.020 33.247,8.446 C32.825,8.958 32.115,9.131 31.503,8.872 C29.901,8.191 28.241,7.846 26.571,7.846 C21.332,7.846 16.715,11.000 14.810,15.881 C14.540,16.572 13.809,16.962 13.081,16.798 C11.227,16.378 8.716,16.259 5.747,19.099 C3.963,20.804 2.986,22.925 2.995,25.074 C2.999,26.280 3.270,27.437 3.798,28.512 C4.163,29.256 3.856,30.155 3.112,30.520 C2.368,30.885 1.469,30.578 1.104,29.834 C0.375,28.349 0.002,26.750 -0.005,25.086 C-0.017,22.106 1.289,19.210 3.673,16.931 C6.372,14.351 9.277,13.274 12.508,13.658 C15.107,8.266 20.501,4.846 26.571,4.846 C28.290,4.846 29.996,5.138 31.653,5.715 C35.991,1.069 42.530,-0.948 48.988,0.438 C57.210,2.204 63.101,9.852 62.993,18.624 C62.927,24.108 60.942,28.879 57.254,32.422 C56.964,32.702 56.589,32.841 56.215,32.841 Z" id="path-2" class="cls-4" fill-rule="evenodd"/>
    <path d="M40.576,29.614 C40.138,29.614 39.703,29.422 39.406,29.054 C38.887,28.409 38.989,27.464 39.635,26.945 C39.635,26.945 47.630,20.513 47.630,20.513 C47.630,20.513 41.100,17.830 41.100,17.830 C40.585,17.618 40.229,17.140 40.176,16.586 C40.123,16.032 40.381,15.494 40.846,15.188 C40.846,15.188 49.725,9.353 49.725,9.353 C50.417,8.897 51.347,9.090 51.802,9.782 C52.257,10.475 52.065,11.405 51.373,11.859 C51.373,11.859 44.869,16.135 44.869,16.135 C44.869,16.135 51.119,18.702 51.119,18.702 C51.609,18.904 51.957,19.350 52.033,19.874 C52.109,20.400 51.902,20.926 51.489,21.258 C51.489,21.258 41.516,29.283 41.516,29.283 C41.238,29.505 40.906,29.614 40.576,29.614 Z" id="path-3" class="cls-4" fill-rule="evenodd"/>
  </g>
</svg>
