<svg xmlns="http://www.w3.org/2000/svg" xmlns:xlink="http://www.w3.org/1999/xlink" preserveAspectRatio="xMidYMid" width="65" height="65" viewBox="0 0 65 65">
  <defs>
    <style>

      .cls-3 {
        fill: #99746a;
      }

      .cls-4 {
        fill: #000000;
      }
    </style>
  </defs>
  <g id="group-9svg">
    <path d="M21.033,61.596 C21.033,61.596 4.506,64.551 4.506,64.551 C4.506,64.551 7.460,48.012 7.460,48.012 C7.460,48.012 48.120,7.322 48.120,7.322 C51.869,3.571 57.946,3.571 61.694,7.322 C61.694,7.322 61.694,7.322 61.694,7.322 C65.443,11.074 65.443,17.155 61.694,20.906 C61.694,20.906 21.033,61.596 21.033,61.596 Z" id="path-1" class="cls-3" fill-rule="evenodd"/>
    <path d="M1.506,63.050 C1.111,63.050 0.728,62.895 0.445,62.611 C0.099,62.264 -0.057,61.769 0.029,61.285 C0.029,61.285 2.983,44.746 2.983,44.746 C3.037,44.444 3.183,44.165 3.399,43.948 C3.399,43.948 44.060,3.259 44.060,3.259 C46.156,1.161 48.943,0.006 51.907,0.006 C54.872,0.006 57.659,1.161 59.755,3.259 C61.852,5.357 63.006,8.146 63.006,11.112 C63.006,14.079 61.852,16.868 59.755,18.965 C59.755,18.965 19.094,59.655 19.094,59.655 C18.877,59.872 18.599,60.017 18.297,60.071 C18.297,60.071 1.769,63.027 1.769,63.027 C1.682,63.043 1.594,63.050 1.506,63.050 ZM5.853,45.738 C5.853,45.738 3.361,59.693 3.361,59.693 C3.361,59.693 17.306,57.199 17.306,57.199 C17.306,57.199 57.634,16.842 57.634,16.842 C59.164,15.312 60.006,13.277 60.006,11.112 C60.006,8.948 59.164,6.912 57.634,5.382 C56.104,3.851 54.070,3.008 51.907,3.008 C49.744,3.008 47.711,3.851 46.181,5.382 C46.181,5.382 5.853,45.738 5.853,45.738 Z" id="path-2" class="cls-4" fill-rule="evenodd"/>
    <path d="M16.162,59.250 C15.778,59.250 15.394,59.104 15.102,58.811 C15.102,58.811 4.243,47.944 4.243,47.944 C3.657,47.358 3.657,46.407 4.243,45.821 C4.829,45.235 5.778,45.235 6.364,45.821 C6.364,45.821 17.223,56.688 17.223,56.688 C17.809,57.274 17.809,58.225 17.223,58.811 C16.930,59.104 16.546,59.250 16.162,59.250 Z" id="path-3" class="cls-4" fill-rule="evenodd"/>
    <path d="M55.075,20.311 C54.691,20.311 54.308,20.164 54.015,19.871 C54.015,19.871 43.155,9.004 43.155,9.004 C42.569,8.418 42.569,7.468 43.155,6.881 C43.741,6.295 44.690,6.295 45.276,6.881 C45.276,6.881 56.136,17.748 56.136,17.748 C56.722,18.334 56.722,19.284 56.136,19.871 C55.843,20.164 55.459,20.311 55.075,20.311 Z" id="path-4" class="cls-4" fill-rule="evenodd"/>
  </g>
</svg>
