<svg xmlns="http://www.w3.org/2000/svg" xmlns:xlink="http://www.w3.org/1999/xlink" preserveAspectRatio="xMidYMid" width="65" height="52" viewBox="0 0 65 52">
  <defs>
    <style>

      .cls-3 {
        fill: #81bda4;
      }

      .cls-4 {
        fill: #53ecf4;
      }

      .cls-5 {
        fill: #000000;
      }
    </style>
  </defs>
  <g id="group-13svg">
    <path d="M64.500,38.019 C64.500,42.438 60.918,46.021 56.500,46.021 C56.500,46.021 13.500,46.021 13.500,46.021 C9.081,46.021 5.500,42.438 5.500,38.019 C5.500,38.019 5.500,12.011 5.500,12.011 C5.500,7.591 9.081,4.008 13.500,4.008 C13.500,4.008 56.500,4.008 56.500,4.008 C60.918,4.008 64.500,7.591 64.500,12.011 C64.500,12.011 64.500,38.019 64.500,38.019 Z" id="path-1" class="cls-3" fill-rule="evenodd"/>
    <path d="M5.906,37.018 C5.906,42.020 9.999,46.021 15.049,46.021 C15.049,46.021 56.192,46.021 56.192,46.021 C61.241,46.021 65.335,42.020 65.335,37.018 C65.335,37.018 5.906,37.018 5.906,37.018 Z" id="path-2" class="cls-4" fill-rule="evenodd"/>
    <path d="M53.000,45.021 C53.000,45.021 10.000,45.021 10.000,45.021 C4.762,45.021 0.500,40.758 0.500,35.518 C0.500,35.518 0.500,9.510 0.500,9.510 C0.500,4.270 4.762,0.007 10.000,0.007 C10.000,0.007 53.000,0.007 53.000,0.007 C58.238,0.007 62.500,4.270 62.500,9.510 C62.500,9.510 62.500,35.518 62.500,35.518 C62.500,40.758 58.238,45.021 53.000,45.021 ZM10.000,3.008 C6.416,3.008 3.500,5.925 3.500,9.510 C3.500,9.510 3.500,35.518 3.500,35.518 C3.500,39.103 6.416,42.020 10.000,42.020 C10.000,42.020 53.000,42.020 53.000,42.020 C56.584,42.020 59.500,39.103 59.500,35.518 C59.500,35.518 59.500,9.510 59.500,9.510 C59.500,5.925 56.584,3.008 53.000,3.008 C53.000,3.008 10.000,3.008 10.000,3.008 Z" id="path-3" class="cls-5" fill-rule="evenodd"/>
    <path d="M52.192,45.021 C52.192,45.021 12.049,45.021 12.049,45.021 C6.181,45.021 1.406,40.309 1.406,34.518 C1.406,33.689 2.078,33.017 2.906,33.017 C2.906,33.017 61.335,33.017 61.335,33.017 C62.164,33.017 62.835,33.689 62.835,34.518 C62.835,40.309 58.060,45.021 52.192,45.021 ZM4.560,36.018 C5.270,39.438 8.358,42.020 12.049,42.020 C12.049,42.020 52.192,42.020 52.192,42.020 C55.883,42.020 58.971,39.438 59.682,36.018 C59.682,36.018 4.560,36.018 4.560,36.018 Z" id="path-4" class="cls-5" fill-rule="evenodd"/>
    <path d="M61.500,51.023 C61.500,51.023 1.500,51.023 1.500,51.023 C0.671,51.023 -0.000,50.351 -0.000,49.522 C-0.000,48.694 0.671,48.022 1.500,48.022 C1.500,48.022 61.500,48.022 61.500,48.022 C62.329,48.022 63.000,48.694 63.000,49.522 C63.000,50.351 62.329,51.023 61.500,51.023 Z" id="path-5" class="cls-5" fill-rule="evenodd"/>
    <path d="M35.417,30.308 C35.033,30.308 34.649,30.162 34.356,29.869 C33.770,29.283 33.770,28.333 34.356,27.747 C34.356,27.747 42.638,19.464 42.638,19.464 C43.224,18.878 44.173,18.878 44.759,19.464 C45.345,20.050 45.345,21.000 44.759,21.586 C44.759,21.586 36.478,29.869 36.478,29.869 C36.185,30.162 35.801,30.308 35.417,30.308 Z" id="path-6" class="cls-5" fill-rule="evenodd"/>
    <path d="M22.587,31.711 C22.203,31.711 21.819,31.564 21.526,31.271 C20.940,30.685 20.940,29.736 21.526,29.150 C21.526,29.150 39.468,11.202 39.468,11.202 C40.054,10.616 41.003,10.616 41.589,11.202 C42.175,11.788 42.175,12.737 41.589,13.324 C41.589,13.324 23.647,31.271 23.647,31.271 C23.354,31.564 22.971,31.711 22.587,31.711 Z" id="path-7" class="cls-5" fill-rule="evenodd"/>
  </g>
</svg>
