<svg xmlns="http://www.w3.org/2000/svg" xmlns:xlink="http://www.w3.org/1999/xlink" preserveAspectRatio="xMidYMid" width="57" height="63" viewBox="0 0 57 63">
  <defs>
    <style>

      .cls-3 {
        fill: #53ecf4;
      }

      .cls-4 {
        fill: #81bda4;
      }

      .cls-6 {
        fill: #edc951;
      }

      .cls-7 {
        fill: #ff917b;
      }

      .cls-9 {
        fill: #000000;
      }
    </style>
  </defs>
  <g id="group-11svg">
    <path d="M54.836,45.009 C54.836,54.668 47.007,62.498 37.348,62.498 C27.689,62.498 19.859,54.668 19.859,45.009 C19.859,35.351 27.689,27.520 37.348,27.520 C47.007,27.520 54.836,35.351 54.836,45.009 Z" id="path-1" class="cls-3" fill-rule="evenodd"/>
    <path d="M38.058,62.498 C38.058,62.498 36.104,59.162 35.616,58.784 C35.128,58.405 35.475,57.145 35.603,56.390 C35.731,55.633 35.852,52.357 35.616,51.728 C35.380,51.098 38.372,50.845 39.254,50.845 C40.137,50.845 43.916,50.719 44.799,49.711 C45.681,48.703 44.799,47.065 44.799,45.805 C44.799,44.545 49.965,42.025 50.721,41.773 C51.477,41.521 54.769,43.526 54.769,43.526 C54.769,43.526 55.377,52.883 49.409,57.666 C43.440,62.450 38.058,62.498 38.058,62.498 Z" id="path-2" class="cls-4" fill-rule="evenodd"/>
    <path d="M22.347,36.244 C22.347,36.244 24.502,37.111 24.880,37.111 C25.258,37.111 30.221,36.859 31.354,35.725 C32.488,34.591 32.156,32.953 32.156,32.953 C32.156,32.953 32.156,28.950 32.156,28.950 C32.156,28.950 26.395,29.412 22.347,36.244 Z" id="path-3" class="cls-4" fill-rule="evenodd"/>
    <path d="M23.321,55.559 C23.321,55.559 27.410,53.747 28.012,52.865 C28.614,51.982 28.544,49.970 28.071,49.466 C27.599,48.961 29.048,48.338 29.174,47.834 C29.300,47.330 30.434,46.839 31.064,46.334 C31.694,45.831 33.458,45.226 35.616,43.883 C37.773,42.540 34.514,42.504 34.514,42.504 C34.514,42.504 28.544,44.503 27.536,44.755 C26.528,45.007 23.630,45.469 23.630,45.469 C23.630,45.469 22.936,45.469 22.936,45.469 C22.936,45.469 20.678,45.723 20.678,45.723 C20.678,45.723 19.202,48.667 23.321,55.559 Z" id="path-4" class="cls-6" fill-rule="evenodd"/>
    <path d="M37.663,10.525 C37.663,10.525 40.333,18.401 47.946,13.226 C55.560,8.050 57.054,12.248 57.054,12.248 C57.054,12.248 53.725,-3.595 43.399,5.110 C43.399,5.110 40.183,7.952 37.663,10.525 Z" id="path-5" class="cls-7" fill-rule="evenodd"/>
    <path d="M35.142,17.381 C35.142,17.381 31.059,29.425 19.416,21.511 C7.773,13.596 5.487,20.015 5.487,20.015 C5.487,20.015 10.579,-4.214 26.369,9.099 C26.369,9.099 31.289,13.445 35.142,17.381 Z" id="path-6" class="cls-7" fill-rule="evenodd"/>
    <path d="M33.348,62.998 C22.878,62.998 14.359,54.479 14.359,44.009 C14.359,33.539 22.878,25.020 33.348,25.020 C43.818,25.020 52.337,33.539 52.337,44.009 C52.337,54.479 43.818,62.998 33.348,62.998 ZM33.348,28.020 C24.531,28.020 17.359,35.193 17.359,44.009 C17.359,52.825 24.531,59.998 33.348,59.998 C42.164,59.998 49.337,52.825 49.337,44.009 C49.337,35.193 42.164,28.020 33.348,28.020 Z" id="path-7" class="cls-9" fill-rule="evenodd"/>
    <path d="M39.171,15.487 C39.171,15.487 39.171,15.487 39.171,15.487 C34.158,15.487 32.318,10.231 32.242,10.007 C32.060,9.472 32.196,8.880 32.591,8.476 C35.120,5.894 38.273,3.103 38.406,2.986 C40.767,0.995 43.022,-0.002 45.137,-0.002 C51.621,-0.002 54.062,8.994 54.464,10.682 C54.534,10.856 54.573,10.908 54.573,11.108 C54.573,11.933 53.908,12.469 53.086,12.469 C53.075,12.469 53.064,12.469 53.053,12.469 C52.434,12.469 51.857,12.222 51.641,11.611 C51.610,11.551 51.309,11.072 50.243,11.072 C49.315,11.072 47.616,11.510 44.790,13.432 C42.816,14.772 40.926,15.487 39.171,15.487 ZM35.452,9.853 C35.999,10.873 37.180,12.487 39.171,12.487 C40.313,12.487 41.637,11.982 43.102,10.985 C45.879,9.098 48.281,8.142 50.243,8.142 C50.315,8.142 50.386,8.143 50.455,8.145 C49.439,5.759 47.708,2.998 45.137,2.998 C43.749,2.998 42.145,3.758 40.366,5.256 C40.361,5.261 37.763,7.561 35.452,9.853 Z" id="path-8" class="cls-9" fill-rule="evenodd"/>
    <path d="M22.720,24.704 C20.196,24.704 17.456,23.710 14.572,21.751 C10.083,18.699 7.316,18.059 5.785,18.059 C3.561,18.059 2.951,19.395 2.890,19.547 C2.596,20.266 1.796,20.659 1.055,20.431 C0.312,20.204 -0.141,19.465 0.019,18.706 C0.157,18.048 3.520,2.604 13.595,2.604 C16.637,2.604 19.914,4.067 23.336,6.952 C23.412,7.019 28.367,11.403 32.214,15.332 C32.608,15.735 32.744,16.327 32.562,16.862 C32.454,17.183 29.822,24.704 22.720,24.704 ZM5.785,15.059 C8.624,15.059 12.148,16.476 16.260,19.270 C18.636,20.885 20.810,21.704 22.720,21.704 C26.559,21.704 28.611,18.336 29.374,16.726 C25.727,13.073 21.422,9.264 21.376,9.223 C18.536,6.830 15.909,5.604 13.595,5.604 C8.699,5.604 5.723,11.172 4.207,15.214 C4.682,15.115 5.206,15.059 5.785,15.059 Z" id="path-9" class="cls-9" fill-rule="evenodd"/>
    <path d="M32.844,27.193 C32.103,27.193 31.459,26.645 31.358,25.891 C30.304,17.961 32.287,9.579 32.372,9.226 C32.565,8.421 33.367,7.924 34.181,8.119 C34.985,8.312 35.481,9.122 35.289,9.927 C35.269,10.008 33.352,18.132 34.333,25.495 C34.441,26.316 33.864,27.070 33.044,27.180 C32.977,27.189 32.910,27.193 32.844,27.193 Z" id="path-10" class="cls-9" fill-rule="evenodd"/>
    <path d="M34.059,62.998 C33.544,62.998 33.042,62.732 32.763,62.256 C31.977,60.912 30.948,59.277 30.633,58.917 C29.566,58.024 29.862,56.500 30.059,55.485 C30.059,55.485 30.124,55.139 30.124,55.139 C30.231,54.507 30.314,51.751 30.186,51.175 C30.014,50.726 30.086,50.154 30.409,49.687 C31.249,48.476 34.077,48.345 35.254,48.345 C37.137,48.345 39.261,48.029 39.712,47.682 C39.755,47.547 39.604,46.832 39.523,46.447 C39.413,45.921 39.299,45.377 39.299,44.806 C39.299,42.100 46.177,39.373 46.246,39.351 C46.706,39.197 47.662,38.878 51.550,41.245 C52.257,41.676 52.481,42.598 52.051,43.306 C51.621,44.013 50.698,44.238 49.989,43.808 C48.842,43.109 47.520,42.446 46.971,42.283 C45.862,42.744 43.022,44.294 42.317,45.061 C42.347,45.291 42.403,45.564 42.460,45.831 C42.692,46.940 43.012,48.460 41.928,49.699 C40.626,51.185 36.827,51.345 35.254,51.345 C34.716,51.345 33.851,51.428 33.227,51.535 C33.316,53.091 33.150,55.237 33.081,55.642 C33.060,55.767 33.033,55.907 33.004,56.056 C32.960,56.286 32.885,56.672 32.866,56.919 C33.229,57.338 33.928,58.306 35.352,60.740 C35.771,61.455 35.530,62.373 34.815,62.792 C34.577,62.932 34.316,62.998 34.059,62.998 Z" id="path-11" class="cls-9" fill-rule="evenodd"/>
    <path d="M21.005,37.611 C20.702,37.611 20.245,37.611 17.875,36.320 C17.147,35.924 16.879,35.013 17.275,34.286 C17.672,33.557 18.581,33.290 19.311,33.686 C20.031,34.078 20.841,34.478 21.175,34.608 C22.620,34.564 25.987,34.159 26.628,33.648 C27.211,33.064 27.163,32.099 27.162,32.089 C27.158,32.044 27.156,31.999 27.156,31.953 C27.156,31.953 27.156,27.469 27.156,27.469 C27.156,26.640 27.828,25.969 28.656,25.969 C29.484,25.969 30.156,26.640 30.156,27.469 C30.156,27.469 30.156,31.902 30.156,31.902 C30.184,32.374 30.199,34.319 28.731,35.786 C27.014,37.504 21.063,37.611 21.005,37.611 Z" id="path-12" class="cls-9" fill-rule="evenodd"/>
    <path d="M19.321,55.810 C18.719,55.810 18.150,55.444 17.921,54.847 C17.624,54.074 18.010,53.206 18.783,52.909 C20.583,52.218 22.473,51.298 22.828,50.941 C22.954,50.733 23.006,49.760 22.873,49.356 C22.594,49.005 22.455,48.577 22.479,48.133 C22.528,47.249 23.162,46.707 23.625,46.312 C23.690,46.256 23.757,46.202 23.815,46.149 C24.125,45.409 24.837,44.953 25.527,44.510 C25.742,44.373 25.958,44.238 26.127,44.102 C26.261,43.995 26.411,43.893 26.580,43.790 C26.580,43.790 23.900,44.460 23.900,44.460 C22.766,44.744 20.379,44.548 19.557,44.469 C19.557,44.469 19.255,44.469 19.255,44.469 C19.255,44.469 17.287,45.344 17.287,45.344 C16.526,45.681 15.644,45.338 15.307,44.582 C14.971,43.825 15.311,42.939 16.068,42.602 C16.068,42.602 18.327,41.598 18.327,41.598 C18.519,41.513 18.727,41.469 18.937,41.469 C18.937,41.469 19.630,41.469 19.630,41.469 C19.680,41.469 19.728,41.471 19.778,41.476 C21.054,41.603 22.724,41.662 23.172,41.550 C23.172,41.550 30.149,39.804 30.149,39.804 C30.292,39.769 30.438,39.754 30.586,39.761 C31.859,39.823 33.449,40.176 33.796,41.510 C33.966,42.162 33.862,43.128 32.409,44.034 C31.184,44.795 30.069,45.356 29.254,45.765 C28.745,46.021 28.168,46.311 28.002,46.444 C27.759,46.639 27.454,46.838 27.146,47.035 C26.965,47.152 26.681,47.334 26.533,47.452 C26.348,47.885 26.023,48.202 25.724,48.464 C26.126,49.771 25.976,51.641 25.250,52.703 C24.535,53.751 21.924,54.916 19.859,55.710 C19.683,55.777 19.500,55.810 19.321,55.810 Z" id="path-13" class="cls-9" fill-rule="evenodd"/>
  </g>
</svg>
