<svg xmlns="http://www.w3.org/2000/svg" xmlns:xlink="http://www.w3.org/1999/xlink" preserveAspectRatio="xMidYMid" width="63" height="65" viewBox="0 0 63 65">
  <defs>
    <style>

      .cls-3 {
        fill: #53ecf4;
      }

      .cls-4 {
        fill: #000000;
      }
    </style>
  </defs>
  <g id="group-28svg">
    <path d="M58.735,34.750 C58.735,34.750 57.735,34.750 57.735,34.750 C55.535,34.750 54.000,36.332 54.000,38.532 C54.000,38.532 54.000,34.532 54.000,34.532 C54.000,32.323 51.944,30.750 49.735,30.750 C49.735,30.750 47.735,30.750 47.735,30.750 C45.535,30.750 44.000,32.332 44.000,34.532 C44.000,34.532 44.000,27.532 44.000,27.532 C44.000,25.323 41.944,23.750 39.735,23.750 C39.735,23.750 38.735,23.750 38.735,23.750 C36.535,23.750 35.000,25.332 35.000,27.532 C35.000,27.532 35.000,12.155 35.000,12.155 C35.000,9.654 33.755,7.909 30.677,7.909 C27.599,7.909 26.000,9.654 26.000,12.155 C26.000,12.155 26.000,44.532 26.000,44.532 C26.000,44.532 26.000,54.750 26.000,54.750 C26.000,54.750 9.735,54.750 9.735,54.750 C7.526,54.750 6.000,56.323 6.000,58.532 C6.000,58.532 6.000,60.532 6.000,60.532 C6.000,62.732 7.535,64.750 9.735,64.750 C9.735,64.750 25.735,64.750 25.735,64.750 C25.735,64.750 53.796,64.750 53.796,64.750 C59.119,64.750 63.000,60.157 63.000,54.834 C63.000,54.834 63.000,44.532 63.000,44.532 C63.000,44.532 63.000,38.532 63.000,38.532 C63.000,36.332 60.936,34.750 58.735,34.750 Z" id="path-1" class="cls-3" fill-rule="evenodd"/>
    <path d="M49.796,62.750 C49.796,62.750 5.735,62.750 5.735,62.750 C2.573,62.750 -0.000,60.409 -0.000,57.532 C-0.000,57.532 -0.000,55.532 -0.000,55.532 C-0.000,52.506 2.734,49.750 5.735,49.750 C5.735,49.750 20.000,49.750 20.000,49.750 C20.000,49.750 20.000,9.154 20.000,9.154 C20.000,5.664 22.424,3.409 26.177,3.409 C29.823,3.409 32.000,5.557 32.000,9.154 C32.000,9.154 32.000,19.525 32.000,19.525 C32.829,19.036 33.768,18.750 34.735,18.750 C34.735,18.750 35.735,18.750 35.735,18.750 C38.638,18.750 41.000,21.344 41.000,24.532 C41.000,24.532 41.000,26.525 41.000,26.525 C41.829,26.036 42.768,25.750 43.735,25.750 C43.735,25.750 45.735,25.750 45.735,25.750 C48.339,25.750 50.508,27.837 50.927,30.569 C51.773,30.053 52.740,29.750 53.735,29.750 C53.735,29.750 54.735,29.750 54.735,29.750 C57.638,29.750 60.000,32.344 60.000,35.532 C60.000,35.532 60.000,51.834 60.000,51.834 C60.000,58.159 55.709,62.750 49.796,62.750 ZM5.735,52.750 C4.355,52.750 3.000,54.128 3.000,55.532 C3.000,55.532 3.000,57.532 3.000,57.532 C3.000,58.902 4.420,59.750 5.735,59.750 C5.735,59.750 49.796,59.750 49.796,59.750 C54.105,59.750 57.000,56.569 57.000,51.834 C57.000,51.834 57.000,35.532 57.000,35.532 C57.000,34.188 56.090,32.750 54.735,32.750 C54.735,32.750 53.735,32.750 53.735,32.750 C52.380,32.750 51.000,34.154 51.000,35.532 C51.000,36.360 50.329,37.032 49.500,37.032 C48.671,37.032 48.000,36.360 48.000,35.532 C48.000,35.532 48.000,31.532 48.000,31.532 C48.000,30.194 47.134,28.750 45.735,28.750 C45.735,28.750 43.735,28.750 43.735,28.750 C42.380,28.750 41.000,30.154 41.000,31.532 C41.000,32.360 40.329,33.032 39.500,33.032 C38.671,33.032 38.000,32.360 38.000,31.532 C38.000,31.532 38.000,24.532 38.000,24.532 C38.000,23.194 37.134,21.750 35.735,21.750 C35.735,21.750 34.735,21.750 34.735,21.750 C33.380,21.750 32.000,23.154 32.000,24.532 C32.000,25.360 31.329,26.032 30.500,26.032 C29.671,26.032 29.000,25.360 29.000,24.532 C29.000,24.532 29.000,9.154 29.000,9.154 C29.000,7.205 28.182,6.409 26.177,6.409 C24.069,6.409 23.000,7.333 23.000,9.154 C23.000,9.154 23.000,51.250 23.000,51.250 C23.000,52.079 22.329,52.750 21.500,52.750 C21.500,52.750 5.735,52.750 5.735,52.750 Z" id="path-2" class="cls-4" fill-rule="evenodd"/>
    <path d="M34.480,7.541 C33.930,7.541 33.400,7.238 33.137,6.712 C32.767,5.971 33.067,5.070 33.808,4.700 C33.808,4.700 42.865,0.171 42.865,0.171 C43.606,-0.199 44.507,0.101 44.877,0.842 C45.247,1.582 44.947,2.483 44.207,2.854 C44.207,2.854 35.150,7.383 35.150,7.383 C34.935,7.490 34.706,7.541 34.480,7.541 Z" id="path-3" class="cls-4" fill-rule="evenodd"/>
    <path d="M44.000,10.750 C44.000,10.750 35.000,10.750 35.000,10.750 C34.171,10.750 33.500,10.079 33.500,9.250 C33.500,8.421 34.171,7.750 35.000,7.750 C35.000,7.750 44.000,7.750 44.000,7.750 C44.829,7.750 45.500,8.421 45.500,9.250 C45.500,10.079 44.829,10.750 44.000,10.750 Z" id="path-4" class="cls-4" fill-rule="evenodd"/>
    <path d="M17.634,7.541 C17.408,7.541 17.179,7.490 16.964,7.383 C16.964,7.383 7.907,2.854 7.907,2.854 C7.166,2.483 6.866,1.582 7.236,0.842 C7.608,0.101 8.510,-0.199 9.249,0.171 C9.249,0.171 18.306,4.700 18.306,4.700 C19.046,5.070 19.347,5.971 18.977,6.712 C18.713,7.238 18.184,7.541 17.634,7.541 Z" id="path-5" class="cls-4" fill-rule="evenodd"/>
    <path d="M18.000,10.750 C18.000,10.750 8.000,10.750 8.000,10.750 C7.171,10.750 6.500,10.079 6.500,9.250 C6.500,8.421 7.171,7.750 8.000,7.750 C8.000,7.750 18.000,7.750 18.000,7.750 C18.829,7.750 19.500,8.421 19.500,9.250 C19.500,10.079 18.829,10.750 18.000,10.750 Z" id="path-6" class="cls-4" fill-rule="evenodd"/>
  </g>
</svg>
