<svg xmlns="http://www.w3.org/2000/svg" xmlns:xlink="http://www.w3.org/1999/xlink" preserveAspectRatio="xMidYMid" width="57" height="66" viewBox="0 0 57 66">
  <defs>
    <style>

      .cls-3 {
        fill: #ff917b;
      }

      .cls-4 {
        fill: #53ecf4;
      }

      .cls-5 {
        fill: #edc951;
      }

      .cls-6 {
        fill: #000000;
      }
    </style>
  </defs>
  <g id="group-7svg">
    <path d="M56.550,39.667 C56.550,53.775 45.125,65.212 31.032,65.212 C16.938,65.212 5.514,53.775 5.514,39.667 C5.514,25.559 16.938,14.122 31.032,14.122 C45.125,14.122 56.550,25.559 56.550,39.667 Z" id="path-1" class="cls-3" fill-rule="evenodd"/>
    <path d="M45.459,39.667 C45.459,47.643 38.999,54.109 31.032,54.109 C23.064,54.109 16.605,47.643 16.605,39.667 C16.605,31.691 23.064,25.225 31.032,25.225 C38.999,25.225 45.459,31.691 45.459,39.667 Z" id="path-2" class="cls-4" fill-rule="evenodd"/>
    <path d="M24.562,5.018 C24.562,5.018 35.562,5.018 35.562,5.018 C35.562,5.018 35.562,14.027 35.562,14.027 C35.562,14.027 24.562,14.027 24.562,14.027 C24.562,14.027 24.562,5.018 24.562,5.018 Z" id="path-3" class="cls-5" fill-rule="evenodd"/>
    <path d="M27.032,63.710 C12.134,63.710 0.014,51.577 0.014,36.664 C0.014,21.750 12.134,9.618 27.032,9.618 C41.930,9.618 54.050,21.750 54.050,36.664 C54.050,51.577 41.930,63.710 27.032,63.710 ZM27.032,12.621 C13.788,12.621 3.014,23.406 3.014,36.664 C3.014,49.921 13.788,60.707 27.032,60.707 C40.275,60.707 51.050,49.921 51.050,36.664 C51.050,23.406 40.275,12.621 27.032,12.621 Z" id="path-4" class="cls-6" fill-rule="evenodd"/>
    <path d="M27.032,52.608 C18.250,52.608 11.105,45.456 11.105,36.664 C11.105,27.873 18.250,20.720 27.032,20.720 C35.814,20.720 42.959,27.873 42.959,36.664 C42.959,45.456 35.814,52.608 27.032,52.608 ZM27.032,23.723 C19.904,23.723 14.105,29.529 14.105,36.664 C14.105,43.800 19.904,49.605 27.032,49.605 C34.160,49.605 39.959,43.800 39.959,36.664 C39.959,29.529 34.160,23.723 27.032,23.723 Z" id="path-5" class="cls-6" fill-rule="evenodd"/>
    <path d="M32.062,12.025 C32.062,12.025 21.062,12.025 21.062,12.025 C20.234,12.025 19.562,11.353 19.562,10.524 C19.562,10.524 19.562,1.514 19.562,1.514 C19.562,0.685 20.234,0.013 21.062,0.013 C21.062,0.013 32.062,0.013 32.062,0.013 C32.891,0.013 33.562,0.685 33.562,1.514 C33.562,1.514 33.562,10.524 33.562,10.524 C33.562,11.353 32.891,12.025 32.062,12.025 ZM22.562,9.022 C22.562,9.022 30.562,9.022 30.562,9.022 C30.562,9.022 30.562,3.016 30.562,3.016 C30.562,3.016 22.562,3.016 22.562,3.016 C22.562,3.016 22.562,9.022 22.562,9.022 Z" id="path-6" class="cls-6" fill-rule="evenodd"/>
    <path d="M33.616,42.895 C33.372,42.895 33.123,42.836 32.894,42.710 C32.894,42.710 25.339,38.546 25.339,38.546 C24.860,38.282 24.562,37.778 24.562,37.230 C24.562,37.230 24.562,30.044 24.562,30.044 C24.562,29.215 25.234,28.543 26.062,28.543 C26.891,28.543 27.562,29.215 27.562,30.044 C27.562,30.044 27.562,36.343 27.562,36.343 C27.562,36.343 34.341,40.078 34.341,40.078 C35.067,40.479 35.331,41.392 34.932,42.118 C34.659,42.615 34.145,42.895 33.616,42.895 Z" id="path-7" class="cls-6" fill-rule="evenodd"/>
  </g>
</svg>
